<svg width="177" height="182" viewBox="0 0 177 182" fill="none" xmlns="http://www.w3.org/2000/svg">
<rect width="177" height="181.909" transform="translate(0 0.027832)" fill="white"/>
<path fill-rule="evenodd" clip-rule="evenodd" d="M150.512 136.602C177.617 111.748 142.623 97.5663 149.072 76.5628C155.522 55.5593 171.846 23.9726 110.937 29.5376C50.027 35.1025 -0.540674 98.3273 21.1738 128.083C42.8884 157.839 123.408 161.457 150.512 136.602Z" fill="#FFD600" fill-opacity="0.57"/>
<path fill-rule="evenodd" clip-rule="evenodd" d="M100.229 85.6487C101.988 86.5267 103.748 87.4048 105.507 88.2829C108.279 89.6662 111.099 91.0829 113.334 93.2582C115.569 95.4336 117.168 98.528 116.833 101.667C116.439 105.357 113.592 108.199 110.918 110.705C107.433 113.972 103.948 117.239 100.463 120.506C98.9356 121.937 97.2631 123.976 98.0857 125.922C100.222 130.975 102.157 136.723 100.214 141.858C99.6659 143.307 98.5305 144.804 97.0139 144.733C95.8854 144.68 94.9905 143.771 94.2646 142.885C91.3794 139.361 89.2385 135.202 88.0306 130.773C86.4838 125.102 86.6726 118.456 90.4368 114.005C93.3617 110.547 98.4018 108.221 98.7131 103.657C93.0146 98.7018 84.7712 97.0132 77.6497 99.3423C70.5282 101.671 64.7667 107.94 62.928 115.36C61.9266 119.402 64.1681 123.561 66.9252 126.629C69.6823 129.697 73.0643 132.24 75.1858 135.798C79.4522 142.954 77.5896 152.118 75.5933 160.25C74.9005 163.071 70.72 163.542 68.6389 161.562C66.5577 159.581 66.1994 156.345 66.4199 153.444C66.6404 150.543 67.3018 147.611 66.7471 144.757C65.3154 137.393 56.8965 134.03 52.7711 127.822C49.6445 123.117 49.2138 116.961 50.3714 111.395C51.5291 105.828 54.1179 100.7 56.6791 95.6495C51.9129 88.1776 49.912 78.9032 51.1605 70.0706C51.7904 65.6139 46.0621 62.1849 46.6586 57.7234C47.1347 54.1626 51.2141 52.5548 54.6624 51.8849C61.2254 50.6098 67.9369 50.1385 74.6084 50.484C76.1001 50.5613 76.7565 48.3422 76.0094 47.0178C75.2623 45.6934 73.8036 45.0116 72.5955 44.1122C70.1616 42.3004 68.6323 39.4439 67.7892 36.486C66.7071 32.6902 66.705 28.3802 68.7147 25.0036C69.217 24.1597 70.0805 22.9091 71.3943 24.1211C71.7885 22.0056 75.9735 19.9723 78.6492 21.108C80.253 21.7887 81.9619 20.3927 82.9811 18.9536C84.0003 17.5144 84.9861 15.7766 86.6797 15.3861C89.7124 14.6869 91.6545 18.8425 91.3052 22.0056C90.956 25.1686 89.5975 28.5102 90.9313 31.3856C91.4383 32.4788 92.3167 33.4254 92.4851 34.6233C92.6311 35.6626 92.3694 35.2573 91.8001 37.65C91.2308 40.0426 89.859 40.8111 89.2936 42.1348C88.4233 44.1721 88.554 45.9617 86.7354 47.7649C86.4294 48.0683 87.0526 48.7637 86.8325 49.2789C91.3115 49.3447 94.7141 53.1695 98.1808 56.0745C102.492 59.6872 107.766 62.2146 113.317 62.7048C118.867 63.1951 124.675 61.5274 128.819 57.7149C130.441 56.2225 134.311 58.1722 134.593 55.9578C134.647 55.3842 134.499 55.1372 133.968 54.9961C133.694 54.923 133.045 55.0749 132.843 54.8093C132.252 54.0308 135.693 52.6889 135.548 53.7578C135.511 54.0315 135.354 54.2338 135.374 54.4112C135.432 54.9268 135.718 55.0858 136.161 55.1768C137.093 55.2365 138.429 54.5816 138.987 53.7578C139.361 53.2059 139.215 53.0595 138.922 53.0351C138.443 52.9953 137.57 53.2816 137.927 52.6551C138.367 51.8849 139.501 51.1544 140.579 51.825C140.812 51.9698 140.73 52.2508 140.611 52.5269C140.392 53.0334 140.046 53.5233 141.284 53.125C143.197 52.5096 143.307 52.6249 143.801 52.7753C144.296 52.9257 145.021 53.8185 145.486 54.6524C146.442 56.3686 147.423 58.1685 147.512 60.1421C147.602 62.1158 146.49 64.2981 144.599 64.6927C144.582 65.267 144.856 65.8082 145.273 66.1888C145.726 66.6034 146.891 66.3508 146.696 66.7214C146.059 67.9253 144.51 68.234 143.29 67.8128C142.956 67.6972 143.728 67.1046 143.801 66.6939C143.919 66.0364 143.785 65.3284 143.394 64.791C142.291 65.2692 141.188 65.7474 140.085 66.2256C140.405 66.6448 140.259 67.1424 140.579 67.5616C140.881 67.9574 141.657 67.8571 141.787 68.419C141.929 69.0298 140.783 69.2862 140.191 69.3433C139.543 69.4059 138.533 69.4742 138.231 69.0298C137.887 68.5247 138.964 68.3629 139.013 67.8344C139.068 67.2574 138.862 66.6407 138.367 66.3616C137.42 65.8269 136.06 66.8116 136.237 67.9046C136.683 70.658 135.568 73.6189 133.434 75.3543C131.299 77.0897 128.23 77.5294 125.713 76.4607C123.436 75.4944 120.914 76.7374 118.559 77.4783C113.218 79.158 107.124 78.0868 102.636 74.6793C102.377 78.4885 101.664 82.6144 99.2865 85.423C99.6721 85.6487 99.4739 85.6487 100.229 85.6487Z" fill="white"/>
<ellipse cx="76.473" cy="43.0795" rx="1.298" ry="1.32935" fill="#FFB61D"/>
<ellipse cx="85.786" cy="40.4114" rx="1.298" ry="1.33374" fill="#FFB61D"/>
<path fill-rule="evenodd" clip-rule="evenodd" d="M93.3666 99.8322C92.7824 99.5631 92.1972 99.2935 91.6082 99.031C87.2975 97.1091 82.127 95.727 78.0597 98.1419C77.4385 94.0785 81.6926 90.9751 85.6075 90.0558C86.6812 89.8037 87.7891 89.6249 88.8971 89.4461C91.8289 88.9729 94.7614 88.4996 97.0628 86.6678C100.48 83.9481 101.391 79.1004 101.692 74.6793C106.18 78.0868 112.274 79.158 117.615 77.4783C118.022 77.3501 118.435 77.2068 118.851 77.0626C120.836 76.3734 122.886 75.6616 124.769 76.4607C127.287 77.5294 130.355 77.0897 132.49 75.3543C134.625 73.6189 135.739 70.658 135.293 67.9046C135.116 66.8116 136.476 65.8269 137.423 66.3616C137.918 66.6407 138.124 67.2574 138.07 67.8344C138.047 68.0709 137.819 68.234 137.605 68.3873C137.341 68.5765 137.097 68.7508 137.287 69.0298C137.589 69.4742 138.599 69.4059 139.247 69.3433C139.839 69.2862 140.985 69.0298 140.844 68.419C140.769 68.097 140.482 67.9924 140.194 67.8874C139.98 67.8091 139.764 67.7306 139.635 67.5616C139.475 67.352 139.432 67.1228 139.388 66.8936C139.344 66.6644 139.301 66.4352 139.141 66.2256L142.45 64.7911C142.841 65.3284 142.975 66.0364 142.857 66.6939C142.826 66.8705 142.665 67.0808 142.519 67.2723C142.325 67.5261 142.156 67.7469 142.347 67.8128C143.566 68.234 145.116 67.9253 145.752 66.7214C145.851 66.5329 145.599 66.5057 145.267 66.4698C144.946 66.4352 144.552 66.3926 144.329 66.1888C143.913 65.8082 143.638 65.267 143.655 64.6927C145.546 64.2981 146.658 62.1158 146.568 60.1422C146.479 58.1685 145.498 56.3686 144.542 54.6524C144.078 53.8185 143.352 52.9257 142.857 52.7753C142.827 52.7659 142.798 52.7567 142.769 52.7478C142.343 52.6134 142.135 52.5478 140.34 53.125C139.229 53.4825 139.394 53.1244 139.597 52.681C139.621 52.6305 139.644 52.5788 139.667 52.5269C139.786 52.2508 139.868 51.9698 139.635 51.825C138.557 51.1544 137.423 51.8849 136.984 52.6552C136.721 53.1152 137.122 53.083 137.543 53.0492C137.696 53.037 137.851 53.0245 137.978 53.0351C138.271 53.0595 138.417 53.2059 138.043 53.7578C137.486 54.5817 136.15 55.2365 135.217 55.1769C134.774 55.0858 134.488 54.9268 134.43 54.4113C134.42 54.3169 134.459 54.2156 134.504 54.1002C134.543 53.9986 134.587 53.886 134.604 53.7578C134.75 52.6889 131.308 54.0308 131.899 54.8093C132.03 54.9824 132.352 54.9782 132.636 54.9745C132.788 54.9725 132.929 54.9706 133.025 54.9961C133.555 55.1372 133.703 55.3842 133.649 55.9579C133.495 57.167 132.271 57.1345 130.928 57.0989C129.811 57.0693 128.611 57.0374 127.875 57.7149C123.731 61.5274 117.923 63.1951 112.373 62.7048C106.823 62.2146 101.548 59.6873 97.237 56.0745C96.6419 55.5759 96.0488 55.0502 95.4518 54.521C92.5705 51.9672 89.5989 49.3334 85.8886 49.2789C85.9975 49.024 85.9 48.7251 85.8107 48.4513C85.7195 48.1716 85.6369 47.9182 85.7915 47.7649C86.7494 46.8152 87.2387 44.9651 87.6625 43.363C88.0433 41.9231 88.3712 40.6834 88.9386 40.4774C90.074 40.0652 90.4071 39.0365 90.7913 37.8499C90.8127 37.7837 90.8343 37.7171 90.8562 37.65C90.9873 37.2484 91.1042 36.924 91.2039 36.6476C91.5086 35.8024 91.6513 35.4065 91.5412 34.6233C91.4314 33.8423 91.0198 33.168 90.6061 32.4903C90.3853 32.1286 90.1639 31.766 89.9874 31.3856C89.0171 29.2937 89.4717 26.9552 89.9259 24.6181C90.0961 23.7427 90.2662 22.8675 90.3614 22.0056C90.7107 18.8425 88.7685 14.6869 85.7359 15.3861C84.258 15.7269 83.3191 17.0934 82.4267 18.3923C82.2964 18.582 82.1671 18.7702 82.0372 18.9536C81.0181 20.3927 79.3092 21.7887 77.7054 21.108C75.0296 19.9723 70.8447 22.0056 70.4504 24.1211C69.1366 22.9091 68.2731 24.1598 67.7709 25.0036C65.7612 28.3802 65.7632 32.6902 66.8453 36.486C67.6885 39.4439 69.2177 42.3004 71.6516 44.1123C71.961 44.3426 72.2869 44.5586 72.613 44.7749C73.5603 45.403 74.5098 46.0326 75.0655 47.0178C75.8126 48.3422 75.1562 50.5613 73.6645 50.484C66.993 50.1385 60.2815 50.6099 53.7185 51.8849C50.2703 52.5548 46.1909 54.1626 45.7148 57.7234C45.4172 59.9493 46.6939 61.9183 47.97 63.886C49.2515 65.8623 50.5323 67.8374 50.2167 70.0706C48.9682 78.9032 50.9691 88.1776 55.7352 95.6495C53.174 100.7 50.5852 105.828 49.4276 111.395C48.27 116.961 48.7007 123.117 51.8273 127.822C53.4566 130.274 55.7556 132.282 58.0293 134.268C61.5128 137.31 64.937 140.301 65.8032 144.757C66.2104 146.852 65.9623 148.989 65.7143 151.125C65.6245 151.899 65.5347 152.673 65.476 153.444C65.2555 156.345 65.6139 159.581 67.695 161.562C68.8833 162.693 70.756 163.024 72.2732 162.575C72.2603 162.813 72.2468 163.035 72.2342 163.244L72.2341 163.244L72.2341 163.244L72.2341 163.245C72.1651 164.382 72.1198 165.128 72.3146 166.013C72.3653 166.243 72.4478 166.505 72.6633 166.589C73.0924 166.756 73.3785 166.083 73.3495 165.626C73.2397 163.897 73.0293 162.92 72.8267 162.369C73.7095 161.966 74.402 161.258 74.6494 160.25C76.6458 152.118 78.5084 142.954 74.2419 135.798C72.8325 133.434 70.8666 131.518 68.8972 129.599C67.9024 128.629 66.9067 127.658 65.9813 126.629C63.2242 123.561 60.9828 119.402 61.9841 115.361C63.8228 107.94 69.5843 101.671 76.7058 99.3423C83.8274 97.0132 92.0707 98.7018 97.7692 103.657C97.5572 106.766 95.1513 108.836 92.7142 110.933C91.5733 111.915 90.4256 112.903 89.4929 114.006C85.7288 118.456 85.54 125.102 87.0867 130.773C88.2947 135.202 90.4355 139.361 93.3208 142.885C94.0466 143.771 94.9415 144.68 96.07 144.733C97.5867 144.804 98.7221 143.308 99.2705 141.858C101.213 136.723 99.278 130.975 97.1418 125.922C96.3192 123.976 97.9917 121.937 99.519 120.506L109.974 110.705C112.648 108.199 115.495 105.357 115.889 101.667C116.224 98.5281 114.625 95.4336 112.39 93.2583C110.155 91.0829 107.336 89.6662 104.564 88.2829L99.2851 85.6487C101.025 87.9388 103.651 89.2244 106.237 90.4902C106.737 90.7347 107.235 90.9785 107.725 91.2287C110.75 92.7738 113.856 95.0287 114.549 98.4174C115.4 102.58 112.308 106.401 109.441 109.479C105.811 113.376 102.149 117.301 97.8362 120.384C96.3688 121.433 94.7416 122.409 92.9533 122.474C91.1649 122.54 89.2193 121.392 88.9386 119.582C88.6851 117.948 89.7843 116.451 90.8179 115.179L98.4616 105.777C99.6234 104.348 101.154 103.976 102.974 103.533C103.615 103.378 104.291 103.213 105 102.991C100.711 103.215 97.0588 101.533 93.3666 99.8322ZM62.431 74.5608C62.7396 77.4068 63.5958 80.2567 65.332 82.5013C67.0683 84.7459 69.7736 86.3085 72.5672 86.1845C73.5027 86.1429 73.8024 84.7176 73.247 83.9457C72.7652 83.2761 71.9685 82.9714 71.1961 82.6759C71.078 82.6307 70.9604 82.5857 70.8446 82.5397C69.9717 82.1927 69.0409 81.6121 68.8834 80.6669C71.3465 82.6293 75.0239 82.8114 77.6605 81.1015C78.5781 83.7988 81.6223 85.4182 84.3774 84.9728C87.1325 84.5275 89.4353 82.2725 90.3492 79.5739C90.3666 79.5223 90.3838 79.4703 90.4011 79.418C90.5399 78.998 90.6826 78.5663 90.9981 78.2688C91.292 77.9917 91.6927 77.874 92.0777 77.7649L99.6109 75.6317C99.7979 75.5788 100.01 75.5289 100.176 75.6319C100.353 75.7418 100.402 75.9782 100.428 76.1885C100.949 80.4205 98.6287 84.8656 94.9031 86.7735C92.9056 87.7965 90.6228 88.1308 88.3596 88.4622C85.4067 88.8946 82.4871 89.3222 80.2779 91.268C79.0756 92.327 78.2415 93.718 77.4057 95.1119C77.0065 95.7777 76.6069 96.4442 76.1666 97.0754C73.4664 100.946 68.5072 103.567 64.1029 102.055C61.5749 101.187 59.61 99.1324 57.9949 96.9599C53.1331 90.4201 50.5667 82.1284 50.8623 73.9147C50.9159 72.4244 51.0654 70.9155 51.5917 69.525C54.9294 73.4971 58.7887 77.009 63.033 79.9364C62.8847 79.148 62.3512 78.501 61.8203 77.9102C60.3013 76.2197 58.6247 74.6366 56.9499 73.0552C53.0553 69.3777 49.1706 65.7096 47.3001 60.7226C46.8889 59.6264 46.5847 58.4296 46.8381 57.2843C47.4126 54.6866 50.3939 53.6052 52.9434 53.0779C59.0665 51.8114 65.3154 51.1841 71.5621 51.2087C71.8938 55.171 75.1133 58.7148 78.9634 59.2365C82.8134 59.7582 86.8708 57.1196 87.9518 53.2999C87.9839 53.1866 88.014 53.0717 88.0441 52.9566C88.1785 52.4432 88.3142 51.9248 88.6353 51.5139C89.0284 51.0108 89.828 50.7636 90.2869 51.2044C93.6881 54.472 97.2573 57.6135 101.325 59.9504C105.392 62.2873 110.013 63.7945 114.672 63.5832C106.714 66.5565 98.5786 69.0351 90.327 71.0006C89.696 71.1509 88.9145 71.2495 88.5089 70.7321C87.0717 68.8988 84.7279 67.8525 82.438 68.0221C80.1481 68.1916 77.9758 69.5722 76.811 71.5983C76.3894 72.3318 75.3371 72.2397 74.5366 72.0102C72.8716 71.533 71.1581 70.7991 70.1742 69.3432C70.008 69.0974 69.8641 68.8329 69.7205 68.569C69.4393 68.0523 69.1592 67.5375 68.7156 67.1685C68.0881 66.6466 67.2662 66.5194 66.4522 66.3934C66.2259 66.3584 66.0003 66.3234 65.7796 66.2802C63.2669 65.7874 61.0417 63.9576 60.0293 61.5516C62.398 59.9272 65.5968 60.6981 68.2121 61.8599C68.624 62.0428 69.0369 62.235 69.4514 62.4279C71.6687 63.4599 73.9309 64.5129 76.3227 64.2879C78.3563 64.0966 80.1312 63.0129 81.9136 61.9246C83.4895 60.9624 85.0713 59.9965 86.843 59.6407C91.3883 58.7276 95.8499 62.1937 97.9779 66.4068C97.9942 66.439 98.0105 66.4714 98.0268 66.5039C98.375 67.1956 98.7515 67.9436 99.4495 68.2339C98.7373 64.1333 95.7295 60.5364 91.8823 59.1848C88.0351 57.8332 83.5045 58.7816 80.4839 61.5709C78.6097 63.3016 75.7616 63.4239 73.3155 62.7878C71.9377 62.4295 70.6245 61.8685 69.3105 61.3071C68.2916 60.8717 67.2721 60.4362 66.2214 60.0947C63.8159 59.3128 61.0376 59.0816 58.8965 60.4497C58.2537 58.9992 57.3938 57.6499 56.3559 56.4635C57.3846 62.5081 62.7682 67.4778 68.7458 67.9007L65.4287 69.1913C64.6536 69.4928 63.8504 69.8132 63.2816 70.431C62.3077 71.4887 62.2744 73.116 62.431 74.5608ZM60.7947 116.84C60.4724 118.504 60.2955 120.307 61.0222 121.831C61.4138 122.652 62.0392 123.327 62.6542 123.99L62.6963 124.036C66.3955 128.029 69.8702 132.239 73.0974 136.64C71.6644 138.05 70.0693 139.286 68.3555 140.316C67.8781 140.603 67.3625 140.882 66.8091 140.871C65.9844 140.856 65.3142 140.218 64.734 139.617C60.6815 135.424 56.7337 131.125 52.8956 126.726C51.6752 125.327 50.4344 123.863 49.8798 122.075C49.1749 119.803 49.674 117.345 50.1772 115.017C51.5649 108.598 53.0248 102.004 56.6435 96.5729C58.6764 100.311 62.4412 103.009 66.5672 103.684C63.7064 107.548 61.7162 112.084 60.7947 116.84ZM86.5747 45.2763C85.9694 46.5724 84.9483 47.7173 83.6241 48.1921C81.8587 48.8251 79.917 48.1918 78.1886 47.4595C77.2904 47.079 76.3829 46.6569 75.6873 45.9617C75.0969 45.3716 74.6924 44.6174 74.3177 43.8647C73.1509 41.5208 72.1867 39.0712 71.4401 36.5539C70.8227 34.4722 70.5045 31.8381 72.148 30.4594C74.0253 31.9348 76.5501 32.3049 78.9008 32.025C80.9907 31.7761 82.9927 31.0647 84.9842 30.3571C85.2327 30.2688 85.481 30.1806 85.7293 30.0933C86.0128 29.9937 86.3485 29.9016 86.5933 30.0789C86.7805 30.2145 86.8467 30.4633 86.8975 30.6924C87.6536 34.0986 87.8739 37.629 87.5474 41.106C87.413 42.5361 87.1801 43.9802 86.5747 45.2763ZM94.1173 142.585C90.752 137.991 88.4977 132.55 87.6101 126.879C87.229 124.445 87.1057 121.893 87.8981 119.565C88.6547 122.614 92.2386 124.562 95.129 123.494C95.8834 125.085 96.5693 126.711 97.1839 128.364C98.7987 132.708 99.898 137.651 98.1095 141.923C97.6796 142.949 96.8304 144.043 95.7511 143.879C95.0515 143.773 94.5417 143.164 94.1173 142.585ZM71.711 23.963C72.5618 22.4025 74.4336 21.6097 76.1727 21.7597C76.5786 21.7947 76.9828 21.8475 77.3789 21.8992C78.6341 22.0631 79.8079 22.2164 80.6944 21.7597C82.0439 21.0645 82.6079 20.0979 83.182 19.1141C83.5652 18.4574 83.9529 17.793 84.5817 17.1964C84.9796 16.819 85.4231 16.4568 85.9528 16.3375C87.036 16.0935 88.076 16.9382 88.6929 17.882C90.017 19.9077 90.1917 22.6647 89.1344 24.8486C87.97 27.2536 85.5696 28.7586 83.1681 29.835C81.4391 30.6099 79.6094 31.2385 77.7225 31.2785C75.8356 31.3184 73.872 30.7065 72.5709 29.3064C71.2698 27.9064 70.791 25.6505 71.711 23.963ZM66.3906 150.533C66.3098 149.918 66.246 149.232 66.6101 148.737C68.1022 148.874 69.6422 148.32 70.7228 147.258C70.3941 146.563 69.3767 146.61 68.734 147.013C68.4874 147.168 68.2608 147.358 68.0349 147.548C67.6723 147.852 67.3114 148.155 66.8717 148.308C66.4466 147.877 66.5227 147.117 66.8763 146.623C67.2299 146.129 67.7854 145.838 68.3202 145.564L71.6879 143.839C71.0409 143.183 69.9624 143.175 69.1366 143.567C68.3108 143.959 67.679 144.671 67.0709 145.365C66.3959 144.158 66.8776 142.425 68.0724 141.763L72.4352 139.345C72.7742 139.157 73.1336 138.964 73.5189 138.976C74.3529 139.001 74.8563 139.926 75.0844 140.748C75.7445 143.126 75.5432 145.653 75.3364 148.116C75.0324 151.738 74.7233 155.387 73.7314 158.877C73.3895 160.08 72.85 161.391 71.7144 161.857C70.4825 162.363 69.0334 161.595 68.2967 160.465C67.56 159.334 67.3641 157.935 67.187 156.588L66.3906 150.533ZM124.555 68.419C125.028 68.3598 125.437 67.801 125.207 67.3745L123.585 64.3703C123.371 63.9745 123.152 63.562 123.124 63.1107C123.095 62.6594 123.316 62.1577 123.736 62.0182C124.337 61.8184 124.89 62.4138 125.238 62.9543C125.972 64.0928 126.611 65.2948 127.148 66.5432C127.784 65.6744 127.089 64.4746 126.453 63.605C125.818 62.7354 125.262 61.4018 126.056 60.6825C126.842 59.972 128.089 60.7002 128.69 61.5787C129.006 62.0402 129.266 62.5521 129.525 63.062C130.026 64.05 130.523 65.0308 131.419 65.6234C131.806 65.3813 131.613 64.7746 131.379 64.3772L128.373 59.2826C128.104 58.827 128.549 58.2093 129.063 58.1323C129.577 58.0554 130.074 58.3371 130.503 58.6367C132.57 60.0775 134.216 62.2831 134.604 64.8124C134.992 67.3416 133.938 70.1515 131.771 71.4282C131.115 71.8143 130.385 72.0549 129.643 72.2027C125.125 73.1023 120.18 70.1403 118.732 65.6667C118.51 64.9822 118.457 64.0468 119.086 63.7226C119.565 63.4754 120.145 63.7692 120.544 64.1366C121.121 64.6675 121.534 65.3468 121.946 66.0265C122.344 66.6812 122.741 67.3363 123.286 67.8595C123.634 68.1926 124.083 68.4782 124.555 68.419ZM77.4237 73.4453C77.9786 73.4629 78.5539 73.4811 79.0153 73.787C79.5242 74.1245 79.746 74.9788 79.2639 75.3554C79.0815 75.4978 78.8448 75.5393 78.6183 75.5765C76.5126 75.9224 74.1103 76.1914 72.4734 74.7916C72.1054 74.9636 71.9979 75.482 72.1481 75.8667C72.2983 76.2513 72.6326 76.5251 72.9672 76.7581C74.4527 77.7924 76.2312 78.38 78.0269 78.4296C76.8508 79.4727 75.1294 79.8277 73.6507 79.3319C73.0703 79.1373 72.2539 78.9153 71.9971 79.4827C73.1359 80.5975 74.8739 80.6831 76.4492 80.7042C73.6351 82.0774 69.9429 81.183 68.0279 78.6642C67.8915 78.4848 67.584 78.5764 67.4757 78.7748C67.3675 78.9732 67.3969 79.2172 67.4295 79.442C67.5952 80.5864 67.8227 81.8447 68.7097 82.5613C69.1793 82.9405 69.7618 83.1057 70.3448 83.271C70.5774 83.337 70.81 83.4029 71.0356 83.4825C71.8265 83.7616 72.644 84.3741 72.6515 85.2308C70.1036 85.4556 67.6094 83.977 66.067 81.8882C64.5245 79.7995 63.8159 77.1809 63.4891 74.5837C63.4047 73.9123 63.3452 73.2172 63.5357 72.5689C63.9151 71.2782 65.16 70.498 66.3076 69.8377C67.1399 69.3589 68.2877 68.9176 68.9479 69.6237C71.0992 71.9246 74.1444 73.3237 77.253 73.4396C77.3096 73.4417 77.3665 73.4435 77.4237 73.4453ZM82.8885 78.0848L115.495 68.8415C116.915 68.4389 118.595 68.0869 119.732 69.0473C106.822 73.1328 93.7467 76.6703 80.5509 79.6476C79.8325 79.8097 78.8085 79.7772 78.6832 79.0349C79.1169 79.0513 79.1152 78.5535 79.1134 78.0269C79.1116 77.5086 79.1097 76.9624 79.5231 76.8519L117.521 66.6892C117.75 66.6277 118.042 66.5866 118.183 66.7823C118.412 67.1003 117.943 67.4558 117.571 67.5616L81.3315 77.8786C81.6605 78.3414 82.3498 78.2375 82.8885 78.0848ZM119.652 75.4213C117.299 77.0354 114.313 77.4591 111.501 77.1177C108.689 76.7763 106.008 75.7283 103.402 74.5935L119.003 70.1156C119.549 69.9587 120.225 69.8352 120.61 70.262C123.776 73.7644 129.536 74.3894 133.348 71.6442C132.904 73.8237 130.979 75.5968 128.815 75.8194C127.583 75.9462 126.369 75.6186 125.162 75.2927C124.841 75.2063 124.521 75.12 124.202 75.0423C122.677 74.6716 120.953 74.5279 119.652 75.4213ZM76.5407 48.5994C76.7635 48.2728 77.243 48.0927 77.5518 48.335C79.3621 49.7558 81.8788 50.1754 84.0357 49.416C84.7241 49.1736 85.5073 49.6755 85.7915 50.3618C86.0757 51.0481 85.961 51.8433 85.7113 52.5435C84.9511 54.6758 82.9048 56.2621 80.6944 56.4327C78.484 56.6034 76.2286 55.3492 75.1647 53.3578C74.8363 52.7431 74.7267 51.7795 75.3602 51.5145C75.9921 51.2502 76.173 50.4357 76.2414 49.7402L76.2435 49.7191C76.2817 49.3291 76.3219 48.9202 76.5407 48.5994ZM136.826 65.6681C136.571 65.7387 136.302 65.808 136.047 65.7382C135.792 65.6683 135.567 65.406 135.631 65.144C137.912 64.7732 140.113 63.9007 142.042 62.6025C142.794 62.0969 143.591 61.2158 143.212 60.381C142.961 59.8274 142.286 59.6144 141.69 59.6393C140.827 59.6754 140.023 60.0716 139.247 60.4601L135.063 62.556C134.869 62.3201 134.95 61.9407 135.155 61.715C135.354 61.4974 135.635 61.3858 135.907 61.278L135.937 61.266C137.836 60.511 139.606 59.415 141.141 58.0428C141.59 57.641 141.357 56.813 140.843 56.5013C140.33 56.1896 139.685 56.2511 139.099 56.3633C137.397 56.6888 135.759 57.3611 134.309 58.3295C133.596 58.8062 132.582 59.3341 131.999 58.6985C133.574 57.063 135.734 56.19 137.827 55.3614L141.876 53.7578C142.158 53.6463 142.462 53.5331 142.755 53.6097C143.153 53.7141 143.386 54.126 143.566 54.504C144.589 56.6487 145.342 58.9282 145.801 61.2684C145.867 61.6079 145.922 61.9831 145.752 62.282C145.597 62.5531 145.295 62.6917 145.012 62.8118C142.346 63.9409 139.61 64.8956 136.826 65.6681ZM117.674 65.8114C117.523 65.9766 117.297 66.0411 117.082 66.0985L79.8954 76.0691C80.4727 74.6411 82.1696 74.1526 83.6441 73.823C93.9044 71.5299 103.955 68.3675 113.996 65.2085C114.566 65.0289 115.137 64.8493 115.708 64.6698C116.204 64.5141 116.743 64.3592 117.228 64.5452C117.714 64.7312 118.029 65.4247 117.674 65.8114ZM67.344 27.7856C67.5718 27.0218 67.9442 25.9665 68.5271 25.436C68.8243 25.1654 69.2266 24.8769 69.5843 25.0548C69.8092 25.1666 69.9194 25.4252 70.0116 25.6631C70.1494 26.0189 70.3463 26.4959 70.5432 26.973C70.74 27.4501 70.9369 27.9272 71.0748 28.283C71.2682 28.7821 71.4552 29.5577 71.1006 29.8098C69.5843 30.8876 69.9293 34.8225 70.6084 36.633C70.7705 37.0653 70.9095 37.9512 70.7698 38.5969C70.63 39.2427 69.9293 39.8237 69.3563 39.5184C69.0275 39.3433 68.5061 38.4152 68.3173 38.079C68.3 38.0483 68.2855 38.0225 68.2742 38.0027C65.481 33.1083 67.0294 28.6871 67.3081 27.8911C67.3254 27.8417 67.3378 27.8063 67.344 27.7856ZM79.5981 80.7814C82.0813 80.3103 84.539 79.698 86.9559 78.9481C86.9934 78.9365 87.0308 78.9248 87.0683 78.9132C87.8208 78.6791 88.5841 78.4416 89.3692 78.4456C89.2706 79.7178 88.5803 80.8963 87.6335 81.7264C86.6867 82.5564 85.5011 83.0619 84.2867 83.3495C83.3658 83.5675 82.3948 83.6655 81.4797 83.4234C80.5646 83.1813 79.7112 82.555 79.3632 81.6553C79.2385 81.3329 79.265 80.8446 79.5981 80.7814ZM82.6766 73.1897C81.0928 73.4195 79.4188 73.3018 77.9932 72.5592C77.6918 72.4023 77.8479 71.9303 78.0608 71.6614C79.1552 70.2787 80.8131 69.379 82.5452 69.2278C84.2773 69.0766 86.06 69.6759 87.3674 70.8489C87.5835 71.0428 87.8031 71.3496 87.6572 71.6031C87.5804 71.7365 87.4267 71.7981 87.2843 71.8504C85.7787 72.4035 84.2603 72.96 82.6766 73.1897ZM77.7971 58.1465C76.3889 57.6943 75.287 56.5466 74.4819 55.2801C73.9938 54.5123 73.5945 53.6921 73.195 52.8714C72.9355 52.3383 72.6758 51.805 72.3917 51.2858C72.9135 51.197 73.4214 51.5613 73.7108 52.0147C73.9173 52.3384 74.0426 52.7048 74.1678 53.0713C74.218 53.2182 74.2682 53.3651 74.3237 53.5092C75.3648 56.2164 78.4656 57.8397 81.2581 57.3032C84.0507 56.7666 86.3152 54.2477 86.7994 51.3807C86.8503 51.0795 86.9427 50.7069 87.2354 50.6471C87.5518 50.9177 87.5659 51.4068 87.5101 51.825C87.1049 54.8603 84.4178 57.1442 81.5472 58.0067C80.3291 58.3727 79.0083 58.5355 77.7971 58.1465ZM133.619 59.9632C135.379 58.5571 137.453 57.566 139.635 57.0881C139.897 57.0307 140.291 57.0897 140.267 57.3631C140.259 57.4494 140.205 57.5228 140.151 57.5896C139.066 58.9285 137.479 59.7121 135.944 60.4557C135.513 60.664 135.06 60.8772 134.585 60.8471C134.11 60.8171 133.619 60.4505 133.619 59.9632ZM141.234 60.638C141.46 60.564 141.707 60.4945 141.93 60.5798C142.152 60.6651 142.299 60.9778 142.142 61.1605C140.795 62.735 138.78 63.512 136.813 64.0841C136.299 64.2337 135.543 64.2299 135.455 63.6899C137.198 62.3529 139.16 61.3167 141.234 60.638ZM88.3338 37.5663C88.4475 36.8457 88.5834 35.9846 88.5834 35.4277C88.5834 34.6627 88.6968 33.7269 89.3933 33.4545C90.0611 33.1933 90.8156 33.82 90.9442 34.54C91.0728 35.2601 90.2785 38.1674 89.8841 38.7779C89.7039 39.0569 89.4943 39.3352 89.1977 39.4754C88.9011 39.6157 88.4973 39.5703 88.3157 39.2922C88.2212 39.1475 88.2 38.9667 88.1838 38.7933C88.1676 38.6195 88.2438 38.1369 88.3338 37.5663ZM88.3498 28.5101C88.3846 28.5613 88.3996 28.6235 88.4136 28.6842C88.7029 29.9417 88.8151 31.2416 88.7458 32.5315C88.4139 32.6844 88.139 32.2308 88.0415 31.8719L87.6244 30.3366C87.4603 29.7323 87.328 28.9928 87.7663 28.5545C87.9254 28.3954 88.2228 28.3232 88.3498 28.5101ZM70.7922 42.1935C70.361 41.8884 70.0115 41.6411 70.0115 40.8863C70.0115 39.9934 70.9538 39.1232 71.1593 39.2922C71.9061 39.9066 73.2482 42.9537 73.3154 43.9321C72.7535 43.6972 72.3393 43.3768 71.583 42.7917C71.4184 42.6644 71.2376 42.5245 71.0356 42.3703C70.9528 42.3071 70.8712 42.2493 70.7922 42.1935ZM75.6931 77.0116L77.2161 76.6818C77.4061 76.6407 77.6369 76.6125 77.764 76.7628C78.0089 77.0525 77.5266 77.4185 77.1525 77.4256C76.6407 77.4353 76.127 77.2896 75.6931 77.0116ZM121.924 62.6818C122.2 62.7138 122.432 63.0739 122.251 63.2888L122.234 63.3082C121.996 63.4943 121.723 63.6908 121.426 63.6471C121.13 63.6033 120.921 63.1589 121.166 62.9831C121.394 62.8204 121.649 62.6499 121.924 62.6818ZM124.115 67.3445L123.769 67.2925L123.735 67.2891L123.002 66.1341C123.645 65.921 124.362 66.7001 124.115 67.3445ZM122.505 65.2595C122.223 65.2734 121.997 64.9138 122.126 64.657C122.255 64.4002 122.672 64.3795 122.825 64.6223C122.978 64.8652 122.786 65.2455 122.505 65.2595ZM84.0627 27.5819L81.4153 28.8653C79.3926 29.8459 76.8519 29.5918 75.0527 28.2291C74.7988 28.1688 74.5786 28.4797 74.6216 28.7429C74.6645 29.0061 74.8734 29.2052 75.0828 29.3641C76.5333 30.4649 78.5166 30.6028 80.2663 30.1466C82.016 29.6904 83.5852 28.7082 85.1054 27.7109C84.9952 27.3159 84.4253 27.4061 84.0627 27.5819ZM81.5737 33.5373C81.3562 33.7366 80.9795 33.4661 80.9831 33.1672C80.9866 32.8684 81.2232 32.6282 81.4673 32.4643C82.4908 31.7769 83.9582 31.8836 84.8764 32.7122C84.6738 33.0533 84.2001 32.9742 83.801 32.9076C83.7698 32.9023 83.739 32.8972 83.7088 32.8923C82.9513 32.7704 82.1453 33.0139 81.5737 33.5373ZM76.6705 34.6667C77.0179 34.5855 77.3854 34.3133 77.3524 33.9502C77.3245 33.644 77.0238 33.4408 76.7344 33.3583C76.0523 33.164 75.269 33.4166 74.8187 33.9761C74.3685 34.5356 74.2762 35.371 74.593 36.0193C74.7455 35.8797 74.8698 35.7078 74.9934 35.5369L74.9934 35.5369C75.1768 35.2832 75.3587 35.0315 75.6293 34.8905C75.8341 34.7837 76.0635 34.7553 76.2938 34.7268C76.4204 34.7112 76.5473 34.6954 76.6705 34.6667ZM83.584 38.697C84.0041 38.6909 84.2875 38.2466 84.3931 37.8302C84.6102 36.974 84.3893 36.0142 83.8215 35.3473C83.5644 35.0455 83.1264 34.7943 82.7994 35.014C82.6982 35.082 82.6256 35.1864 82.5669 35.2949C82.1567 36.0539 82.3621 37.003 82.6811 37.8067C82.8487 38.2291 83.1387 38.7035 83.584 38.697ZM78.2726 38.699L78.1474 37.3638C78.0998 36.8556 77.9936 36.2582 77.5414 36.0433C76.9235 35.7497 76.2709 36.4531 76.109 37.1305C75.935 37.858 76.0354 38.6505 76.3849 39.3085C76.7018 39.9054 77.4908 40.4054 77.9948 39.9635C78.3287 39.6707 78.3146 39.1471 78.2726 38.699ZM77.2288 138.799C80.7114 138.693 84.1941 138.588 87.6769 138.485C88.0595 138.474 88.4703 138.47 88.7878 138.689C89.0823 138.892 89.2433 139.28 89.1818 139.638L78.9577 139.835C78.578 139.842 78.1849 139.847 77.8355 139.695C77.4862 139.542 77.1912 139.186 77.2288 138.799ZM80.8064 43.0219C80.4331 42.9127 80.6091 42.3452 80.7846 41.9906C81.3516 40.845 81.0322 39.4399 80.4644 38.2947L80.4503 38.2663C80.3242 38.0126 80.1896 37.7416 80.2344 37.4622C80.2808 37.1725 80.6375 36.9314 80.8604 37.1162C80.9274 37.1718 80.9681 37.2532 81.0068 37.3321C81.4332 38.2018 81.8514 39.0959 81.9902 40.0586C82.1291 41.0213 81.9502 42.0782 81.3055 42.7932C81.1751 42.9378 80.9913 43.0759 80.8064 43.0219ZM81.3633 46.6697C83.1115 46.3827 84.5135 44.6399 84.4536 42.8284C84.45 42.7206 84.4406 42.6084 84.3865 42.5159C84.2347 42.2566 83.8219 42.317 83.6271 42.5442C83.4668 42.7312 83.4058 42.9789 83.3458 43.2232C83.3328 43.2758 83.3199 43.3282 83.3061 43.3799C83.0724 44.2519 82.4909 45.0206 81.7247 45.4703C81.6874 45.4922 81.6492 45.5138 81.6109 45.5354C81.3871 45.662 81.157 45.7921 81.0396 46.0198C80.902 46.2865 81.0725 46.7174 81.3633 46.6697ZM92.037 155.794C92.1116 157.945 92.3451 164.774 92.0723 166.013C92.0216 166.244 91.9391 166.506 91.7236 166.59C91.2944 166.757 91.0426 166.097 91.0373 165.627C90.9941 161.817 90.9509 157.341 90.9077 152.864C90.8646 148.387 90.8214 143.911 90.7782 140.101C91.4897 140.101 91.7236 142.671 91.7236 144.332C91.7236 149.91 92.037 155.794 92.037 155.794ZM67.5537 108.479C67.4496 108.416 67.3284 108.354 67.204 108.29C66.7084 108.035 66.1632 107.755 66.4501 107.36C74.0371 107.697 81.6415 107.619 89.2204 107.127C91.3668 106.987 93.788 106.666 95.0639 104.893C95.115 104.822 95.1643 104.748 95.2136 104.675C95.3833 104.422 95.5538 104.168 95.8033 104.004C96.1253 103.793 96.6407 103.82 96.8018 104.175C96.5745 106.076 94.8347 107.66 92.9648 107.669C92.1466 107.674 91.8693 108.767 91.7656 109.598C91.6619 110.43 91.1021 111.494 90.3341 111.205C90.5279 110.524 90.6534 109.822 90.7079 109.114C90.7262 108.877 90.7215 108.602 90.5422 108.45C90.403 108.332 90.2052 108.332 90.0248 108.337L70.0001 108.922C69.8732 108.926 69.7333 108.935 69.6426 109.026C69.5319 109.137 69.5421 109.319 69.5602 109.477L70.9814 121.885C71.0126 122.158 71.1209 122.507 71.3893 122.508L82.7411 122.572C83.3445 122.576 84.2034 123.048 83.8347 123.537C83.6839 123.738 83.4007 123.756 83.1537 123.757L71.601 123.805C71.1131 123.807 70.9752 124.486 70.9932 124.985L71.177 130.091C69.7893 129.078 69.6941 127.046 69.6844 125.301C69.6561 120.216 69.2123 115.134 68.3591 110.124C68.2526 109.499 68.0893 108.798 67.5537 108.479Z" fill="#00160A"/>
<path fill-rule="evenodd" clip-rule="evenodd" d="M93.2577 132.582C93.7331 131.479 94.8404 130.69 96.0166 130.618C96.3223 130.599 96.6693 130.645 96.856 130.894C97.0426 131.142 96.8824 131.614 96.5787 131.574C95.8497 131.476 95.1221 131.856 94.6106 132.397C94.0991 132.938 93.7653 133.624 93.4397 134.299C92.9718 133.907 93.0137 133.149 93.2577 132.582Z" fill="#00160A"/>
<path fill-rule="evenodd" clip-rule="evenodd" d="M145.202 26.9442C145.8 27.002 146.354 26.6472 146.849 26.2998C148.227 25.334 149.711 24.0171 149.62 22.3093C149.591 21.767 149.401 21.2567 149.21 20.7458C149.128 20.5272 149.046 20.3085 148.977 20.0871C148.616 18.9308 148.603 17.7117 148.589 16.4895C148.578 15.4869 148.567 14.4823 148.364 13.5085C148.292 13.1593 148.146 12.7626 147.811 12.6632C147.623 12.6073 147.422 12.6641 147.233 12.7208L141.216 14.5301C140.083 14.8707 139.84 16.3778 139.808 17.587L139.719 20.8771C139.362 20.923 139.022 20.7793 138.683 20.6357C138.553 20.5809 138.423 20.526 138.293 20.4817C137.007 20.0457 135.452 20.7789 134.939 22.0633C134.426 23.3477 135.033 24.9877 136.248 25.6007C137.463 26.2136 139.101 25.7063 139.782 24.5064C140.244 23.6916 140.271 22.7022 140.287 21.76L140.315 19.9907C140.326 19.3295 141.05 18.9628 141.662 18.7526C143.546 18.1051 145.449 17.5109 147.365 16.9707C147.555 16.9173 147.79 16.8773 147.919 17.0287C147.989 17.1105 148.005 17.2258 148.017 17.3338L148.279 19.6502C148.318 19.9937 148.28 20.4557 147.95 20.5285C146.357 20.8802 144.941 21.9952 144.198 23.4821C143.882 24.1155 143.682 24.8431 143.823 25.5399C143.963 26.2368 144.511 26.8773 145.202 26.9442ZM147.636 13.6935C147.704 13.7635 147.723 13.8665 147.739 13.9631L147.922 15.0503C147.97 15.3374 148.016 15.6459 147.894 15.9095C147.702 16.3258 147.192 16.4511 146.749 16.5406C145.726 16.7472 144.717 17.0215 143.729 17.361C142.903 17.6448 142.093 17.9738 141.284 18.3027C141.215 18.3305 141.147 18.3584 141.078 18.3861C140.886 18.4641 140.621 18.5203 140.511 18.3418C140.484 18.2971 140.472 18.2443 140.463 18.1924C140.27 17.1382 140.745 15.9883 141.62 15.393C142.102 15.0651 142.671 14.9043 143.23 14.7484L147.158 13.6528C147.32 13.6075 147.518 13.5711 147.636 13.6935ZM139.711 22.3645C139.695 23.3834 139.455 24.5484 138.573 25.0415C137.873 25.4328 136.96 25.2447 136.325 24.7534C135.579 24.1763 135.169 23.0271 135.714 22.2539C135.941 21.9318 136.296 21.7231 136.663 21.5865C137.507 21.2728 138.47 21.3043 139.292 21.6725C139.423 21.7313 139.557 21.8039 139.632 21.927C139.711 22.0546 139.714 22.2141 139.711 22.3645ZM34.5742 24.6418C34.6761 24.9634 35.1202 24.9511 35.4417 24.8738L38.3645 24.1713C38.2829 23.3914 38.135 22.6188 37.9231 21.8651C37.8606 21.643 37.7853 21.4107 37.6152 21.2586C37.3519 21.0232 36.9578 21.0558 36.6111 21.102L32.1219 21.7004C31.8136 21.7415 31.4023 21.9467 31.5196 22.2415C32.5473 24.8238 33.358 27.4967 33.9396 30.221C34.0508 30.7421 34.0321 31.4739 33.5233 31.5882C32.0497 31.9193 30.7888 33.1036 30.3399 34.5785C30.2019 35.0322 30.1391 35.5362 30.3178 35.9748C30.4146 36.2125 30.5771 36.4169 30.7592 36.5946C31.6331 37.4472 33.0271 37.6843 34.1234 37.1668C35.2196 36.6493 35.9488 35.4098 35.8832 34.1755C35.8584 33.7093 35.7317 33.2559 35.6058 32.8071L32.736 22.5771L36.5357 22.2718C36.9174 22.2937 37.0786 22.849 36.877 23.1816C36.6754 23.5141 36.2748 23.6524 35.9 23.7296C35.8461 23.7407 35.7916 23.7513 35.7369 23.7618C35.4122 23.8244 35.0819 23.8882 34.8185 24.087C34.6481 24.2158 34.5089 24.4354 34.5742 24.6418Z" fill="#FFB61D"/>
<path fill-rule="evenodd" clip-rule="evenodd" d="M92.6319 129.273C92.5178 129.425 92.2603 129.382 92.1504 129.227C92.0406 129.072 92.0504 128.857 92.1102 128.676C92.2174 128.351 92.4601 128.092 92.7144 127.869C93.3534 127.308 94.1142 126.893 94.9256 126.663C95.2454 126.573 95.6185 126.52 95.8832 126.725C96.1479 126.93 96.1053 127.477 95.7748 127.507C94.55 127.619 93.3821 128.276 92.6319 129.273Z" fill="#00160A"/>
</svg>
