<svg width="177" height="182" viewBox="0 0 177 182" fill="none" xmlns="http://www.w3.org/2000/svg">
<rect width="177" height="181.909" transform="translate(0 0.027832)" fill="white"/>
<path fill-rule="evenodd" clip-rule="evenodd" d="M16.2578 140.206C15.8969 138.5 15.5012 136.801 15.1556 135.092C14.9884 134.265 14.8929 133.423 14.7792 132.585C14.5673 131.024 14.3578 129.462 14.1642 127.898C14.0961 127.347 14.0473 126.791 14.0411 126.237C13.9914 121.748 13.8727 117.258 13.949 112.772C13.9843 110.694 14.4035 108.623 14.6548 106.549C14.9854 103.822 15.6799 101.181 16.4812 98.5683C17.6344 94.8078 18.802 91.052 19.9659 87.2949C20.5911 85.2765 21.2626 83.2719 21.8309 81.2367C22.0931 80.2976 22.1991 79.3048 22.3005 78.328C22.3968 77.3996 22.4998 76.4499 22.4132 75.5281C22.2511 73.8034 21.9723 72.0892 21.7074 70.3762C21.4813 68.914 21.217 67.4578 20.9512 66.0024C20.5383 63.7421 20.4164 61.4611 20.4607 59.1674C20.4957 57.3581 20.4414 55.5393 20.6069 53.7423C20.8461 51.1445 21.2099 48.5418 22.2077 46.1175C22.9712 44.2626 23.8174 42.4299 24.7903 40.6836C25.7515 38.9584 26.8927 37.3359 28.0037 35.7034C28.6814 34.7076 29.3995 33.7299 30.1918 32.8301C31.4125 31.4438 32.6744 30.0905 33.9876 28.797C36.0385 26.7768 38.3359 25.0739 40.7775 23.5888C43.0818 22.1873 45.5205 21.0765 48.0815 20.2632C49.8344 19.7065 51.6025 19.1985 53.347 18.6158C54.5952 18.1989 55.7915 17.6029 57.0544 17.252C58.6217 16.8166 60.2235 16.4822 61.8293 16.2325C63.4774 15.9762 65.1471 15.8599 66.8097 15.7103C68.0291 15.6006 69.2513 15.5097 70.4742 15.4581C72.1029 15.3893 73.7333 15.3483 75.3633 15.3295C77.2092 15.3082 79.0563 15.2926 80.9016 15.335C82.3095 15.3673 83.717 15.473 85.1219 15.5836C87.0108 15.7323 88.8986 15.9005 90.7839 16.0917C92.1799 16.2333 93.5771 16.3844 94.9629 16.6039C96.8497 16.9029 98.7312 17.2442 100.606 17.6161C103.25 18.1407 105.906 18.6279 108.521 19.2824C111.283 19.9738 114.046 20.7195 116.64 21.9571C118.972 23.0699 121.309 24.1836 123.577 25.4246C125.644 26.5553 127.619 27.8634 129.641 29.0812C130.417 29.5486 131.224 29.9613 131.994 30.4387C132.51 30.7588 133.03 31.0989 133.472 31.5161C135.476 33.4113 137.462 35.3273 139.435 37.2562C140.387 38.1864 141.297 39.1616 142.226 40.1165C143.269 41.1884 144.362 42.2148 145.343 43.3438C146.588 44.777 147.73 46.3043 148.939 47.7714C150.565 49.7443 151.656 52.0454 152.835 54.2998C153.636 55.8303 154.134 57.4732 154.719 59.0844C155.119 60.1854 155.577 61.2945 155.759 62.4418C156.037 64.1932 157.046 65.5842 157.652 67.1657C158.272 68.7861 158.768 70.458 159.294 72.1152C159.745 73.5329 160.213 74.9482 160.579 76.3897C160.917 77.7167 161.133 79.0765 161.397 80.423C161.6 81.4591 161.812 82.4938 161.985 83.5352C162.108 84.2738 162.17 85.0229 162.263 85.7668C162.426 87.0721 162.602 88.3757 162.753 89.6824C162.854 90.5548 162.945 91.4298 162.998 92.3063C163.064 93.4085 163.088 94.5133 163.127 95.6172C163.17 96.8477 163.289 98.0822 163.235 99.3084C163.106 102.198 158.478 113.815 156.609 116.665C155.526 118.318 154.482 119.998 153.37 121.63C151.913 123.769 150.424 125.884 148.919 127.987C147.117 130.505 145.306 133.017 143.455 135.496C142.58 136.668 141.621 137.775 140.664 138.879C139.864 139.801 139.061 140.731 138.17 141.557C136.431 143.169 134.638 144.721 132.853 146.279C130.499 148.333 127.917 150.07 125.249 151.632C123.071 152.908 120.766 153.981 118.445 154.964C114.946 156.445 111.389 157.787 107.845 159.155C105.137 160.201 102.427 161.25 99.6847 162.195C97.3655 162.994 95.0156 163.716 92.6465 164.34C90.6406 164.868 88.5933 165.239 86.5538 165.62C85.1256 165.887 83.6832 166.085 82.2407 166.257C80.8349 166.424 79.4215 166.528 78.0103 166.643C77.2671 166.704 76.5218 166.753 75.7767 166.769C73.3031 166.822 70.8294 166.878 68.3555 166.892C67.1377 166.899 65.9165 166.856 64.7021 166.764C62.9972 166.633 61.2896 166.491 59.5971 166.251C57.6664 165.976 55.7525 165.579 53.8284 165.253C52.2451 164.985 50.6505 164.782 49.0735 164.48C46.3664 163.961 43.6564 163.446 40.9719 162.82C38.8233 162.318 36.684 161.738 34.5885 161.041C31.2546 159.932 28.1308 158.345 25.3102 156.188C24.3646 155.465 23.4294 154.692 22.6338 153.805C20.7384 151.692 19.2143 149.307 18.1126 146.589C17.2694 144.489 16.7141 142.363 16.2578 140.206Z" fill="#FFD600" fill-opacity="0.57"/>
<path d="M96.0549 144.811C95.8076 146.145 95.7092 147.471 95.2758 148.67C94.7134 150.225 93.4116 151.165 91.9085 151.643C90.2573 152.169 88.5567 152.537 86.8667 152.923C86.3053 153.051 85.7102 153.026 85.1299 153.062C83.0406 153.191 80.9506 153.312 78.8615 153.446C77.7217 153.519 76.5839 153.628 75.4437 153.693C74.3504 153.756 73.2544 153.828 72.1608 153.81C71.9181 153.807 70.4011 154.032 68.2787 154.185C67.8664 154.215 68.508 156.503 67.7669 156.743C66.1158 157.278 62.0718 157.128 61.3663 155.993C60.6607 154.858 60.9109 154.38 60.1287 154.052C56.3036 152.448 52.3635 152.073 51.2088 148.67C50.4403 146.405 51.9031 141.039 51.4777 136.919C50.387 126.355 48.2178 114.568 48.1469 114.507C48.1541 114.499 45.8369 114.703 45.6644 113.83C43.5233 102.999 42.5469 88.7254 48.1469 85.126C51.519 82.9587 57.9424 80.7326 65.0637 78.9142C66.0986 78.65 66.7096 77.0871 67.7669 76.8415C68.0034 76.7866 68.7269 75.3745 69.3475 73.956C69.9724 72.5276 70.4979 71.0927 71.7808 71.0299C74.4178 70.9009 78.9669 67.4296 82.0531 68.5128C84.879 69.5047 86.3118 75.0882 87.4031 74.412C88.503 73.7306 89.4763 74.9138 90.9829 74.9138C101.766 74.9138 109.888 95.967 111.017 101.147C109.13 103.946 103.54 103.946 98.2581 105.605C97.3843 104.497 95.6282 101.174 95.061 99.3051C94.4772 97.3817 94.2759 101.743 94.235 103.289C94.1821 105.288 94.3565 107.295 94.4527 109.297C94.516 110.617 94.621 111.935 94.6945 113.254C94.8237 115.57 94.9601 117.886 95.061 120.204C95.1319 121.835 95.1012 123.472 95.2035 125.101C95.3083 126.769 95.5246 128.43 95.6824 130.095C95.7752 131.075 95.8599 132.055 95.928 133.036C95.9854 133.864 96.0663 134.695 96.0436 135.522C95.9997 137.124 95.8366 138.724 95.8298 140.326C95.8263 141.162 96.0988 141.996 96.1551 142.837C96.1973 143.469 96.0936 144.111 96.0549 144.811Z" fill="white"/>
<path d="M113.298 44.9141C112.602 44.2372 112.177 43.3916 111.63 42.639C111.614 42.6168 111.599 42.5935 111.587 42.5687C111.159 41.6146 110.742 40.6608 110.538 39.618C110.42 39.009 110.425 38.4155 110.515 37.8115C110.559 37.511 110.578 37.2059 110.636 36.9086C110.815 35.9961 111.247 35.2014 111.755 34.4456C111.908 34.2183 112.084 34.0067 112.233 33.7766C112.79 32.9147 113.576 32.3599 114.492 31.9732C115.088 31.7217 115.7 31.5095 116.283 31.225C116.355 31.19 116.434 31.1587 116.512 31.1511C117.476 31.0573 118.441 30.9599 119.407 30.8807C120.349 30.8034 121.292 30.8248 122.234 30.8872C122.745 30.9209 123.258 30.9356 123.767 30.9886C124.87 31.1038 125.937 31.3598 126.962 31.8201C127.677 32.1417 128.398 32.4424 129.085 32.8314C129.873 33.2784 130.542 33.8719 131.175 34.5167C131.464 34.8119 131.686 35.1578 131.884 35.5214C132.003 35.7385 132.108 35.9658 132.246 36.1685C133.052 37.3475 133.226 38.6602 133.031 40.0482C132.985 40.3756 132.882 40.6948 132.909 41.0318C132.75 41.7042 132.595 42.3793 132.205 42.9616C131.899 43.4182 131.568 43.8535 131.155 44.2174C131.012 44.3436 130.868 44.4705 130.739 44.6111C130.459 44.9159 130.118 45.1343 129.794 45.3817C129.096 45.9147 128.319 46.2909 127.551 46.6866C127.455 46.7358 127.354 46.7749 127.252 46.8068C126.84 46.9356 126.427 47.06 126.014 47.1851C125.549 47.3259 125.087 47.4753 124.618 47.6033C123.885 47.804 123.125 47.8069 122.378 47.9087C122.273 47.9231 122.161 47.9153 122.056 47.8967C121.259 47.7577 120.451 47.7154 119.651 47.6128C119.517 47.5958 119.387 47.5602 119.255 47.532C118.359 47.3403 117.457 47.1699 116.587 46.8651C116.369 46.7888 116.172 46.806 115.969 46.9286C115.737 47.0683 115.491 47.1827 115.249 47.3037C114.736 47.5592 114.291 47.9187 113.83 48.2538C113.699 48.3489 113.561 48.4354 113.422 48.5169C113.314 48.5799 113.129 48.4853 113.101 48.3539C113.066 48.1927 113.032 48.0331 113.078 47.8635C113.337 46.9181 113.328 45.951 113.298 44.9141Z" fill="white"/>
<path fill-rule="evenodd" clip-rule="evenodd" d="M68.1174 76.0554C68.1174 76.0554 69.2913 74.4036 69.6965 73.5426C70.1018 72.6816 70.4829 71.0298 70.4829 71.0298C70.4829 71.0298 78.8592 83.2187 77.5338 83.3773C74.8844 83.6945 68.1174 76.0554 68.1174 76.0554Z" fill="#E7EAEE"/>
<path d="M104.238 115.074C102.912 112.907 100.094 107.856 98.7964 105.722C98.7664 105.673 104.809 99.9623 110.188 101.408C110.722 101.552 111.749 103.691 112.253 103.946C113.19 104.421 113.023 102.1 114.817 98.8307C117.642 93.6823 122.845 85.9933 124.887 81.4032C125.718 79.5377 125.131 78.0837 125.043 77.6763C124.719 76.1695 123.958 74.9402 122.86 73.9077C122.147 73.238 122.119 71.7435 122.93 71.3317C123.529 71.0276 124.204 70.9313 124.887 71.2821C125.668 71.6826 126.444 72.0614 126.981 72.808C127.053 72.9088 127.18 72.9681 127.282 73.0466C127.331 72.9193 127.385 72.7939 127.429 72.6646C127.861 71.3679 128.259 70.0576 128.733 68.777C129.151 67.6454 129.615 66.5265 130.142 65.4446C130.316 65.0881 130.753 64.6288 131.061 64.636C131.514 64.6467 131.809 65.1491 131.877 65.6759C131.913 65.9552 131.952 66.2346 132.003 66.5113C132.025 66.6328 132.083 66.7476 132.124 66.8654C132.206 66.7645 132.282 66.6575 132.371 66.5637C132.64 66.2807 132.879 65.9468 133.195 65.7365C133.629 65.4475 134.123 65.7687 134.088 66.3238C134.04 67.0906 133.982 67.8701 133.801 68.6119C133.478 69.9456 133.059 71.2549 132.685 72.5759C132.663 72.6546 132.684 72.7463 132.685 72.832C132.77 72.7856 132.895 72.7611 132.931 72.6892C133.167 72.2196 133.419 71.7535 133.597 71.2603C133.886 70.4631 134.322 69.7804 134.954 69.2413C135.101 69.1158 135.339 69.1035 135.535 69.0391C135.592 69.2265 135.734 69.4376 135.692 69.5976C135.388 70.7548 135.125 71.9332 134.702 73.0457C133.636 75.8484 132.497 78.6221 131.377 81.4032C130.73 83.0105 129.979 84.5794 129.429 86.2205C128.869 87.8938 128.543 89.6481 128.035 91.3416C127.496 93.1372 126.875 94.9073 126.269 96.681C125.348 99.3767 124.519 102.114 123.441 104.742C122.599 106.797 121.503 108.752 120.401 110.679C119.575 112.123 118.629 113.511 117.601 114.811C116.997 115.574 116.139 116.131 115.374 116.752C114.149 117.748 112.758 118.383 111.236 118.742C109.484 119.155 107.928 118.833 106.621 117.519C105.829 116.723 105.052 115.911 104.238 115.074Z" fill="white"/>
<path fill-rule="evenodd" clip-rule="evenodd" d="M63.015 61.6479C62.8461 61.9987 62.8571 62.3058 63.0771 62.6038C63.1757 62.7373 63.2823 62.8646 63.3888 62.9919L63.3889 62.992C63.5034 63.1287 63.6178 63.2654 63.7223 63.4098C63.8802 63.6278 64.0432 63.843 64.2062 64.0583L64.2064 64.0584C64.6346 64.6238 65.0632 65.1896 65.3994 65.8081C65.8744 66.682 66.4245 67.3264 67.4228 67.5115C67.8279 67.5867 67.9809 67.9195 68.0294 68.3577C68.0969 68.9675 68.2074 69.5856 68.4045 70.1623C68.5454 70.575 68.9182 70.8485 69.393 70.7957C69.6155 70.771 69.8372 70.7323 70.0587 70.6937L70.0588 70.6937C70.3998 70.6343 70.7403 70.575 71.0825 70.5665C71.4104 70.5584 71.8357 70.6465 72.0562 70.8638C72.6452 71.4445 73.1875 72.0759 73.7293 72.7067L73.7293 72.7068C73.8413 72.8371 73.9533 72.9675 74.0656 73.0974C74.1071 73.1453 74.1478 73.1936 74.1882 73.2416L74.1883 73.2417C74.584 73.7115 74.9517 74.1481 75.7379 73.8678C76.6715 73.5349 77.6533 73.3858 78.666 73.4536C79.5949 73.5157 79.9577 73.1923 80.2434 72.2576C80.2728 72.1617 80.2976 72.0638 80.3224 71.9659L80.3224 71.9658C80.3703 71.7767 80.4182 71.5878 80.4983 71.4145C80.5288 71.3488 80.5588 71.2822 80.589 71.2153C80.754 70.8493 80.9228 70.475 81.1775 70.1875C81.6376 69.668 82.234 69.7478 82.8454 69.9707C83.5334 70.2214 83.8903 70.0676 84.1872 69.4247C84.3128 69.1526 84.3543 69.1562 84.5841 69.3303C84.7699 69.4711 85.0628 69.5362 85.2998 69.5182C85.8861 69.4736 86.4732 69.3893 87.048 69.2631C87.2556 69.2175 87.5308 69.0486 87.6018 68.8651C87.6886 68.6407 87.776 68.4163 87.8635 68.1919C88.3564 66.9268 88.8501 65.6598 89.245 64.3619C89.8873 62.2507 90.3657 60.0892 90.3646 57.8592C90.3638 56.3654 90.3211 54.8715 90.2785 53.3778L90.2785 53.3776L90.2785 53.377C90.2676 52.9985 90.2568 52.6201 90.2467 52.2417C90.2419 52.0621 90.2378 51.8824 90.2336 51.7027L90.2336 51.702C90.2146 50.8826 90.1956 50.0623 90.1155 49.2489C89.971 47.7812 89.7849 46.3176 89.5989 44.8543L89.5989 44.8543C89.5677 44.6084 89.5364 44.3625 89.5054 44.1166C89.4143 43.3957 89.3082 42.6768 89.2021 41.9579L89.202 41.9572C89.167 41.7197 89.1319 41.4822 89.0974 41.2447L89.0227 40.73C88.857 39.587 88.6912 38.444 88.516 37.3026C88.5091 37.2579 88.5029 37.2118 88.4966 37.165C88.4646 36.9275 88.4303 36.673 88.2999 36.5124C88.1834 36.369 88.0672 36.2251 87.9509 36.0812C87.2067 35.16 86.4605 34.2363 85.6305 33.4027C84.9792 32.7488 84.1944 32.2236 83.4236 31.7079L83.3234 31.6409C81.2173 30.2306 78.8583 29.5957 76.3786 29.4282C75.6991 29.3823 75.0162 29.3929 74.3331 29.4035C73.9241 29.4098 73.5151 29.4161 73.1066 29.4103C72.7337 29.4051 72.5318 29.5271 72.2898 29.8614C71.9687 30.305 71.4889 30.6619 71.0152 30.9472C69.832 31.6596 68.7909 32.4965 67.9912 33.6729C66.9408 35.2181 65.9784 36.8079 65.3494 38.5804C64.8643 39.9475 64.5287 41.3515 64.4129 42.8221C64.3755 43.2969 64.2824 43.7655 64.1892 44.2343C64.0089 45.1415 63.8284 46.0497 64.0512 47.0063C64.1472 47.4185 64.203 47.8412 64.2588 48.2636C64.3243 48.7589 64.3896 49.2538 64.5196 49.7306L64.5914 49.9936C65.0059 51.5083 65.4127 52.9947 65.3318 54.6247C65.2448 56.3767 64.6399 57.9075 63.9391 59.566C63.8496 59.7695 63.7615 59.9737 63.6734 60.1779L63.6733 60.178C63.4604 60.6713 63.2475 61.1646 63.015 61.6479ZM90.7431 50.1106C90.7439 50.1257 90.7422 50.142 90.7406 50.1581V50.1581C90.7376 50.187 90.7347 50.2155 90.7463 50.2353C90.7823 50.2968 90.8255 50.3538 90.8686 50.4108L90.8687 50.4108C90.8857 50.4333 90.9027 50.4558 90.9193 50.4785C90.9376 50.4617 90.9568 50.4456 90.9759 50.4294C91.0173 50.3945 91.0587 50.3596 91.0921 50.318C91.1869 50.1997 91.2825 50.0819 91.378 49.9642L91.3782 49.964C91.6503 49.6288 91.9224 49.2935 92.1776 48.9452C92.7405 48.177 93.291 47.3988 93.8301 46.6128C94.148 46.1494 93.8318 45.9574 93.4548 45.9299C92.6699 45.8727 92.0052 46.2136 91.3308 46.6119C90.8489 46.8966 90.4939 47.135 90.6199 47.8863L90.6387 48.2243C90.6736 48.8531 90.7085 49.4818 90.7431 50.1106ZM63.862 50.4674C63.845 50.4959 63.828 50.5243 63.8156 50.5519C63.4799 50.3874 63.1686 50.191 62.8604 49.9966C62.5907 49.8264 62.3233 49.6577 62.044 49.5132C61.4128 49.1867 61.1907 48.5937 60.9885 48.0044C60.7559 47.3262 61.2736 46.6783 61.9755 46.6832C62.0068 46.6834 62.0381 46.6836 62.0696 46.6837C62.3198 46.6846 62.5738 46.6855 62.8144 46.7397C63.287 46.8462 63.3339 47.2226 63.3791 47.5852C63.3931 47.6978 63.4069 47.809 63.4333 47.9104C63.6021 48.5595 63.7254 49.2213 63.8486 49.8825C63.874 50.0193 63.8995 50.156 63.9254 50.2927C63.9353 50.3447 63.8986 50.4061 63.862 50.4674Z" fill="white"/>
<ellipse cx="86.3759" cy="57.9958" rx="1.652" ry="1.69749" fill="#FFB61D"/>
<ellipse cx="69.1481" cy="56.5406" rx="1.652" ry="1.69748" fill="#FFB61D"/>
<path fill-rule="evenodd" clip-rule="evenodd" d="M76.958 36.0832C77.8993 36.291 78.9202 36.5433 79.8715 36.0123C80.1937 35.8325 80.4966 35.6111 80.7901 35.384C80.9692 35.2455 81.1303 35.0736 81.2711 34.8932C82.3885 33.4616 83.2131 33.6754 84.7518 34.6101C86.7203 35.8059 88.9998 39.2894 82.8966 39.2894C79.8225 39.2894 67.5442 37.569 69.2585 35.8589C69.9592 35.1599 70.8771 34.6921 71.6904 34.1107C71.9967 33.8917 72.3085 33.6724 72.5788 33.4108C72.9704 33.0317 73.208 33.2319 73.4524 33.5803C73.7738 34.0384 74.1093 34.4859 74.4695 34.9697C75.3169 35.3751 76.1029 35.8945 76.958 36.0832Z" fill="#E7EAEE"/>
<path fill-rule="evenodd" clip-rule="evenodd" d="M109.853 101.574C109.534 101.771 109.215 101.968 108.872 102.102C108.044 102.425 107.204 102.717 106.355 103.012L106.355 103.012C105.817 103.199 105.276 103.387 104.732 103.585C104.569 103.651 104.424 103.694 104.285 103.736L104.282 103.737C104.25 103.746 104.219 103.755 104.187 103.765C103.702 103.914 103.216 104.064 102.731 104.214C101.514 104.59 100.296 104.967 99.0716 105.32C98.5761 105.463 98.1664 105.302 97.8971 104.752C97.2279 103.383 96.5118 102.039 95.7913 100.698C95.7414 100.605 95.6179 100.554 95.4944 100.502C95.4371 100.479 95.3798 100.455 95.3298 100.427C95.3111 100.492 95.2813 100.562 95.2514 100.633C95.1872 100.785 95.123 100.938 95.17 101.031C95.9733 102.617 96.798 104.192 97.6609 105.745C97.7676 105.937 98.1538 106.113 98.3671 106.07C99.4998 105.841 100.624 105.56 101.741 105.256C102.172 105.138 102.599 105.001 103.026 104.863C103.641 104.665 104.256 104.467 104.884 104.329C107.039 103.855 109.1 103.17 110.95 101.904C111.614 101.449 111.796 100.754 111.473 100.033C111.36 99.7817 111.245 99.5308 111.131 99.2798C110.734 98.4146 110.337 97.5483 110.027 96.6513C109.076 93.9011 108.004 91.2043 106.743 88.5919C105.945 86.9386 105.098 85.3069 104.197 83.7104C102.994 81.5775 101.734 79.4463 99.7987 77.9286C98.4549 76.8745 97.0159 75.8818 95.4859 75.1613C93.2496 74.1082 90.7935 73.8776 88.3496 73.7025C87.8502 73.6667 87.3254 73.4742 86.8843 73.2213C85.9999 72.7142 85.6406 71.8159 85.2788 70.9114C85.2392 70.8123 85.1996 70.7133 85.1592 70.6146C84.9807 70.1783 85.268 70.0966 85.4488 70.0582C85.9144 69.9591 86.4063 69.8807 86.8744 69.9293C87.6036 70.005 88.0049 69.656 88.2725 69.0346C88.9291 67.5102 89.5039 65.9599 89.938 64.3466C90.5389 62.1131 91.0521 59.8796 90.9974 57.5389C90.9737 56.5244 90.9791 55.5091 90.9846 54.4939C90.9875 53.9644 90.9904 53.435 90.9891 52.9056C90.9888 52.7612 90.9717 52.6101 90.9547 52.4595C90.9205 52.1567 90.8866 51.8558 90.9891 51.6145C91.2412 51.0211 91.6555 50.4886 92.0574 49.9768C92.3752 49.5721 92.7073 49.1791 93.0393 48.7862L93.0393 48.7862L93.0394 48.7861L93.0394 48.7861L93.0394 48.7861L93.0394 48.786L93.0395 48.786L93.0395 48.786L93.0395 48.7859L93.0395 48.7859L93.0396 48.7859L93.0396 48.7858L93.0396 48.7858L93.0396 48.7858L93.0396 48.7857C93.4421 48.3093 93.8446 47.8331 94.2215 47.3362C94.525 46.936 94.7513 46.4263 94.4457 45.8949C94.1471 45.3758 93.6682 45.1652 93.112 45.2942C93.0166 45.3163 92.9205 45.3372 92.8243 45.3581C92.125 45.5101 91.418 45.6638 90.9244 46.301C90.6872 46.6071 90.5499 46.6081 90.4885 46.1641C90.4429 45.8344 90.3779 45.5074 90.313 45.1805L90.3129 45.1803C90.2457 44.8418 90.1785 44.5033 90.1327 44.1617C90.0763 43.7408 90.0384 43.3172 90.0004 42.8937C89.9637 42.4838 89.927 42.074 89.8736 41.6664C89.7985 41.0944 89.7139 40.5236 89.6292 39.9528L89.6292 39.9527L89.6291 39.9526L89.6291 39.9526L89.6291 39.9525L89.6291 39.9524L89.6291 39.9524L89.6291 39.9523L89.6291 39.9523L89.6291 39.9522L89.6291 39.9522L89.629 39.9521L89.629 39.9521L89.629 39.952L89.629 39.952L89.629 39.9519C89.5008 39.088 89.3727 38.2243 89.2782 37.3566C89.222 36.8411 89.0828 36.4283 88.7463 36.0526C88.5718 35.8578 88.3946 35.6649 88.2173 35.4718L88.2172 35.4718L88.2172 35.4718L88.2172 35.4717L88.2172 35.4717L88.2172 35.4717L88.2171 35.4716L88.2171 35.4716L88.217 35.4715C87.6734 34.8796 87.129 34.2869 86.6601 33.6375C85.366 31.8456 83.5284 30.9058 81.6213 30.0534C80.3925 29.5042 79.1219 29.1113 77.7706 29.0321C77.176 28.9972 76.5819 28.9536 75.9878 28.9101L75.9877 28.9101C75.381 28.8657 74.7742 28.8212 74.167 28.786C73.6675 28.757 73.1595 28.7363 72.6662 28.8001C72.4209 28.8319 72.1755 29.0334 71.9732 29.2102C71.7734 29.3846 71.5832 29.5712 71.3932 29.7578C71.1483 29.9981 70.9036 30.2383 70.6386 30.4521C70.3591 30.6776 70.0631 30.8846 69.7676 31.0914C69.2822 31.4308 68.798 31.7695 68.3896 32.1881C67.9201 32.6692 67.545 33.249 67.1707 33.8277C67.0329 34.0407 66.8952 34.2536 66.7529 34.4614C65.6969 36.0034 64.8855 37.67 64.4388 39.5046C64.1623 40.6401 63.9282 41.787 63.6957 42.9333L63.6589 43.1146C63.4884 43.9538 63.3176 44.7949 63.2102 45.6435L63.2054 45.6811C63.1206 46.3532 63.1141 46.4043 62.4867 46.1658C61.8388 45.9196 61.2803 46.0859 60.8242 46.5376C60.376 46.9815 60.3267 47.5803 60.4825 48.1839C60.9388 49.9517 62.2535 50.6918 63.825 51.1327C63.9622 51.1712 64.1137 51.3088 64.179 51.4416C64.8567 52.819 64.8859 54.284 64.4571 55.7047C64.0622 57.0129 63.5944 58.2978 63.1266 59.5828L63.1264 59.5832C62.9201 60.15 62.7137 60.7169 62.5136 61.2857C62.3075 61.8716 62.1945 62.4088 62.6667 62.9763C63.6822 64.1969 64.652 65.4603 65.3846 66.8921C65.6751 67.4598 66.1209 67.8686 66.7189 67.9919C67.2886 68.1094 67.3659 68.3989 67.433 68.9482C67.5214 69.6722 67.7558 70.4331 68.1364 71.0396C68.2573 71.2321 68.5831 71.2842 68.9166 71.3375C69.0931 71.3658 69.2718 71.3943 69.4234 71.4442C69.5472 71.485 69.7438 71.6547 69.7285 71.7236C69.7015 71.8462 69.6751 71.9693 69.6488 72.0926L69.6488 72.0926L69.6488 72.0926L69.6488 72.0927L69.6488 72.0927L69.6488 72.0927L69.6488 72.0928L69.6488 72.0928C69.5224 72.684 69.3953 73.2783 69.1818 73.8365C68.7143 75.0584 67.7198 75.8229 66.7546 76.5649L66.7541 76.5653C66.6224 76.6666 66.4912 76.7674 66.3619 76.869C64.6767 78.1931 62.6721 78.9202 60.6581 79.5477C59.7115 79.8426 58.7512 80.0907 57.7909 80.3389L57.7908 80.3389L57.7907 80.339L57.7907 80.339L57.7907 80.339L57.7906 80.339L57.7906 80.339L57.7906 80.339L57.7905 80.339L57.7905 80.339L57.7904 80.339L57.7904 80.3391L57.7904 80.3391L57.7903 80.3391L57.7903 80.3391L57.7903 80.3391C57.1674 80.5001 56.5445 80.661 55.9253 80.8348C55.5393 80.9431 55.1579 81.0712 54.7766 81.1993C54.2113 81.3892 53.6463 81.5789 53.0676 81.7037C50.8446 82.183 48.8837 83.1689 47.1613 84.6789C46.0037 85.6938 45.3822 87.0585 44.7574 88.4309L44.6662 88.631C43.8216 90.4809 43.0811 92.4532 42.9768 94.455C42.9476 95.0164 42.9893 95.5815 43.031 96.1468C43.0521 96.4326 43.0733 96.7185 43.0852 97.004C43.112 97.646 43.135 98.2882 43.158 98.9304C43.2081 100.327 43.2581 101.724 43.3477 103.118C43.3976 103.895 43.5322 104.668 43.6665 105.439L43.6666 105.439C43.7051 105.661 43.7436 105.882 43.7801 106.103C43.8796 106.706 43.9905 107.306 44.1015 107.907L44.1016 107.907C44.1756 108.308 44.2496 108.708 44.3202 109.109C44.3663 109.371 44.4157 109.632 44.4651 109.894C44.5981 110.597 44.7311 111.3 44.7987 112.01C44.8608 112.663 44.8427 113.324 44.8247 113.984C44.8193 114.179 44.814 114.374 44.8108 114.569C44.805 114.913 44.8634 115.191 45.265 115.098C45.6619 115.005 46.0519 114.882 46.4416 114.758C46.5641 114.719 46.6866 114.68 46.8093 114.642C47.223 114.514 47.4765 114.664 47.5298 115.101C47.5826 115.534 47.6291 115.967 47.6756 116.4C47.7462 117.058 47.8167 117.715 47.9092 118.37C48.134 119.96 48.3814 121.548 48.6481 123.132C49.1378 126.039 49.8436 128.895 50.771 131.685C51.5955 134.166 52.4873 136.623 53.3876 139.076C53.9062 140.489 54.4609 141.888 55.0155 143.287C55.1573 143.644 55.299 144.001 55.4401 144.359C56.0119 145.808 56.596 147.252 57.181 148.696C57.3166 149.03 57.4506 149.366 57.5846 149.701L57.585 149.702L57.5851 149.702C57.9784 150.687 58.3718 151.672 58.806 152.637C59.1831 153.475 59.6115 154.288 60.0397 155.102L60.0398 155.102C60.1662 155.342 60.2925 155.582 60.4175 155.822C60.4564 155.897 60.5344 155.95 60.6124 156.004C60.6486 156.028 60.6849 156.053 60.7172 156.08C60.7327 156.036 60.7508 155.992 60.769 155.948C60.8114 155.846 60.8538 155.743 60.8635 155.638C60.8711 155.555 60.8255 155.465 60.7818 155.378L60.7818 155.378L60.7661 155.347C60.7601 155.335 60.7542 155.323 60.7487 155.311C60.603 154.997 60.4523 154.685 60.3017 154.374C59.9857 153.72 59.6698 153.067 59.4001 152.394C58.4658 150.062 57.5695 147.714 56.6765 145.366C56.2752 144.31 55.8829 143.251 55.4906 142.192C55.1044 141.15 54.7183 140.107 54.3235 139.068C54.078 138.422 53.8185 137.781 53.5591 137.14L53.5591 137.14C53.0946 135.992 52.6303 134.845 52.2468 133.67C51.4326 131.175 50.7041 128.647 50.0444 126.104C49.6727 124.671 49.4172 123.204 49.1622 121.741C49.1164 121.478 49.0705 121.214 49.024 120.952C48.8954 120.225 48.8135 119.489 48.7316 118.754L48.7316 118.753L48.7316 118.753L48.7316 118.753L48.7316 118.753L48.7316 118.753L48.7316 118.753L48.7315 118.753L48.7315 118.753L48.7315 118.752L48.7315 118.752L48.7315 118.752L48.7315 118.752L48.7315 118.752L48.7314 118.752C48.7036 118.501 48.6757 118.251 48.646 118.001C48.5165 116.912 48.3945 115.822 48.2758 114.731C48.2362 114.368 48.3929 114.196 48.7537 114.078C50.1355 113.629 51.5106 113.158 52.8857 112.687L52.8858 112.687L52.886 112.687L52.8863 112.687L52.8865 112.686C53.3746 112.519 53.8627 112.352 54.3511 112.186C54.7143 112.062 55.1011 111.944 55.4987 111.822C56.9708 111.371 58.5911 110.874 59.7115 109.906C59.7764 109.85 59.9462 109.818 59.9869 109.859C60.0601 109.932 60.1119 110.073 60.1041 110.18C60.0655 110.718 60.0186 111.255 59.9716 111.792L59.9716 111.792L59.9716 111.792L59.9716 111.792L59.9716 111.792L59.9716 111.792L59.9716 111.792L59.9716 111.792L59.9716 111.792L59.9716 111.793L59.9716 111.793L59.9716 111.793L59.9716 111.793L59.9716 111.793L59.9715 111.793L59.9715 111.793C59.879 112.853 59.7864 113.913 59.7574 114.974C59.7206 116.321 59.7834 117.672 59.8462 119.02L59.8462 119.02L59.8463 119.021L59.8463 119.021L59.8463 119.022L59.8463 119.022L59.8463 119.023L59.8601 119.318L59.8709 119.554C59.9096 120.41 59.9717 121.272 60.121 122.113C60.501 124.253 61.2895 126.256 62.2153 128.2C62.3498 128.483 62.5099 128.755 62.6697 129.027L62.6698 129.027L62.6698 129.027C62.9088 129.434 63.1472 129.839 63.2989 130.277C63.5308 130.948 63.776 131.613 64.0212 132.279C64.6945 134.108 65.368 135.937 65.7678 137.861C65.8935 138.466 66.0404 139.066 66.1872 139.667L66.1873 139.667C66.3502 140.334 66.5131 141 66.6472 141.672C66.8541 142.709 67.0152 143.756 67.1762 144.803L67.1764 144.805C67.2135 145.046 67.2505 145.286 67.288 145.527C67.334 145.821 67.3854 146.116 67.4367 146.41C67.5761 147.21 67.7156 148.01 67.7492 148.814C67.8161 150.415 67.8373 152.018 67.8586 153.62V153.62V153.62V153.621V153.621V153.621V153.621V153.621V153.621V153.621V153.621V153.621V153.621V153.621V153.621C67.8699 154.477 67.8812 155.332 67.8995 156.187C67.9022 156.314 67.955 156.441 68.0077 156.567C68.0322 156.626 68.0567 156.685 68.0762 156.743C68.1089 156.684 68.1494 156.625 68.19 156.566C68.2778 156.438 68.3656 156.311 68.3731 156.179C68.4138 155.457 68.4378 154.735 68.4617 154.012C68.4772 153.546 68.4926 153.08 68.5126 152.614C68.5221 152.392 68.5446 152.17 68.567 151.949C68.6007 151.616 68.6344 151.284 68.6242 150.953C68.6135 150.606 68.6039 150.26 68.5943 149.913L68.5943 149.912L68.5943 149.912L68.5943 149.912L68.5943 149.912V149.912C68.5504 148.324 68.5064 146.736 68.3613 145.158C68.264 144.099 68.02 143.052 67.7772 142.01L67.7771 142.009C67.7305 141.809 67.684 141.61 67.6385 141.41C67.5295 140.931 67.4232 140.452 67.3168 139.972L67.3168 139.972C66.9396 138.271 66.5621 136.57 66.0664 134.906C65.2523 132.173 64.1473 129.55 62.8778 126.997C62.3007 125.836 61.817 124.598 61.493 123.339C60.8567 120.869 60.8015 118.315 60.7467 115.776L60.7415 115.537C60.716 114.368 60.7628 113.198 60.8095 112.027C60.8255 111.628 60.8415 111.229 60.8546 110.829C60.8717 110.305 60.9109 109.782 60.9501 109.258L60.9502 109.257C60.9587 109.142 60.9673 109.028 60.9756 108.914C61.0136 108.393 61.0599 107.871 61.1063 107.35C61.2076 106.21 61.3089 105.071 61.3227 103.931C61.3338 103.013 61.2758 102.095 61.2179 101.177C61.1699 100.416 61.1218 99.6555 61.113 98.8946C61.1006 97.8207 60.7991 96.8283 60.4974 95.8353L60.4973 95.8352C60.4016 95.5202 60.3059 95.2051 60.2194 94.8874C60.1862 94.7654 60.0632 94.6691 59.9403 94.5728C59.8834 94.5282 59.8265 94.4837 59.7785 94.4365C59.7598 94.5054 59.7328 94.576 59.7057 94.6466C59.6468 94.8008 59.5878 94.9549 59.6147 95.0911C59.6687 95.3643 59.7493 95.6333 59.8296 95.902C59.9422 96.278 60.0544 96.653 60.0932 97.0368C60.2668 98.7561 60.4315 100.483 60.4584 102.209C60.4697 102.932 60.4148 103.656 60.3599 104.38C60.2987 105.188 60.2375 105.995 60.2683 106.799C60.3123 107.946 59.7428 108.556 58.9802 109.138C57.9772 109.904 56.5445 110.347 55.2583 110.744L55.2583 110.744C54.9175 110.849 54.587 110.951 54.2775 111.055C52.355 111.702 50.444 112.384 48.5329 113.067C47.7439 113.348 46.9548 113.63 46.165 113.909L46.1517 113.914C45.8876 114.007 45.6698 114.085 45.6702 113.621C45.6706 113.057 45.6136 112.491 45.557 111.927L45.5539 111.897C45.5217 111.577 45.4901 111.256 45.4584 110.935L45.4584 110.935C45.3361 109.695 45.2139 108.455 45.0549 107.221C44.9577 106.467 44.8398 105.715 44.7218 104.964C44.5808 104.066 44.4398 103.168 44.3344 102.266C44.1863 100.997 44.0984 99.7143 44.0883 98.437C44.0781 97.1433 44.1169 95.8491 44.1557 94.5549C44.1709 94.047 44.1861 93.5391 44.1983 93.0312C44.2312 91.6684 44.8823 90.4181 45.5173 89.1988C45.7548 88.7426 45.9901 88.2908 46.1899 87.839C47.2034 85.5476 49.1117 84.2841 51.2599 83.3916C52.2923 82.9626 53.3692 82.6457 54.4456 82.329C54.841 82.2126 55.2364 82.0963 55.6294 81.9744C56.5098 81.7014 57.3925 81.4355 58.2752 81.1696L58.2754 81.1696L58.2756 81.1695L58.2758 81.1694L58.2761 81.1694L58.2763 81.1693L58.2765 81.1692L58.2767 81.1692L58.2769 81.1691L58.2771 81.169L58.2774 81.1689L58.2776 81.1689L58.2778 81.1688L58.278 81.1687L58.2782 81.1687C60.0187 80.6444 61.759 80.1202 63.4821 79.5414C65.0198 79.0249 66.4841 78.2851 67.6952 77.1399C68.0269 76.8262 68.1902 76.8819 68.4827 77.1693C69.4381 78.1077 70.4161 79.0218 71.394 79.9358L71.5622 80.093C73.2294 81.6515 75.085 82.9258 77.1482 83.8551C77.4538 83.9928 77.9545 83.9736 78.2386 83.8038C78.8792 83.4208 79.4784 82.9627 80.0763 82.5056C80.1995 82.4114 80.3226 82.3173 80.446 82.2239C80.6943 82.036 80.9429 81.8486 81.1915 81.6612C82.2248 80.8825 83.2582 80.1037 84.2631 79.2879C85.3305 78.4212 86.0944 77.2794 86.8555 76.1416L86.8556 76.1416L86.8556 76.1415C86.9773 75.9595 87.099 75.7776 87.2219 75.597C87.2701 75.526 87.0999 75.1604 86.9908 75.1377C86.5629 75.0487 86.3666 75.3351 86.1606 75.6355L86.1606 75.6356L86.1605 75.6357L86.1604 75.6358L86.1604 75.6359L86.1603 75.636L86.1598 75.6367L86.1594 75.6373L86.1593 75.6374L86.1588 75.6381C86.1202 75.6944 86.0813 75.7512 86.0404 75.806C85.8696 76.035 85.7028 76.2702 85.5358 76.5059L85.5358 76.5059C85.0182 77.236 84.4978 77.97 83.8438 78.5367C82.8 79.4411 81.7037 80.2809 80.6071 81.121C79.8274 81.7183 79.0476 82.3157 78.2863 82.9365C77.8126 83.3229 77.4639 83.2945 77.006 83.029L76.8206 82.9216L76.7071 82.8562L76.7049 82.8549C75.6369 82.2383 74.5776 81.6268 73.6535 80.7541C72.4659 79.6325 71.2195 78.5764 69.9734 77.5205L69.9732 77.5204L69.9723 77.5196L69.9713 77.5188L69.971 77.5185L69.9706 77.5182L69.9703 77.5179L69.97 77.5176L69.9696 77.5173L69.9693 77.5171L69.969 77.5168L69.9686 77.5165L69.9683 77.5162L69.968 77.5159L69.9677 77.5156L69.9673 77.5153C69.613 77.2151 69.2587 76.9149 68.9058 76.6133C68.5767 76.3319 68.6359 76.158 68.9188 75.892C69.8672 75.0005 70.3759 73.8976 70.5138 72.5668C70.5223 72.4857 70.5251 72.3964 70.528 72.3036C70.5412 71.8841 70.5567 71.3938 71.1028 71.2629C71.6277 71.1371 72.0191 71.4897 72.3323 71.8804C72.5334 72.1313 72.7254 72.39 72.9173 72.6487L72.9173 72.6487L72.9174 72.6487L72.9174 72.6488L72.9174 72.6488L72.9174 72.6488L72.9175 72.6489L72.9175 72.6489L72.9175 72.6489L72.9175 72.649L72.9175 72.649L72.9176 72.6491L72.9176 72.6491L72.9176 72.6491L72.9176 72.6492L72.9177 72.6493C73.1566 72.9712 73.3954 73.2931 73.6517 73.5997L73.6998 73.6574C74.1898 74.2448 74.7295 74.8919 75.5813 74.5891C76.7722 74.1659 77.9743 74.0871 79.2121 74.0721C79.564 74.0679 80.0526 73.7974 80.233 73.4946C80.5312 72.994 80.7515 72.4442 80.9718 71.8946L80.9718 71.8945C81.057 71.682 81.1422 71.4695 81.2319 71.2598C81.5478 70.5213 81.8763 70.2453 82.6673 70.5413C83.0109 70.6699 83.4658 70.7723 83.7768 70.6452C84.3927 70.3935 84.5091 70.6986 84.6819 71.1513L84.7032 71.2071C85.1066 72.257 85.5169 73.3099 86.4902 73.9946C87.1319 74.446 87.8582 74.5709 88.5852 74.696L88.5852 74.696L88.5857 74.6961C88.6531 74.7077 88.7205 74.7192 88.7879 74.7311C89.4202 74.8424 90.0546 74.9423 90.6889 75.0421L90.6891 75.0421C91.6012 75.1856 92.5133 75.3292 93.419 75.5069C95.7785 75.9697 97.8009 77.2153 99.534 78.827C100.745 79.9527 101.722 81.3703 102.676 82.7527L102.703 82.7927C103.396 83.7965 103.959 84.8995 104.519 85.9958L104.519 85.9959C104.583 86.1223 104.648 86.2487 104.712 86.3748C104.885 86.7116 105.059 87.0479 105.233 87.3843L105.234 87.3853L105.234 87.3863L105.235 87.3874L105.235 87.3884L105.236 87.3894L105.236 87.3904L105.237 87.3914L105.237 87.3925C106.039 88.9416 106.841 90.4926 107.521 92.0973C108.307 93.9544 109.024 95.8426 109.741 97.7309C110.09 98.6478 110.438 99.5647 110.794 100.478C110.913 100.783 110.951 100.977 110.59 101.152C110.336 101.275 110.095 101.425 109.853 101.574ZM63.6735 60.1778L63.6738 60.1772L63.6739 60.1768C63.7619 59.9729 63.8499 59.769 63.9393 59.5658C64.6401 57.9073 65.2449 56.3766 65.3319 54.6245C65.4128 52.9945 65.0061 51.5082 64.5916 49.9935L64.5197 49.7305C64.3898 49.2536 64.3244 48.7588 64.259 48.2635C64.2032 47.841 64.1473 47.4183 64.0514 47.0061C63.8286 46.0496 64.0091 45.1414 64.1894 44.2342L64.1894 44.2342C64.2826 43.7653 64.3757 43.2968 64.4131 42.822C64.5288 41.3514 64.8645 39.9473 65.3496 38.5802C65.9786 36.8078 66.941 35.2179 67.9914 33.6727C68.791 32.4963 69.8322 31.6595 71.0153 30.947C71.4891 30.6618 71.9689 30.3048 72.29 29.8613C72.532 29.527 72.7339 29.4049 73.1068 29.4102C73.5152 29.416 73.9243 29.4096 74.3333 29.4033C75.0164 29.3927 75.6993 29.3821 76.3788 29.428C78.8585 29.5955 81.2175 30.2304 83.3236 31.6407L83.4238 31.7078C84.1945 32.2235 84.9794 32.7486 85.6306 33.4026C86.4607 34.2361 87.2068 35.1598 87.951 36.081C88.0673 36.2249 88.1835 36.3688 88.3 36.5123C88.4304 36.6729 88.4647 36.9273 88.4968 37.1648C88.5031 37.2116 88.5093 37.2578 88.5161 37.3024C88.6909 38.4406 88.8562 39.5804 89.0215 40.7201L89.0216 40.7208L89.0217 40.7215L89.0218 40.7222L89.0219 40.7229L89.022 40.7236L89.0221 40.7242L89.0222 40.7249L89.0223 40.7256L89.0224 40.7263L89.0225 40.727L89.0226 40.7277L89.0227 40.7284L89.0228 40.729L89.0229 40.7297L89.0976 41.2445C89.1321 41.4819 89.1671 41.7192 89.2021 41.9566L89.2022 41.9571L89.2023 41.9578C89.3084 42.6767 89.4145 43.3956 89.5055 44.1165C89.5366 44.3623 89.5678 44.6082 89.5991 44.8541L89.5991 44.8546C89.7851 46.3177 89.9711 47.7812 90.1157 49.2488C90.1958 50.0621 90.2148 50.8824 90.2337 51.7017V51.7019C90.2379 51.8819 90.2421 52.0618 90.2469 52.2415C90.257 52.6199 90.2678 52.9983 90.2786 53.3766L90.2786 53.3772L90.2786 53.3778C90.3213 54.8715 90.3639 56.3653 90.3647 57.859C90.3659 60.0891 89.8875 62.2506 89.2451 64.3617C88.8502 65.6596 88.3566 66.9266 87.8637 68.1917L87.8636 68.1918L87.8616 68.1969C87.7749 68.4196 87.6881 68.6422 87.6019 68.865C87.5309 69.0484 87.2557 69.2173 87.0481 69.2629C86.4734 69.3891 85.8862 69.4735 85.2999 69.5181C85.063 69.5361 84.7701 69.471 84.5842 69.3301C84.3545 69.156 84.3129 69.1525 84.1873 69.4246C83.8905 70.0675 83.5336 70.2213 82.8455 69.9705C82.2342 69.7477 81.6378 69.6679 81.1777 70.1873C80.923 70.4748 80.7542 70.8491 80.5891 71.2151C80.559 71.282 80.5289 71.3486 80.4985 71.4144C80.4183 71.5877 80.3705 71.7766 80.3226 71.9656C80.2978 72.0636 80.2729 72.1615 80.2436 72.2574C79.9578 73.1922 79.595 73.5155 78.6662 73.4534C77.6534 73.3856 76.6716 73.5347 75.7381 73.8676C74.9518 74.1479 74.5841 73.7114 74.1884 73.2416C74.148 73.1935 74.1073 73.1452 74.0658 73.0972C73.9534 72.9673 73.8415 72.837 73.7295 72.7066C73.1877 72.0758 72.6454 71.4444 72.0563 70.8637C71.8359 70.6463 71.4105 70.5583 71.0826 70.5664C70.7404 70.5748 70.3999 70.6341 70.0589 70.6936L70.0589 70.6936L70.0588 70.6936L70.0588 70.6936L70.0587 70.6936L70.0587 70.6936L70.0586 70.6936L70.0585 70.6936L70.0585 70.6937L70.0584 70.6937L70.0584 70.6937L70.0583 70.6937L70.0583 70.6937L70.0582 70.6937L70.0581 70.6937C69.8369 70.7323 69.6154 70.7709 69.3931 70.7956C68.9183 70.8484 68.5456 70.5749 68.4046 70.1622C68.2076 69.5855 68.0971 68.9673 68.0296 68.3575C67.9811 67.9193 67.8281 67.5865 67.4229 67.5114C66.4246 67.3263 65.8745 66.6819 65.3995 65.8079C65.0633 65.1895 64.6347 64.6236 64.2065 64.0583L64.2063 64.058C64.0433 63.8427 63.8803 63.6276 63.7225 63.4096C63.618 63.2652 63.5035 63.1285 63.3891 62.9918L63.389 62.9917L63.3889 62.9916C63.2824 62.8644 63.1758 62.7371 63.0773 62.6036C62.8572 62.3056 62.8463 61.9986 63.0151 61.6478C63.2477 61.1644 63.4606 60.6711 63.6735 60.1778ZM90.6381 48.2128L90.62 47.8863C90.494 47.1349 90.849 46.8965 91.3309 46.6119C92.0053 46.2136 92.67 45.8727 93.455 45.9299C93.832 45.9573 94.1481 46.1494 93.8302 46.6128C93.2911 47.3988 92.7406 48.177 92.1777 48.9452C91.9225 49.2935 91.6504 49.6288 91.3783 49.964L91.3777 49.9647C91.2823 50.0822 91.1869 50.1998 91.0922 50.3179C91.0588 50.3596 91.0174 50.3945 90.976 50.4294C90.9569 50.4455 90.9377 50.4617 90.9194 50.4785C90.9028 50.4557 90.8858 50.4333 90.8688 50.4108C90.8256 50.3538 90.7825 50.2967 90.7464 50.2353C90.7348 50.2154 90.7377 50.187 90.7407 50.1581C90.7424 50.1419 90.744 50.1257 90.7432 50.1106C90.709 49.488 90.6744 48.8655 90.6398 48.2429L90.6397 48.2413L90.6396 48.2397L90.6395 48.2381L90.6395 48.2365L90.6394 48.2349L90.6393 48.2333L90.6381 48.2128ZM63.8621 50.4674L63.8621 50.4674L63.8621 50.4674L63.8621 50.4674C63.8451 50.4959 63.8281 50.5243 63.8158 50.5518C63.4802 50.3874 63.1689 50.1911 62.8608 49.9967L62.8607 49.9966L62.8607 49.9966L62.8607 49.9966L62.8606 49.9966L62.8606 49.9965L62.8606 49.9965C62.5908 49.8263 62.3234 49.6576 62.0442 49.5132C61.4129 49.1867 61.1908 48.5937 60.9887 48.0044C60.7561 47.3261 61.2738 46.6783 61.9757 46.6832L62.0697 46.6836C62.3199 46.6845 62.5739 46.6855 62.8145 46.7397C63.2871 46.8462 63.334 47.2226 63.3792 47.5852C63.3932 47.6977 63.4071 47.809 63.4335 47.9104C63.6022 48.5594 63.7255 49.2212 63.8487 49.8823L63.8487 49.8824L63.8489 49.8835C63.8743 50.0199 63.8997 50.1563 63.9256 50.2926C63.9354 50.3447 63.8988 50.406 63.8621 50.4674ZM101.286 110.227L101.289 110.233C102.264 111.837 103.242 113.447 104.238 115.074C104.493 115.335 104.743 115.594 104.992 115.851L104.993 115.852L104.993 115.852L104.996 115.855L104.996 115.856C105.542 116.42 106.078 116.973 106.621 117.519C107.929 118.833 109.484 119.155 111.236 118.742C112.759 118.383 114.149 117.748 115.374 116.752C115.568 116.595 115.768 116.441 115.968 116.287L115.969 116.287L115.969 116.287L115.969 116.287L115.969 116.287C116.558 115.835 117.15 115.38 117.601 114.811C118.629 113.511 119.575 112.123 120.401 110.679C121.504 108.752 122.6 106.797 123.441 104.742C124.226 102.827 124.879 100.855 125.532 98.883L125.532 98.8827C125.776 98.1478 126.019 97.4128 126.269 96.681C126.36 96.4134 126.452 96.146 126.544 95.8785L126.544 95.8782C127.061 94.3725 127.578 92.8663 128.035 91.3416C128.257 90.6013 128.445 89.8493 128.632 89.0976C128.873 88.1298 129.114 87.1623 129.43 86.2205C129.791 85.1393 130.241 84.0893 130.691 83.0391C130.924 82.4953 131.156 81.9515 131.377 81.4032C131.609 80.8283 131.841 80.2537 132.073 79.6791L132.076 79.6735L132.076 79.6731C132.966 77.4701 133.857 75.267 134.702 73.0457C135.037 72.1651 135.271 71.2431 135.505 70.3231C135.567 70.0809 135.628 69.8387 135.692 69.5975C135.721 69.4882 135.663 69.355 135.606 69.2218C135.58 69.1601 135.553 69.0984 135.535 69.0391C135.474 69.0594 135.407 69.0745 135.341 69.0896C135.198 69.1225 135.054 69.1553 134.954 69.2412C134.322 69.7803 133.886 70.4631 133.597 71.2602C133.45 71.6683 133.252 72.0577 133.054 72.4459L133.054 72.4459L133.054 72.446L133.054 72.4461L133.054 72.4461L133.054 72.4462L133.054 72.4462L133.054 72.4463L133.054 72.4463L133.054 72.4464L133.054 72.4465L133.054 72.4465L133.054 72.4466L133.054 72.4466L133.054 72.4469C133.013 72.5276 132.972 72.6083 132.931 72.6892C132.907 72.7383 132.84 72.7653 132.774 72.7923C132.743 72.8048 132.712 72.8173 132.686 72.8319C132.685 72.8047 132.683 72.7769 132.68 72.7491C132.675 72.6894 132.67 72.6296 132.685 72.5759C132.805 72.153 132.929 71.7314 133.054 71.3097L133.054 71.3096L133.054 71.3094L133.054 71.3092L133.054 71.3091L133.054 71.3089L133.054 71.3088L133.054 71.3086L133.054 71.3084L133.054 71.3083L133.054 71.3081L133.054 71.308L133.054 71.3078L133.054 71.3076L133.054 71.3075C133.318 70.4126 133.582 69.5179 133.802 68.6118C133.982 67.8701 134.04 67.0905 134.088 66.3237C134.123 65.7687 133.629 65.4475 133.195 65.7365C132.97 65.8863 132.784 66.0989 132.598 66.3111C132.524 66.3968 132.449 66.4823 132.371 66.5637C132.31 66.6281 132.255 66.6987 132.2 66.7692C132.175 66.8015 132.15 66.8337 132.124 66.8654C132.111 66.8286 132.097 66.7921 132.082 66.7556C132.05 66.6752 132.018 66.5948 132.003 66.5112C131.952 66.2346 131.913 65.9552 131.877 65.6758C131.809 65.1491 131.514 64.6466 131.061 64.636C130.754 64.6288 130.316 65.088 130.142 65.4446C129.615 66.5265 129.152 67.6453 128.733 68.777C128.407 69.6565 128.118 70.55 127.828 71.4435L127.828 71.4436L127.828 71.4437L127.828 71.444L127.828 71.4444C127.696 71.8516 127.564 72.2588 127.429 72.6646C127.399 72.7528 127.365 72.8393 127.33 72.9257L127.33 72.926C127.314 72.9661 127.298 73.0062 127.282 73.0465C127.25 73.0217 127.215 72.9988 127.181 72.9759C127.106 72.9264 127.03 72.8769 126.981 72.8079C126.465 72.0904 125.728 71.7126 124.979 71.3287L124.888 71.282C124.204 70.9313 123.529 71.0276 122.93 71.3317C122.119 71.7435 122.148 73.238 122.86 73.9077C123.958 74.9402 124.719 76.1694 125.043 77.6763C125.484 79.7227 125.067 81.5721 123.889 83.2661L123.715 83.5177L123.714 83.5179C123.128 84.3612 122.54 85.2055 122.001 86.0802C120.618 88.3217 119.249 90.5728 117.911 92.8428L117.832 92.978C116.595 95.0766 115.357 97.1773 114.213 99.3298C113.696 100.303 113.277 101.332 112.858 102.36C112.71 102.723 112.563 103.086 112.41 103.447C112.275 103.768 112.178 103.882 111.919 103.554C111.726 103.309 111.504 103.079 111.262 102.887C111.187 102.828 111.074 102.82 110.962 102.812C110.91 102.808 110.859 102.805 110.811 102.796C110.81 102.817 110.806 102.839 110.802 102.862C110.8 102.874 110.798 102.885 110.796 102.897L110.792 102.914C110.775 103.003 110.757 103.091 110.793 103.132C110.813 103.156 110.834 103.179 110.854 103.203L110.93 103.292L110.93 103.292C111.169 103.572 111.411 103.854 111.7 104.064C112.603 104.72 112.71 104.644 113.109 103.563L113.143 103.472L113.194 103.331L113.259 103.155L113.259 103.155C113.604 102.209 113.952 101.258 114.424 100.381C115.705 97.9992 117.057 95.657 118.418 93.3219C119.764 91.0129 121.133 88.7177 122.536 86.4451C122.853 85.9318 123.205 85.4399 123.557 84.9484C124.05 84.2601 124.542 83.5727 124.936 82.8288C126.398 80.064 126.185 77.3129 124.481 74.7092C124.312 74.4509 124.093 74.2263 123.874 74.002C123.633 73.7548 123.392 73.5081 123.22 73.2173C123.034 72.904 123.014 72.3363 123.171 72.012C123.276 71.7932 123.871 71.6384 124.163 71.7319C125.566 72.1813 126.9 72.7655 127.194 74.5217C127.208 74.604 127.301 74.6722 127.395 74.7404C127.438 74.7721 127.481 74.8038 127.517 74.8369C127.534 74.8106 127.553 74.7851 127.572 74.7595C127.613 74.7042 127.654 74.6489 127.673 74.5865C127.847 74.0012 128.013 73.4138 128.18 72.8264L128.181 72.8254L128.259 72.5509C128.385 72.1056 128.508 71.659 128.63 71.2123L128.63 71.2121L128.63 71.2118L128.631 71.2116L128.631 71.2114L128.631 71.2111L128.631 71.2109L128.631 71.2106L128.631 71.2104L128.631 71.2102L128.631 71.2099L128.631 71.2097L128.631 71.2094L128.631 71.2092L128.631 71.209C128.919 70.1612 129.206 69.1134 129.547 68.0844C129.761 67.4386 130.072 66.826 130.382 66.2149L130.382 66.2147L130.382 66.2146C130.479 66.0247 130.575 65.8351 130.668 65.6446C130.732 65.5139 130.9 65.423 131.039 65.3546C131.076 65.3368 131.24 65.4664 131.249 65.5407C131.265 65.6695 131.287 65.8005 131.309 65.9319C131.37 66.2982 131.433 66.668 131.358 67.0045C131.208 67.6873 131.003 68.3569 130.797 69.0268L130.797 69.027L130.797 69.0271L130.797 69.0272L130.797 69.0274L130.797 69.0275L130.797 69.0276L130.797 69.0277L130.797 69.0279L130.797 69.028L130.796 69.0281L130.796 69.0282L130.796 69.0284L130.796 69.0285L130.796 69.0286C130.68 69.408 130.563 69.7875 130.457 70.1696C130.214 71.0415 129.99 71.9197 129.792 72.8033C129.775 72.8792 129.855 72.9783 129.936 73.0774C129.974 73.1233 130.011 73.1692 130.039 73.2128C130.076 73.1793 130.12 73.1481 130.164 73.117C130.258 73.0494 130.353 72.9819 130.384 72.8916C130.582 72.3003 130.764 71.7029 130.945 71.1055L130.945 71.1051L130.945 71.1046L130.945 71.1041L130.946 71.1036L130.946 71.1031L130.946 71.1026L130.946 71.1021L130.946 71.1016C131.009 70.895 131.072 70.6883 131.135 70.4819C131.56 69.1 132.011 67.7309 133.017 66.652C133.08 66.5846 133.164 66.5383 133.248 66.492C133.287 66.4705 133.326 66.449 133.363 66.4254C133.375 66.4738 133.394 66.5236 133.413 66.5734C133.453 66.6806 133.494 66.7878 133.473 66.8801C133.12 68.4195 132.752 69.9553 132.377 71.4892C132.321 71.7159 132.256 71.9404 132.191 72.1648C132.086 72.5262 131.982 72.8873 131.918 73.2562C131.889 73.4199 131.959 73.6017 132.029 73.7834C132.061 73.8661 132.093 73.9488 132.115 74.0298C132.178 74.0072 132.248 73.9906 132.318 73.974C132.471 73.9379 132.624 73.9017 132.698 73.803C133.073 73.2989 133.42 72.7661 133.721 72.2117C133.898 71.8857 134.052 71.5467 134.206 71.2075C134.334 70.9255 134.462 70.6433 134.604 70.3686C134.654 70.2699 134.763 70.2025 134.871 70.1351C134.921 70.1041 134.971 70.0731 135.015 70.0391C135.01 70.0898 135.007 70.1418 135.005 70.1938V70.1939C135.001 70.3061 134.996 70.4183 134.959 70.518L134.796 70.9612C134.407 72.0206 134.018 73.0803 133.6 74.1275C133.427 74.5582 133.235 74.9803 133.042 75.4023L133.042 75.4025L133.042 75.4026C132.854 75.8129 132.667 76.2232 132.499 76.6415C132.185 77.4206 131.882 78.2047 131.58 78.9887L131.58 78.9891L131.58 78.9894C131.041 80.3861 130.502 81.7827 129.9 83.1502C129.048 85.0871 128.367 87.0741 127.798 89.1102C127.571 89.9216 127.339 90.7321 127.078 91.5326C126.8 92.3878 126.512 93.2399 126.224 94.0921C125.662 95.7572 125.099 97.4223 124.608 99.1095C123.886 101.593 123.081 104.037 122.015 106.385C120.879 108.888 119.476 111.239 117.842 113.419C117.074 114.443 116.104 115.393 115.044 116.078C113.834 116.859 112.536 117.58 111.085 117.88C110.121 118.079 109.148 118.196 108.263 117.672C106.635 116.707 105.418 115.268 104.345 113.727C103.535 112.566 102.77 111.373 102.004 110.179L102.004 110.179L102.004 110.179L102.004 110.179L102.004 110.179L102.004 110.179L102.004 110.179L102.004 110.179L102.004 110.178L102.004 110.178L102.004 110.178L102.004 110.178L102.004 110.178L102.004 110.178L102.004 110.178C101.563 109.492 101.123 108.805 100.675 108.125C100.601 108.014 100.474 107.941 100.346 107.868C100.287 107.834 100.228 107.8 100.174 107.762C100.171 107.825 100.168 107.889 100.165 107.952C100.156 108.121 100.147 108.289 100.155 108.457C100.157 108.492 100.196 108.523 100.237 108.556C100.268 108.581 100.301 108.607 100.32 108.638L100.74 109.33L101.286 110.227ZM96.0549 144.811C95.9821 145.204 95.9222 145.596 95.8629 145.984L95.8629 145.984C95.7207 146.915 95.5817 147.824 95.2759 148.67C94.7135 150.225 93.4116 151.165 91.9086 151.643C90.4307 152.113 88.9134 152.458 87.3994 152.801C87.2218 152.842 87.0442 152.882 86.8667 152.923C86.4647 153.014 86.0454 153.028 85.6266 153.041L85.6261 153.041L85.6256 153.041L85.6251 153.041L85.6247 153.041L85.6242 153.041L85.6237 153.041L85.6233 153.041L85.6228 153.041L85.6223 153.041L85.6219 153.041L85.6214 153.041C85.4571 153.047 85.293 153.052 85.13 153.062C84.2995 153.113 83.469 153.163 82.6384 153.213C81.3794 153.289 80.1203 153.365 78.8616 153.446C78.349 153.479 77.8368 153.519 77.3247 153.559L77.3245 153.559C76.6978 153.608 76.0712 153.658 75.4438 153.693L75.1384 153.711C74.1464 153.768 73.1527 153.826 72.1609 153.81C71.4693 153.8 70.7784 153.713 70.0885 153.627L70.0878 153.627L70.087 153.627L70.0863 153.627L70.0858 153.627C69.9062 153.604 69.7266 153.582 69.5471 153.561C69.4744 153.553 69.4086 153.482 69.3428 153.411C69.3123 153.378 69.2819 153.345 69.2507 153.318C69.2749 153.292 69.298 153.259 69.3212 153.227C69.3715 153.156 69.4219 153.085 69.483 153.073C69.5468 153.061 69.6112 153.047 69.6758 153.034C69.9648 152.973 70.2601 152.911 70.5399 152.949C72.4748 153.205 74.3938 153.037 76.3167 152.815C77.2565 152.706 78.2013 152.639 79.1454 152.573H79.1455H79.1456H79.1456H79.1457H79.1458H79.1459H79.146H79.146H79.1461H79.1462H79.1463H79.1464L79.1469 152.573L79.3631 152.557C80.0191 152.511 80.6759 152.473 81.3326 152.435L81.3329 152.435L81.3332 152.435L81.3335 152.435L81.3339 152.435L81.3342 152.435L81.3345 152.434L81.3348 152.434L81.3351 152.434L81.3355 152.434L81.3358 152.434L81.3361 152.434L81.3364 152.434L81.3367 152.434H81.3369C82.5846 152.362 83.8322 152.289 85.0744 152.16C87.485 151.91 89.8696 151.466 92.1255 150.514C93.4294 149.964 94.3269 148.917 94.6673 147.537L94.7018 147.397C95.0774 145.876 95.4591 144.331 95.3077 142.732C95.2723 142.358 95.2122 141.986 95.1522 141.615C95.0602 141.045 94.9683 140.476 94.966 139.906C94.9631 139.156 95.0167 138.406 95.0704 137.656C95.1171 137.003 95.1639 136.349 95.1732 135.695C95.1815 135.112 95.1073 134.528 95.0331 133.944C95.0015 133.695 94.9699 133.446 94.9447 133.198C94.9229 132.982 94.9024 132.766 94.882 132.55L94.882 132.55C94.8276 131.975 94.7732 131.4 94.6914 130.83C94.397 128.776 94.2829 126.715 94.3162 124.64C94.325 124.096 94.2921 123.552 94.2592 123.008C94.2368 122.639 94.2145 122.27 94.2052 121.9C94.1841 121.07 94.1692 120.24 94.1542 119.41L94.1542 119.41C94.1328 118.226 94.1115 117.043 94.0726 115.861C94.0406 114.889 93.9864 113.918 93.9322 112.948L93.9322 112.947C93.8974 112.325 93.8626 111.702 93.8337 111.079C93.81 110.568 93.7933 110.057 93.7766 109.547C93.7565 108.932 93.7365 108.318 93.7043 107.705C93.6814 107.269 93.6421 106.832 93.6029 106.396C93.5292 105.575 93.4556 104.755 93.4905 103.94C93.5284 103.055 93.6801 102.175 93.8318 101.295L93.8319 101.295L93.8319 101.295L93.8319 101.295L93.8319 101.295L93.832 101.295L93.832 101.295L93.832 101.295L93.832 101.294L93.832 101.294L93.8321 101.294L93.8321 101.294L93.8321 101.294L93.8321 101.294C93.8997 100.902 93.9674 100.51 94.0249 100.117C94.0634 99.8544 94.1028 99.5919 94.1423 99.3294L94.1424 99.3289C94.2496 98.6159 94.3568 97.9028 94.4441 97.1872C94.4934 96.7832 94.5298 96.3774 94.5662 95.9717L94.5662 95.9715C94.6083 95.5022 94.6504 95.0329 94.7124 94.5664C94.7262 94.4631 94.8397 94.3737 94.9532 94.2844C95.0056 94.2431 95.058 94.2018 95.1006 94.1592C95.1231 94.2082 95.1532 94.258 95.1832 94.3078C95.248 94.4152 95.3127 94.5226 95.3022 94.6215C95.1575 95.971 94.992 97.3184 94.8189 98.6646C94.7543 99.1663 94.6743 99.6675 94.5944 100.169C94.4285 101.208 94.2627 102.246 94.2351 103.289C94.1957 104.777 94.2822 106.268 94.3686 107.759L94.3687 107.759L94.3687 107.759L94.3687 107.759L94.3687 107.759L94.3687 107.76L94.3687 107.76L94.3687 107.76L94.3687 107.76L94.3688 107.76L94.3688 107.76L94.3688 107.761L94.3688 107.761L94.3688 107.761L94.3688 107.761C94.3985 108.273 94.4282 108.785 94.4527 109.297C94.4889 110.05 94.5385 110.801 94.5881 111.553C94.6256 112.12 94.663 112.687 94.6946 113.254L94.7276 113.842L94.7597 114.413L94.7598 114.416L94.76 114.418L94.7601 114.421C94.8686 116.348 94.9771 118.276 95.061 120.204C95.0918 120.911 95.1034 121.619 95.1151 122.327C95.1304 123.252 95.1456 124.178 95.2036 125.101C95.2722 126.194 95.3889 127.285 95.5055 128.375L95.5055 128.375L95.5055 128.375L95.5055 128.376L95.5055 128.376L95.5056 128.376L95.5056 128.376L95.5056 128.376L95.5056 128.376C95.5669 128.949 95.6281 129.522 95.6825 130.095C95.7752 131.075 95.86 132.055 95.9281 133.036C95.9385 133.186 95.9497 133.337 95.9609 133.487L95.961 133.488L95.9611 133.49L95.9612 133.491L95.9612 133.492C96.0117 134.168 96.0622 134.847 96.0437 135.522C96.0247 136.215 95.9834 136.907 95.9421 137.6L95.9421 137.6C95.8879 138.509 95.8337 139.417 95.8299 140.325C95.8279 140.794 95.9124 141.261 95.997 141.729C96.0636 142.098 96.1304 142.467 96.1552 142.837C96.1836 143.263 96.1458 143.693 96.1062 144.143L96.1062 144.143L96.1062 144.143L96.1062 144.144L96.1062 144.144L96.1062 144.144C96.0871 144.361 96.0676 144.583 96.0549 144.811ZM50.6347 147.132C51.1534 149.393 52.5747 151.069 54.3972 152.46L54.5488 152.522C55.3434 152.849 56.1078 153.164 56.8876 153.43C57.037 153.481 57.2119 153.453 57.3868 153.426C57.4671 153.413 57.5474 153.4 57.6252 153.395C57.5802 153.346 57.5355 153.297 57.4908 153.248L57.4906 153.248C57.3595 153.104 57.2283 152.961 57.0904 152.824C57.0726 152.806 57.0384 152.809 57.0024 152.812C56.9713 152.814 56.939 152.817 56.9144 152.807C56.7106 152.723 56.4969 152.651 56.283 152.579C55.7936 152.415 55.3037 152.25 54.9317 151.938C54.0241 151.176 53.1964 150.28 52.4726 149.329C51.7572 148.39 51.3925 147.262 51.4598 146.025C51.4842 145.577 51.4973 145.128 51.5103 144.679C51.5288 144.046 51.5473 143.412 51.5976 142.78C51.6359 142.301 51.7086 141.824 51.7813 141.347C51.8455 140.926 51.9096 140.505 51.9502 140.082C52.0389 139.157 52.0943 138.227 52.1497 137.298L52.1497 137.298L52.1497 137.298L52.1497 137.298L52.1497 137.298L52.1497 137.298L52.1497 137.298L52.1497 137.298L52.1497 137.298L52.1497 137.298L52.1497 137.298L52.1497 137.298C52.1629 137.076 52.1762 136.854 52.1898 136.632C52.195 136.548 52.1412 136.43 52.0766 136.38C52.0234 136.338 51.8731 136.338 51.8359 136.381C51.8099 136.412 51.7821 136.443 51.7538 136.475L51.7535 136.475C51.6294 136.613 51.4965 136.762 51.4778 136.919C51.3996 137.575 51.3453 138.234 51.291 138.893C51.2662 139.193 51.2415 139.493 51.2145 139.793C51.2064 139.883 51.1883 139.972 51.1701 140.061C51.1563 140.129 51.1425 140.196 51.1331 140.264C51.0806 140.644 51.024 141.024 50.9674 141.403C50.8305 142.321 50.6936 143.238 50.6154 144.161L50.5972 144.373C50.5174 145.296 50.4342 146.258 50.6347 147.132ZM82.7455 84.0351C83.0801 83.7956 83.4171 83.5617 83.7531 83.3286C85.0917 82.3998 86.4134 81.4827 87.4967 80.2677C88.0678 79.6271 88.5741 78.9255 89.0804 78.224L89.0806 78.2237C89.3034 77.9149 89.5263 77.6061 89.7547 77.3025C89.7801 77.2688 89.8016 77.2288 89.823 77.1892C89.8618 77.1174 89.8999 77.0468 89.9588 77.0163C90.0777 76.9547 90.21 76.9204 90.3424 76.8862C90.3975 76.8719 90.4527 76.8577 90.5068 76.8414C90.4893 76.8974 90.4756 76.9563 90.462 77.0152C90.4326 77.1425 90.4032 77.2697 90.3341 77.3673C90.192 77.568 90.0506 77.7693 89.9092 77.9707C89.3388 78.7834 88.7679 79.5966 88.1461 80.366C87.5855 81.0597 86.9676 81.7306 86.2767 82.2812C85.0776 83.2369 83.8453 84.165 82.5473 84.9688C81.1274 85.8479 79.6372 86.6161 78.138 87.3469C77.3951 87.7091 76.5851 87.662 75.8495 87.1695C73.6255 85.6806 71.457 84.1172 69.6084 82.1398C69.097 81.5927 68.6245 81.0033 68.1774 80.3995C68.1049 80.3017 68.1145 80.1397 68.1241 79.9778C68.1285 79.9033 68.1329 79.8288 68.1293 79.7606C68.1957 79.7734 68.2696 79.7787 68.3435 79.7841C68.5044 79.7957 68.6652 79.8073 68.7482 79.8959C68.9721 80.1349 69.1771 80.393 69.382 80.651C69.6195 80.9502 69.8569 81.2491 70.1234 81.5178C70.8113 82.211 71.5348 82.8733 72.2903 83.4875C73.1964 84.2241 74.1283 84.9273 75.06 85.6303L75.062 85.6318C75.2682 85.7874 75.4744 85.943 75.6802 86.0989C75.8167 86.2022 75.9637 86.291 76.1107 86.3797C76.2636 86.4721 76.4166 86.5644 76.5576 86.6732C77.1458 87.1269 77.6526 86.8296 78.1172 86.5569L78.1174 86.5569C78.2327 86.4892 78.3454 86.4231 78.4561 86.3704C79.558 85.8455 80.6232 85.2393 81.7041 84.6243L81.7043 84.6242L81.7045 84.6241L81.7047 84.624L81.7049 84.6239L81.7071 84.6226L81.71 84.621L81.7124 84.6196C82.0546 84.4249 82.3984 84.2293 82.7455 84.0351ZM130.234 77.6316L130.236 77.629L130.238 77.6262L130.241 77.6233L130.241 77.6232L130.241 77.6232L130.241 77.6231C130.421 77.3957 130.604 77.1642 130.795 76.9259C130.927 76.9108 131.052 76.9091 131.173 76.9074C131.307 76.9056 131.435 76.9038 131.561 76.8843C131.667 76.8678 131.766 76.8057 131.866 76.7436C131.91 76.7158 131.955 76.6879 132 76.6642C131.964 76.6216 131.931 76.572 131.897 76.5224C131.826 76.4152 131.754 76.308 131.656 76.2708C130.738 75.9191 129.118 77.2128 129.167 78.2527C129.171 78.3499 129.226 78.4446 129.281 78.5393C129.306 78.5831 129.331 78.627 129.351 78.6711C129.383 78.6391 129.415 78.6079 129.448 78.5766L129.448 78.5762C129.519 78.508 129.59 78.4398 129.651 78.3635C129.844 78.1231 130.036 77.8814 130.231 77.6349L130.233 77.6322L130.234 77.6319L130.234 77.6316ZM84.2277 60.1689C84.5245 60.2411 84.7903 60.3451 85.0562 60.4491L85.0563 60.4491C85.0161 60.5184 84.9797 60.5916 84.9433 60.6649C84.8648 60.823 84.7864 60.981 84.6694 61.0987C83.236 62.5409 81.4902 63.3834 79.5478 63.802C79.3125 63.8527 79.0502 63.7863 78.7939 63.7214C78.7163 63.7017 78.6393 63.6822 78.5637 63.6661C78.4935 63.6511 78.3879 63.455 78.4006 63.4411C78.4281 63.411 78.4561 63.3779 78.4845 63.3442C78.5887 63.2206 78.6998 63.0888 78.8242 63.0697C80.7711 62.7702 82.4038 61.8513 83.8147 60.4712C83.8814 60.4059 83.9599 60.3535 84.0466 60.2957C84.1038 60.2575 84.1645 60.217 84.2277 60.1689ZM127.671 78.6631C127.962 77.9197 127.727 77.2148 127.46 76.4815C127.39 76.3986 127.322 76.3176 127.256 76.2382L127.254 76.2358L127.253 76.2354L127.253 76.2344L127.252 76.2341L127.252 76.234L127.252 76.2339L127.252 76.2338L127.252 76.2337L127.252 76.2332C127.059 76.004 126.879 75.7886 126.69 75.5814C126.677 75.5679 126.446 75.7221 126.454 75.7393C126.549 75.9723 126.662 76.1988 126.784 76.4193C127.158 77.0957 127.207 77.8307 127.193 78.5863C127.191 78.6916 127.252 78.7981 127.313 78.9045C127.341 78.9536 127.369 79.0027 127.391 79.0517C127.421 79.0111 127.454 78.9717 127.488 78.9324C127.56 78.8473 127.632 78.7621 127.671 78.6631ZM74.4695 34.9689C74.7111 35.0845 74.9477 35.2093 75.1823 35.3331C75.7706 35.6436 76.3466 35.9475 76.958 36.0825L77.0533 36.1036C77.968 36.3064 78.9522 36.5246 79.8715 36.0116C80.1937 35.8317 80.4965 35.6104 80.7901 35.3833C80.9692 35.2447 81.1303 35.0728 81.2711 34.8924C82.3885 33.4608 83.2131 33.6746 84.7518 34.6093C86.7203 35.8052 87.4372 37.8463 88.1304 39.877C88.4766 40.8916 88.6944 41.9556 88.9109 43.0138C88.94 43.156 88.9691 43.298 88.9984 43.4398C89.1415 44.1312 89.2018 44.8442 89.255 45.551C89.3181 46.3893 89.3478 47.2305 89.3775 48.0711L89.3775 48.0715L89.383 48.2259C89.3993 48.686 89.4079 49.1467 89.4165 49.6073V49.6074V49.6075V49.6077V49.6078V49.6079V49.608V49.6081V49.6084C89.4333 50.5058 89.45 51.4031 89.5236 52.2955C89.6362 53.6608 89.4241 54.9766 89.1276 56.282C88.7863 57.7851 87.6744 58.5099 86.3269 58.8476C85.7594 58.9898 85.1669 59.0309 84.5756 59.072L84.5755 59.072L84.5754 59.072L84.5753 59.072L84.5751 59.072L84.575 59.072L84.5749 59.072L84.5748 59.072C84.3708 59.0862 84.1671 59.1003 83.9645 59.1186C81.8782 59.3069 79.8049 59.5723 77.7892 60.1865C77.164 60.3769 76.5667 60.2893 76.0425 59.9311C74.9843 59.2082 73.789 58.9439 72.57 58.7413C70.2968 58.3635 68.1386 57.7262 66.4727 55.9491C66.0329 55.48 65.7508 54.9779 65.7791 54.2714C65.8293 53.0185 65.6534 51.7853 65.4776 50.5535C65.3772 49.85 65.2769 49.1469 65.2188 48.4408C65.0432 46.3059 65.1202 44.1611 65.7553 42.0348C66.4636 39.6633 67.5441 37.5682 69.2585 35.8581C69.7294 35.3884 70.2984 35.0231 70.8678 34.6575C71.1457 34.4791 71.4236 34.3006 71.6903 34.1099L71.7352 34.0778L71.7352 34.0778C72.027 33.8694 72.3216 33.6589 72.5788 33.41C72.9703 33.031 73.208 33.2311 73.4524 33.5796C73.7443 33.9957 74.048 34.4031 74.3712 34.837L74.3712 34.837L74.4695 34.9689ZM87.0996 38.8089C87.067 38.7289 87.0341 38.649 87.0012 38.5691C86.9303 38.397 86.8595 38.2248 86.7912 38.0515C86.141 36.4015 84.992 35.2436 83.4189 34.5473C83.1745 34.4391 82.7492 34.5019 82.5288 34.6619C82.3454 34.7952 82.2166 35.0045 82.0867 35.2156C82.0132 35.335 81.9393 35.455 81.8551 35.562C81.1024 36.5186 80.2199 37.2665 78.9318 37.1486C78.1348 37.0756 77.3294 36.9705 76.5577 36.7626C75.3481 36.4367 74.2466 35.852 73.4642 34.8095L73.3878 34.7076C72.8737 34.0198 72.8674 34.0113 72.1666 34.4947C71.9356 34.654 71.6981 34.8067 71.4605 34.9594C70.8682 35.3401 70.2752 35.7214 69.7805 36.2073C68.1079 37.8505 67.0094 39.8258 66.3503 42.1639C65.7563 44.2712 65.7204 46.3606 65.8178 48.4735C65.8969 50.1894 66.1627 51.9008 66.4279 53.6007L66.4454 53.7132C66.5615 54.4661 66.6809 55.2405 67.3204 55.8233C68.5316 56.9273 69.9668 57.5213 71.5099 57.8373C71.7191 57.8802 71.9284 57.9215 72.1376 57.9627L72.1381 57.9628C73.6097 58.2531 75.0723 58.5415 76.3977 59.3552C76.7069 59.545 77.1749 59.5869 77.5439 59.5275C78.3744 59.3939 79.2016 59.2384 80.0288 59.0828L80.0289 59.0828C80.8861 58.9215 81.7432 58.7603 82.604 58.6236C83.092 58.5461 83.5864 58.5043 84.0804 58.4625C84.7549 58.4055 85.4286 58.3485 86.0839 58.2009C86.9864 57.9975 88.0011 57.683 88.2937 56.5976C88.5781 55.5428 88.8233 54.4459 88.8623 53.359C88.9162 51.8566 88.8545 50.3486 88.7929 48.8427C88.7817 48.5687 88.7706 48.2949 88.7601 48.0212C88.7387 47.4635 88.693 46.9067 88.6473 46.3499V46.3499V46.3498V46.3498V46.3497V46.3497V46.3496V46.3496C88.597 45.7367 88.5468 45.124 88.5289 44.5101C88.4732 42.597 87.8372 40.8431 87.1763 39.0206L87.0996 38.8089ZM85.8403 45.1409C84.7946 44.3012 83.5683 44.1293 82.2205 44.2686C82.0955 44.2916 81.9891 44.3173 81.8908 44.3411L81.8906 44.3411L81.8906 44.3411C81.8081 44.3611 81.7312 44.3797 81.6536 44.3942C80.3799 44.6321 79.2881 45.1664 78.5378 46.3153C78.4591 46.4358 78.165 46.4969 78.0026 46.4551C77.2869 46.2707 76.6225 46.2551 76.0666 46.8499C75.9977 46.9236 75.9337 47.0021 75.8697 47.0806C75.8403 47.1167 75.8108 47.1528 75.7809 47.1885C75.7696 47.1358 75.754 47.0829 75.7385 47.0299C75.7049 46.9156 75.6712 46.8013 75.6806 46.6908C75.7917 45.3765 75.1792 44.5581 74.0638 44.0055C73.0198 43.4883 71.9234 43.378 70.7957 43.3794C69.078 43.3816 67.6151 44.5247 67.0113 46.1965C66.6425 47.2174 66.7425 48.21 67.0605 49.153C67.3709 50.0735 67.7237 51.0574 68.6462 51.5678C68.763 51.6324 68.8806 51.7002 68.9989 51.7684C69.5407 52.0808 70.0985 52.4024 70.6752 52.4733C70.7269 52.4797 70.7789 52.4862 70.8312 52.4928C71.6868 52.6006 72.6044 52.7161 73.4126 52.1227C74.6342 51.2256 75.3006 49.9577 75.6542 48.5188C75.8211 47.8397 76.1582 47.4312 76.7473 47.1598C77.6338 46.7514 78.1899 47.1106 78.2825 48.0541C78.3907 49.1577 78.6271 50.2433 79.2563 51.1887C79.9936 52.2964 80.9948 52.9699 82.2309 53.4384C83.7205 54.0029 84.7909 53.6589 85.871 52.7613C87.8781 51.0932 88.0779 46.9376 85.8403 45.1409ZM81.1785 45.1906C82.0205 44.9325 82.9344 44.849 83.8263 45.0934C84.839 45.1718 85.5041 45.7586 85.9948 46.4713C86.4874 47.1867 86.9341 47.9977 86.9026 48.9251C86.8689 49.9197 86.5049 50.8153 85.8968 51.5979C85.3749 52.2694 84.6952 52.6985 83.8888 52.8825C83.7198 52.9211 83.5296 52.8708 83.3422 52.8212C83.2751 52.8035 83.2084 52.7859 83.1432 52.7724C80.9969 52.3302 79.5602 51.1223 79.1328 48.8319C79.1055 48.6859 79.0709 48.5411 79.0365 48.3966L79.0365 48.3966L79.0364 48.3966L79.0364 48.3965L79.0364 48.3965L79.0364 48.3965L79.0364 48.3964C78.8977 47.8157 78.7606 47.2413 79.1072 46.6209C79.5817 45.7718 80.3862 45.4334 81.1785 45.1906ZM74.9309 46.6868C75.0647 47.8539 74.6972 48.9033 74.1915 49.9177C74.0898 50.0565 74.0025 50.1886 73.92 50.3135C73.7992 50.4962 73.6888 50.6632 73.5591 50.8126C72.8449 51.6349 71.991 51.8933 70.9077 51.6583C70.1484 51.4937 69.4728 51.2917 68.8414 50.7952C68.0808 50.1971 67.7546 49.3718 67.5364 48.5033C67.1887 47.1195 67.6624 45.958 68.6275 44.9645C69.4068 44.1622 70.3923 44.0624 71.377 44.1641C72.3249 44.262 73.2505 44.5038 74.0869 45.0802C74.6864 45.4934 74.8569 46.041 74.9309 46.6868ZM74.6856 41.8565C75.3141 41.8928 75.8358 41.8246 76.3115 41.4299C76.3987 41.3576 76.5815 41.4071 76.7643 41.4565C76.8483 41.4792 76.9322 41.502 77.0069 41.5129C76.9717 41.5546 76.9377 41.5977 76.9036 41.6408C76.8301 41.7339 76.7565 41.827 76.671 41.9065C75.8749 42.6458 74.9989 42.5942 74.0299 42.2862C73.1829 42.0169 72.2935 41.8092 71.412 41.7529C70.0883 41.6685 68.9562 42.1977 68.0709 43.2465C67.9945 43.3371 67.8761 43.3903 67.7578 43.4435C67.7029 43.4682 67.6481 43.4929 67.5974 43.5213C67.6136 43.4478 67.6227 43.3683 67.6318 43.2887C67.6513 43.1173 67.6709 42.946 67.7613 42.8362C69.2385 41.0417 71.162 40.9674 73.1985 41.415C73.4838 41.4777 73.7633 41.5681 74.0547 41.6624L74.0548 41.6624C74.2573 41.7279 74.4656 41.7953 74.6856 41.8565ZM84.435 42.3107C83.2317 42.1212 82.034 42.1425 80.9544 42.9673C80.7969 43.0869 80.6416 43.2013 80.4888 43.3139L80.4886 43.3141L80.4883 43.3143C80.182 43.54 79.8862 43.758 79.6047 43.994C79.5412 44.0472 79.5315 44.1681 79.5217 44.289C79.5172 44.3447 79.5127 44.4003 79.503 44.4494C79.5452 44.4437 79.5896 44.4419 79.6339 44.44C79.732 44.4359 79.8301 44.4318 79.9053 44.387C80.1206 44.2587 80.3163 44.0924 80.5095 43.9283L80.5186 43.9205C81.7166 42.9024 83.0479 42.4914 84.5821 42.9475C85.1153 43.1061 85.6533 43.2521 86.1963 43.3684C86.2844 43.3872 86.386 43.3391 86.4877 43.291C86.5345 43.2688 86.5812 43.2467 86.6267 43.2311C86.5922 43.1934 86.5597 43.1495 86.5272 43.1056C86.4568 43.0103 86.3863 42.9151 86.2947 42.8827C86.1783 42.8415 86.0617 42.7988 85.9451 42.7562C85.4484 42.5745 84.9485 42.3916 84.435 42.3107ZM77.9281 55.5986C77.204 55.6515 76.5102 55.6949 75.8181 55.6745C75.7264 55.6718 75.6379 55.5524 75.5495 55.4331C75.5087 55.378 75.4679 55.3229 75.4268 55.2793C75.48 55.2562 75.533 55.2277 75.586 55.1991C75.7014 55.1368 75.8168 55.0746 75.9348 55.0691C76.5721 55.0393 77.2114 55.0415 77.8497 55.0488C78.0021 55.0506 78.1543 55.0757 78.3064 55.1008L78.3065 55.1008C78.3759 55.1123 78.4454 55.1238 78.5148 55.133C78.3296 55.2776 78.1443 55.4223 77.9281 55.5986ZM81.7565 46.4593C81.3167 46.9614 81.3646 48.0186 81.8808 48.5527C82.9271 48.5844 83.5549 47.5063 83.0676 46.5991C82.7971 46.0955 82.1367 46.025 81.7565 46.4593ZM72.4623 45.792C72.6825 46.4605 72.5385 47.1529 72.0474 47.5259C71.9046 47.6343 71.5429 47.6681 71.4421 47.5671C70.8744 46.9977 70.7792 46.034 71.5916 45.5338C71.9616 45.306 72.2255 45.4116 72.4623 45.792ZM112.487 42.7345C112.806 43.2273 113.128 43.7237 113.564 44.1484C113.592 45.1111 113.601 46.009 113.36 46.8868C113.317 47.0442 113.349 47.1924 113.382 47.342C113.408 47.464 113.579 47.5518 113.679 47.4934C113.808 47.4177 113.936 47.3374 114.057 47.2491C114.139 47.1898 114.22 47.1297 114.301 47.0695C114.645 46.8142 114.989 46.559 115.374 46.367C115.421 46.3436 115.468 46.3205 115.515 46.2974C115.693 46.2094 115.872 46.1214 116.042 46.0187C116.231 45.9049 116.413 45.8889 116.615 45.9597C117.311 46.2038 118.029 46.355 118.747 46.5062C118.862 46.5303 118.977 46.5545 119.091 46.579C119.126 46.5863 119.16 46.5943 119.194 46.6022C119.282 46.6224 119.369 46.6426 119.458 46.6539C119.743 46.6906 120.03 46.7189 120.317 46.7473C120.775 46.7927 121.234 46.8381 121.689 46.9176C121.787 46.9348 121.891 46.9421 121.988 46.9287C122.22 46.8972 122.452 46.8758 122.685 46.8545C123.149 46.8119 123.614 46.7693 124.067 46.6452C124.377 46.5603 124.685 46.4652 124.993 46.3701C125.116 46.3322 125.239 46.2942 125.362 46.2569C125.419 46.2395 125.476 46.2221 125.534 46.2048C125.859 46.1061 126.185 46.0074 126.51 45.9057C126.605 45.8761 126.699 45.8397 126.787 45.7941C126.864 45.7546 126.941 45.7153 127.017 45.676C127.655 45.3499 128.291 45.0242 128.868 44.5826C128.941 44.527 129.015 44.4729 129.088 44.4189C129.319 44.25 129.549 44.0816 129.746 43.8671C129.865 43.7371 129.998 43.6197 130.13 43.5031L130.132 43.5015C130.514 43.1637 130.822 42.7596 131.106 42.3356C131.461 41.8052 131.606 41.1919 131.75 40.5793L131.759 40.5439C131.741 40.3261 131.782 40.1163 131.823 39.9064C131.841 39.8147 131.858 39.7231 131.871 39.6308C132.053 38.3421 131.892 37.1233 131.144 36.0287C131.053 35.8951 130.977 35.75 130.902 35.6049C130.871 35.5456 130.84 35.4864 130.808 35.4279C130.624 35.0903 130.418 34.7692 130.15 34.4951C129.562 33.8965 128.942 33.3454 128.21 32.9304C127.691 32.6358 127.15 32.3958 126.608 32.1553C126.486 32.1009 126.363 32.0466 126.241 31.9915C125.29 31.5642 124.301 31.3265 123.277 31.2195C122.961 31.1866 122.644 31.1696 122.327 31.1527C122.17 31.1442 122.012 31.1358 121.855 31.1254C120.981 31.0674 120.105 31.0475 119.232 31.1193C118.485 31.1806 117.739 31.2537 116.993 31.3267C116.844 31.3413 116.695 31.3559 116.546 31.3704C116.473 31.3774 116.4 31.4065 116.333 31.439C115.983 31.6099 115.622 31.7527 115.261 31.8954C115.064 31.9733 114.867 32.0512 114.672 32.1337C113.822 32.4926 113.093 33.0078 112.576 33.808C112.501 33.9237 112.419 34.0344 112.337 34.145C112.268 34.2387 112.198 34.3324 112.133 34.4291C111.662 35.1308 111.26 35.8686 111.095 36.7158C111.062 36.882 111.043 37.0509 111.024 37.2198C111.011 37.3314 110.998 37.4431 110.982 37.5541C110.898 38.1148 110.894 38.6659 111.004 39.2313C111.192 40.1995 111.58 41.0851 111.977 41.9708C111.988 41.9939 112.002 42.0155 112.017 42.0361C112.181 42.2626 112.334 42.4981 112.487 42.7345ZM114.025 46.3606C114.021 46.3609 114.017 46.3613 114.013 46.3618C114.01 46.3664 114.016 46.373 114.031 46.3812C114.029 46.3743 114.027 46.3674 114.025 46.3606ZM114.086 46.3583C114.065 46.3585 114.044 46.3588 114.025 46.3606C113.983 46.2145 114.006 46.0668 114.046 45.9264C114.144 45.583 114.186 45.2305 114.229 44.878C114.254 44.6699 114.279 44.4617 114.316 44.2555C114.339 44.1258 114.31 43.9933 114.176 43.9296C113.75 43.7273 113.472 43.3601 113.205 42.9892C112.983 42.68 112.772 42.3569 112.6 42.0166C112.439 41.7001 112.32 41.3581 112.211 41.0178C112.071 40.579 111.95 40.1332 111.837 39.686C111.735 39.2858 111.725 38.8727 111.729 38.4611C111.73 38.3719 111.735 38.2825 111.741 38.1931C111.749 38.0769 111.757 37.9607 111.753 37.8448C111.713 36.5802 112.207 35.4982 112.839 34.4637C113.236 33.8137 113.805 33.3388 114.455 33.0022C115.211 32.6104 115.998 32.267 116.834 32.0836C117.616 31.9122 118.403 31.77 119.206 31.7424C119.503 31.7322 119.796 31.7157 120.09 31.6119C120.293 31.5403 120.524 31.5421 120.748 31.5439C120.776 31.5442 120.803 31.5444 120.831 31.5445C121.13 31.5454 121.431 31.566 121.729 31.6C121.755 31.603 121.781 31.606 121.807 31.6089C122.104 31.643 122.399 31.677 122.7 31.681C122.899 31.6838 123.1 31.7287 123.297 31.773C123.32 31.778 123.342 31.783 123.365 31.788C123.889 31.904 124.397 32.0744 124.906 32.2448C125.229 32.3528 125.551 32.4609 125.878 32.5551C126.065 32.649 126.252 32.7425 126.439 32.836C126.858 33.0452 127.277 33.2543 127.694 33.4678C128.506 33.8841 129.152 34.5208 129.798 35.1567L129.866 35.2241C130.311 35.6619 130.575 36.2207 130.772 36.8038C130.959 37.3605 131.09 37.9353 131.129 38.5315C131.195 39.5249 131.028 40.4699 130.686 41.3979C130.329 42.3644 129.752 43.167 128.957 43.7704C127.93 44.55 126.812 45.1811 125.591 45.5944C125.071 45.7707 124.55 45.9466 124.01 46.0625C123.195 46.2371 122.373 46.2519 121.548 46.2609C121.514 46.2612 121.48 46.2596 121.447 46.258C121.405 46.256 121.364 46.254 121.323 46.2556C119.824 46.3131 118.4 45.934 116.992 45.4637C116.858 45.4187 116.722 45.3787 116.586 45.3386C116.506 45.3151 116.426 45.2917 116.347 45.2672C116.193 45.2197 116.048 45.2463 115.918 45.3366C115.666 45.5108 115.397 45.6528 115.127 45.7948C114.819 45.9572 114.51 46.1197 114.228 46.3305C114.193 46.357 114.14 46.3576 114.086 46.3583Z" fill="#00160A"/>
<path fill-rule="evenodd" clip-rule="evenodd" d="M96.1847 87.0591L96.1848 87.059C96.2929 86.9616 96.4031 86.8623 96.5183 86.7639C96.595 86.6603 96.6732 86.5616 96.7497 86.465C96.9355 86.2302 97.1117 86.0075 97.2351 85.7573C97.5412 85.1367 97.3785 84.9131 96.7331 84.6154C96.4389 84.4797 96.1689 84.2902 95.8983 84.1002L95.8983 84.1002C95.7211 83.9759 95.5438 83.8514 95.3592 83.7417L95.3177 83.717C95.068 83.5682 94.7958 83.4059 94.5239 83.3828C93.1012 83.2622 91.8821 85.1908 92.4488 86.5876C93.0346 88.0316 94.2022 88.4685 95.4243 87.6765C95.6919 87.5031 95.9327 87.2861 96.1846 87.0592L96.1847 87.0591ZM92.9646 85.9999C92.9265 85.5129 92.9917 85.0671 93.3376 84.7014C93.4268 84.6313 93.5023 84.5806 93.5686 84.5361C93.6329 84.493 93.6884 84.4557 93.739 84.4124C94.3373 83.9002 94.7213 83.9338 95.3166 84.4307C95.6684 84.7243 96.0878 84.9524 96.5083 85.1322C96.8312 85.2702 96.8643 85.4588 96.6655 85.655C96.539 85.7798 96.4139 85.9083 96.2886 86.0371C95.8471 86.4907 95.4021 86.948 94.8786 87.2607C94.0816 87.7366 93.0411 86.9774 92.9646 85.9999ZM56.7751 86.9225L56.8664 86.8392L56.8664 86.8392C57.3784 86.3722 57.8694 85.9243 58.4186 85.5721C59.0285 85.1809 59.7217 85.3486 60.2582 85.8642C61.0829 86.657 61.63 86.5648 62.1682 85.8883C62.2199 85.8231 62.277 85.7585 62.3429 85.7098C62.4145 85.6569 62.4854 85.5986 62.5567 85.5399L62.5568 85.5399C62.8764 85.2772 63.205 85.0071 63.644 85.1805C64.1853 85.3943 64.4028 85.8994 64.5737 86.4748C64.9629 87.7855 64.1716 88.8987 63.1808 89.4792C62.0423 90.1461 60.8161 90.4064 59.5581 90.5997C58.6543 90.7386 56.913 89.9315 56.5213 89.2742C56.0157 88.4259 56.3241 87.7052 56.7751 86.9225ZM62.0865 89.2706C62.1393 89.2435 62.1923 89.2165 62.2453 89.1896L62.2454 89.1896C63.1768 88.7163 64.1029 88.2457 63.9462 86.8693C63.938 86.7966 63.934 86.7205 63.9301 86.6442C63.9121 86.2983 63.894 85.9494 63.4721 85.9051C63.2036 85.8769 62.8494 86.1081 62.627 86.3236C61.7057 87.2166 60.9416 87.3013 59.9755 86.3652C59.6809 86.0798 59.3508 85.7837 58.7905 86.0115C57.8151 86.408 57.3813 87.2337 57.0484 88.1162C56.8966 88.5187 56.9358 89.0839 57.5229 89.2738C57.6971 89.3302 57.8721 89.3977 58.0474 89.4653C58.4955 89.638 58.9457 89.8115 59.391 89.803C60.0951 89.7895 60.7962 89.6059 61.5294 89.4138C61.7129 89.3658 61.8984 89.3172 62.0865 89.2706ZM82.8073 121.675L82.734 121.83C82.3333 122.678 81.9459 123.498 81.0456 123.859C80.1081 124.235 78.5942 124.359 77.8576 123.397C77.4212 122.827 77.3924 122.07 77.8815 121.529C78.036 121.359 78.1999 121.193 78.364 121.027L78.3641 121.027L78.3642 121.027L78.3642 121.026L78.3643 121.026L78.3644 121.026L78.3644 121.026L78.3645 121.026L78.3646 121.026L78.3646 121.026L78.3647 121.026L78.3648 121.026L78.3649 121.026L78.3649 121.026C78.7816 120.604 79.1993 120.181 79.4664 119.676C79.7218 119.192 79.8358 118.63 79.95 118.068C80.0026 117.809 80.0553 117.549 80.1218 117.297C80.3334 116.496 80.5553 115.685 81.3209 115.24C81.8726 114.919 82.3117 115.127 82.7239 115.644C83.4724 116.581 83.4009 117.641 83.3302 118.69L83.3302 118.69C83.3119 118.962 83.2936 119.233 83.2896 119.501C83.2819 120.024 83.1302 120.544 82.9748 121.076C82.9171 121.274 82.8588 121.473 82.8073 121.675ZM80.9854 117.581C80.9727 117.661 80.9603 117.741 80.948 117.822C80.8155 118.685 80.6818 119.556 80.1119 120.251C79.6799 120.778 79.1919 121.266 78.6791 121.711C78.1949 122.131 78.1115 122.625 78.5473 123.073C79.3146 123.86 81.1751 123.502 81.7171 122.425C82.0391 121.784 82.3126 121.11 82.5291 120.424C82.9297 119.156 82.6815 117.916 82.2264 116.712C82.1576 116.53 81.9638 116.292 81.8128 116.28C81.6709 116.268 81.4732 116.498 81.3645 116.666C81.2076 116.907 81.1089 117.189 80.9854 117.581ZM81.0685 91.0915C80.5022 90.6734 79.9637 90.6667 79.3824 90.8034C78.4307 91.0273 77.4021 92.1671 77.4021 93.3334C77.4021 94.5078 77.9104 95.367 78.8475 95.9211C79.7519 96.4558 80.7038 96.8287 81.8256 96.7233C83.1392 96.5999 84.132 96.0712 84.6692 94.8373C84.781 94.5803 84.7705 94.2672 84.76 93.954C84.7551 93.8106 84.7503 93.6671 84.7573 93.5291C84.6418 93.5296 84.5228 93.5206 84.4038 93.5117C84.1362 93.4915 83.8685 93.4713 83.6406 93.5595C83.216 93.7238 82.9892 93.5729 82.8465 93.2472C82.4522 92.3474 81.8551 91.6722 81.0685 91.0915ZM79.0734 91.7584C79.6206 91.4936 80.6289 91.1989 81.2273 91.7584C81.8256 92.318 82.0523 92.8424 82.2026 93.2009C82.5655 94.0662 83.0757 94.3509 83.9372 94.1126C84.0185 94.0901 84.1057 94.09 84.1928 94.09C84.2332 94.09 84.2735 94.0899 84.3133 94.0877C84.3011 94.1287 84.2901 94.1702 84.2791 94.2118C84.2554 94.3011 84.2318 94.3905 84.1958 94.4742C83.3445 96.4555 80.6085 96.1599 79.3295 95.3235C78.5492 94.8133 78.1058 94.1479 78.1435 93.1781C78.1696 92.5061 78.5103 92.031 79.0734 91.7584ZM84.6602 107.457C84.5146 107.584 84.3768 107.718 84.241 107.85C83.9344 108.148 83.6383 108.436 83.288 108.606C82.5225 108.977 81.7056 108.786 80.9611 108.41C79.7045 107.774 78.9294 106.809 79.007 105.28C79.0624 104.191 79.6952 103.556 80.5498 103.032C81.2705 102.591 81.9742 102.498 82.7278 102.871C83.291 103.149 83.4461 103.689 83.5992 104.222C83.6299 104.329 83.6605 104.436 83.6943 104.54C83.7382 104.675 83.7501 104.822 83.762 104.968C83.7749 105.128 83.7878 105.287 83.8418 105.43C83.92 105.637 84.1101 105.894 84.2992 105.948C85.2307 106.213 85.3234 106.448 84.7369 107.255C84.7211 107.277 84.7133 107.305 84.7039 107.338C84.6943 107.372 84.6831 107.412 84.6602 107.457ZM83.4558 107.551C83.4826 107.537 83.5105 107.524 83.5384 107.512C83.5985 107.484 83.6586 107.457 83.7077 107.415C84.2962 106.921 84.2944 106.92 83.7285 106.416L83.6988 106.389C83.5332 106.242 83.3992 106.009 83.3425 105.79C83.284 105.563 83.2437 105.331 83.2036 105.098C83.1384 104.722 83.0735 104.347 82.9316 104.004C82.8057 103.7 82.3987 103.391 82.0737 103.328C81.4095 103.2 79.9444 104.417 79.8856 105.112C79.8064 106.05 80.0804 106.849 80.9273 107.373C81.7221 107.866 82.5142 108.151 83.4558 107.551ZM49.5421 95.7085C50.9041 94.8097 51.776 93.6169 51.9577 91.8742C51.9577 91.7197 51.9628 91.5707 51.9678 91.4262C51.9784 91.1166 51.9884 90.8271 51.9458 90.5461C51.8533 89.9362 51.6579 89.3431 50.8391 89.4794C50.4385 89.5462 50.027 89.7352 49.6899 89.9729C48.9924 90.4646 48.757 91.2781 48.5331 92.0518L48.513 92.1212C48.1813 93.2646 47.6666 94.0692 46.348 94.0685C46.1182 94.0684 45.7444 94.5121 45.6857 94.8036C45.5259 95.5978 46.2965 96.4124 47.1249 96.445C48.0125 96.4798 48.7903 96.2046 49.5421 95.7085ZM47.7867 95.7587C47.7149 95.7747 47.6432 95.7907 47.5726 95.8095C46.9762 95.8777 46.6918 95.5571 46.4175 95.2478L46.4175 95.2478C46.3959 95.2235 46.3744 95.1993 46.3529 95.1753C46.3088 95.1264 46.3322 94.927 46.3871 94.8861L46.4269 94.8563C46.6 94.7266 46.7881 94.5857 46.9866 94.551C47.9897 94.3754 48.5448 93.7754 48.8918 92.8004C49.1839 91.9796 49.6232 91.1998 50.0959 90.4692C50.2469 90.2356 50.7195 90.1241 51.0316 90.1473C51.1534 90.1564 51.3205 90.6881 51.327 90.985C51.3782 93.3299 50.1102 94.79 48.2387 95.6263C48.0963 95.6899 47.9415 95.7243 47.7867 95.7587ZM50.4445 101.364C50.6878 100.607 51.2172 100.122 51.7395 99.6444L51.7395 99.6443C51.9242 99.4753 52.108 99.3071 52.2779 99.128C52.615 98.7727 53.3916 99.2382 53.5637 99.8404C53.6356 100.092 53.7057 100.344 53.7758 100.596C53.9524 101.232 54.1291 101.867 54.3341 102.493C54.5119 103.035 54.4383 103.46 54.0601 103.884C53.7735 104.206 53.5145 104.574 53.3257 104.963C52.8617 105.92 52.1788 106.159 51.143 105.325C49.7748 104.225 49.9568 102.842 50.4445 101.364ZM53.6869 102.727L53.4566 102.135C53.245 101.591 53.0333 101.047 52.8229 100.502C52.7797 100.39 52.7403 100.277 52.7008 100.164C52.6827 100.112 52.6645 100.06 52.646 100.008C52.5926 100.034 52.5375 100.058 52.4823 100.082C52.3627 100.133 52.2431 100.185 52.1414 100.261C51.387 100.829 51.0303 101.675 50.8722 102.558C50.7463 103.262 50.7162 104.063 51.2599 104.646C51.5095 104.913 51.9076 105.073 52.2667 105.165C52.3216 105.18 52.4198 105.004 52.5241 104.817C52.5831 104.711 52.6441 104.602 52.7003 104.522C52.7955 104.386 52.8942 104.253 52.993 104.12C53.1552 103.901 53.3173 103.683 53.4635 103.453C53.5632 103.297 53.6056 103.101 53.6653 102.827L53.6869 102.727ZM67.6054 99.0417C66.3613 98.5579 65.1219 98.8503 65.0509 100.506C65.126 100.684 65.1954 100.861 65.2638 101.036L65.2638 101.036L65.2638 101.036L65.2638 101.036L65.2638 101.036L65.2639 101.036L65.2639 101.036L65.2639 101.036C65.458 101.532 65.6444 102.009 65.9319 102.408C66.9692 103.85 68.2814 104.284 69.7407 103.683C70.6685 103.301 70.6726 102.429 70.0514 101.881C69.4676 101.367 68.965 100.788 68.656 100.009C68.4939 99.6004 68.0242 99.2045 67.6054 99.0417ZM68.8439 103.056C68.1731 103.181 67.4976 103.308 66.9656 102.664C66.3044 101.996 65.8476 101.317 65.7887 100.417C65.765 100.055 65.9043 99.8584 66.234 99.7236C66.6969 99.5342 67.7622 99.7654 67.865 100.235C68.0105 100.901 68.3941 101.383 68.778 101.866L68.778 101.866C68.9296 102.057 69.0813 102.247 69.2184 102.449C69.2981 102.567 69.383 102.78 69.3323 102.866C69.2702 102.971 69.0721 103.013 68.9253 103.041L68.8439 103.056ZM64.5569 115.994C64.5816 115.84 64.5963 115.685 64.6107 115.534C64.6444 115.181 64.6761 114.849 64.828 114.591C65.2215 113.924 65.1296 113.35 64.807 112.733C64.7753 112.672 64.758 112.604 64.7407 112.535C64.7239 112.469 64.7072 112.403 64.6776 112.344C64.4154 111.82 64.5384 111.306 64.9963 111.088C65.3183 110.934 65.8567 110.982 66.1818 111.163C67.2385 111.749 67.7177 112.788 67.8807 113.961C68.023 114.985 67.7996 115.98 67.3941 116.92C66.871 118.132 65.8147 117.978 65.141 117.259C64.9294 117.034 64.8158 116.711 64.6955 116.37L64.6955 116.37L64.6955 116.37L64.6955 116.37L64.6955 116.37L64.6955 116.37L64.6954 116.369L64.6954 116.369C64.6518 116.246 64.6073 116.119 64.5569 115.994ZM66.6568 112.63C66.5937 112.565 66.5318 112.499 66.4698 112.433C66.3173 112.27 66.1647 112.107 65.9956 111.965C65.9241 111.904 65.8209 111.884 65.7176 111.864C65.6708 111.855 65.6239 111.845 65.58 111.832C65.5696 111.883 65.5513 111.938 65.5331 111.993L65.533 111.993L65.533 111.993L65.533 111.993L65.533 111.993L65.533 111.993L65.533 111.993L65.533 111.993C65.4935 112.112 65.454 112.231 65.494 112.303C65.9373 113.107 65.8363 113.847 65.3719 114.604C65.274 114.764 65.2382 114.963 65.2023 115.163C65.1845 115.262 65.1667 115.361 65.1414 115.455C65.0034 115.969 65.3712 116.945 65.8396 117.094L65.8795 117.106C66.1292 117.187 66.4658 117.296 66.6643 116.867C67.3033 115.488 67.5154 114.126 66.6568 112.63ZM103.016 99.4669C103.811 99.8259 105.147 99.706 106.153 98.57C106.227 98.4525 106.301 98.3378 106.375 98.2246L106.375 98.2245C106.603 97.8711 106.821 97.5332 107.006 97.177C107.468 96.286 106.667 94.9136 105.678 94.9341C105.397 94.9399 105.117 94.9947 104.837 95.0495C104.576 95.1005 104.316 95.1516 104.054 95.1632C103.259 95.1985 102.63 95.4881 102.186 96.1732C101.42 97.3576 101.708 98.8758 103.016 99.4669ZM104.276 96.0654C104.315 96.0643 104.354 96.0633 104.393 96.0633C104.486 96.0472 104.575 96.0362 104.658 96.026C104.885 95.998 105.068 95.9753 105.171 95.8698C105.51 95.5238 105.804 95.6843 106.065 95.8948C106.347 96.1225 106.503 96.4019 106.367 96.8461C106.047 97.8942 105.47 98.667 104.415 98.9458C103.824 99.102 103.27 98.9519 102.861 98.4259C102.49 97.9506 102.434 97.4471 102.707 96.9086C102.983 96.3635 103.37 95.9955 104.022 96.0615C104.106 96.07 104.191 96.0677 104.276 96.0654ZM88.9834 97.555C89.7627 97.0257 90.5052 96.992 91.2128 97.5922C91.4132 97.7621 91.5896 97.9803 91.7235 98.2093C91.7824 98.3101 91.8175 98.429 91.8522 98.5468C91.8971 98.6987 91.9414 98.8487 92.0354 98.9552C92.454 99.4296 92.1922 99.8549 91.8502 100.029C90.9863 100.468 90.0748 100.826 89.1535 101.121C88.6686 101.277 88.0208 100.688 87.9031 100.124C87.6449 98.889 88.1323 98.074 88.9834 97.555ZM91.1141 99.3001C91.0541 99.2164 90.9949 99.1319 90.9357 99.0475C90.7918 98.8423 90.6478 98.637 90.4925 98.4413L90.4787 98.4239C90.3743 98.292 90.2406 98.123 90.1065 98.108C89.1018 97.9955 88.2409 99.1884 88.6508 100.121C88.7715 100.395 89.0189 100.69 89.3123 100.368C89.7179 99.9226 90.2192 99.8318 90.7494 99.7357L90.7854 99.7292C90.932 99.7026 91.0466 99.4905 91.1141 99.3001ZM86.8978 125.352C86.8772 125.455 86.8555 125.562 86.8218 125.674C86.827 125.756 86.8486 125.829 86.869 125.899C86.889 125.967 86.9079 126.032 86.9093 126.097C86.9441 127.664 88.9372 128.876 90.1809 128.69C91.0502 128.561 91.5261 128.236 91.6512 127.414C91.7624 126.682 91.5878 125.881 91.0299 125.414C90.3873 124.875 89.6117 124.47 88.8406 124.137C87.925 123.742 87.3469 124.058 86.9879 125.002C86.9462 125.112 86.9227 125.228 86.8978 125.352ZM87.8101 125.072L87.8101 125.072C87.8646 124.966 87.9191 124.86 87.9643 124.754C88.0755 124.781 88.1862 124.807 88.2962 124.832C89.3264 125.073 90.2825 125.297 90.7416 126.35C90.9594 126.85 91.2074 127.45 90.6102 127.839C90.322 128.026 89.8822 128.084 89.5337 128.035C88.667 127.911 87.4354 126.951 87.549 125.774C87.5723 125.533 87.6912 125.302 87.8101 125.072ZM88.3966 109.52C89.4018 109.617 90.1991 110.073 90.3647 111.162C90.4233 111.548 90.6604 111.599 90.9212 111.655L90.9213 111.655C90.9593 111.663 90.9977 111.671 91.0361 111.681C91.6134 111.823 92.0719 112.311 91.9812 113.082C91.9154 113.641 91.636 113.869 90.8572 113.824C90.3361 113.794 89.7893 113.737 89.3091 113.546C87.7548 112.927 87.3093 111.613 87.419 110.222C87.4601 109.7 87.8353 109.488 88.3966 109.52ZM90.6818 112.312C90.0153 112.355 89.6971 111.945 89.6452 111.348C89.5904 110.716 89.1506 110.515 88.7171 110.316L88.6674 110.293C88.3577 110.15 87.9929 110.521 88.0438 110.871C88.2338 112.177 89.6816 113.311 90.9795 113.209C91.4588 113.171 91.3979 112.917 91.2251 112.658C91.1684 112.573 91.065 112.521 90.9422 112.459C90.8613 112.419 90.7718 112.374 90.6818 112.312ZM75.921 134.147C75.9359 133.98 75.9369 133.81 75.9379 133.644C75.9401 133.278 75.9421 132.933 76.0937 132.685C76.4636 132.078 76.9096 131.52 77.3555 130.963C77.5371 130.735 77.7187 130.508 77.8952 130.278C78.1987 129.882 78.6695 129.652 79.0534 129.866C79.4434 130.084 79.8219 130.527 79.9706 130.957C80.3239 131.98 79.8783 132.859 79.2118 133.609C79.0228 133.822 78.8085 134.01 78.5941 134.199L78.5941 134.199C78.4251 134.348 78.256 134.497 78.0991 134.658C77.2283 135.55 76.4521 135.134 75.921 134.147ZM78.0827 133.893C78.9725 133.292 79.5467 132.511 79.509 131.353C79.4958 130.948 79.3482 130.678 78.9909 130.507C78.6154 130.327 78.3594 130.569 78.2438 130.83C77.9519 131.489 77.5349 132.052 77.1171 132.615C76.9725 132.811 76.8278 133.006 76.6882 133.205C76.5461 133.408 76.6338 133.898 76.7775 134.165C76.9447 134.475 77.2794 134.423 77.5622 134.184C77.6312 134.126 77.7145 134.086 77.8107 134.04L77.8108 134.04C77.8925 134 77.9834 133.956 78.0827 133.893ZM72.941 126.566C73.3259 125.648 73.3841 124.664 73.1725 123.643C73.1549 123.625 73.1413 123.612 73.1307 123.602C73.1139 123.586 73.1046 123.577 73.0986 123.566C72.6719 122.785 72.2253 122.436 71.7238 122.607C71.0891 122.823 70.8525 123.311 70.83 124.019C70.8139 124.524 70.6189 124.97 69.958 125.168C68.977 125.462 69.0477 126.366 69.6529 126.855C69.884 127.041 70.1781 127.149 70.4691 127.256C70.5606 127.29 70.6519 127.323 70.7407 127.359C71.2973 127.584 72.6663 127.22 72.941 126.566ZM72.5096 124.056C72.5343 124.099 72.5591 124.142 72.5858 124.182C72.5858 124.409 72.6001 124.628 72.6138 124.838C72.6425 125.277 72.6686 125.676 72.5554 126.027C72.2654 126.927 70.5422 127.088 69.9926 126.308C69.9338 126.225 70.0975 125.817 70.2101 125.79C71.1212 125.572 71.4593 124.966 71.4906 124.061C71.4973 123.865 71.6809 123.63 71.8486 123.508C71.9116 123.462 72.1773 123.667 72.3199 123.794C72.3981 123.863 72.4538 123.96 72.5096 124.056Z" fill="#FFB61D"/>
</svg>
