<svg width="144" height="119" viewBox="0 0 144 119" fill="none" xmlns="http://www.w3.org/2000/svg">
<path fill-rule="evenodd" clip-rule="evenodd" d="M82.5571 118.811C99.6503 118.811 114.651 105.744 106.226 87.9945C97.8023 70.2454 129.104 70.8187 138.298 58.5517C149.511 43.5915 146.264 -19.9119 74.2793 18.8029C62.7482 25.0045 33.1337 12.4228 23.3105 18.6657C11.7475 26.0141 -4.52087 41.0612 11.7475 56.4749C19.761 64.0674 -8.96924 83.774 3.61404 101.426C15.8922 118.65 24.4989 102.23 43.1922 105.744C61.8855 109.257 69.8622 118.811 82.5571 118.811Z" fill="#FFD600" fill-opacity="0.57"/>
<path d="M62.717 87.933C62.717 87.933 66.6528 86.0303 68.1221 84.7065C69.5915 83.3827 71.4182 80.094 71.4182 80.094C71.4182 80.094 91.4837 94.9871 104.567 92.8626C107.582 92.3731 113.455 90.3138 113.83 86.6855C114.853 76.7778 100.701 74.2459 103.792 69.2215C105.679 66.1547 111.541 70.7191 111.541 70.7191L135.853 83.0094C135.853 83.0094 127.454 104.288 107.071 105.141C81.9974 106.19 62.717 87.933 62.717 87.933Z" fill="white"/>
<path fill-rule="evenodd" clip-rule="evenodd" d="M43.4414 4.60139C43.2133 4.50932 41.9878 2.96718 40.432 2.68651C39.7251 2.55896 40.3667 3.48414 39.5886 3.49246C37.2714 3.51726 33.5055 3.06983 32.8079 3.49246C32.2894 3.80557 33.4313 4.89942 32.8079 4.94964C26.9264 5.42343 17.9538 11.4588 16.0071 14.3868C15.3875 15.3187 20.3982 13.7377 19.5998 14.1984C18.7038 14.7154 17.71 18.101 17.1159 20.7158C16.7045 22.5164 16.4455 24.8337 16.3541 27.3546C16.2779 29.531 16.3084 29.8911 16.6131 31.0811C16.9635 32.412 17.2377 32.8034 17.71 32.6156C17.8776 32.5529 17.9538 32.3181 17.9538 31.8796C17.9538 31.5352 18.1366 30.5018 18.3651 29.578L18.7612 27.9183L18.9288 28.6072C19.1421 29.4058 20.3914 31.8797 21.5188 33.6803C21.5796 33.7758 21.8412 33.6543 22.0771 33.0683C22.2921 32.5343 22.2048 31.6812 22.57 30.7668C23.4018 28.6841 25.0352 25.9763 26.9264 23.8087C29.7215 20.6053 30.6489 16.8979 33.269 13.9219C38.1587 8.36803 44.2956 4.94604 43.4414 4.60139Z" fill="white"/>
<path fill-rule="evenodd" clip-rule="evenodd" d="M19.6694 14.954C18.8851 15.6023 17.7208 20.8602 17.7008 20.9481C17.2894 22.7488 16.8929 29.0017 17.2982 30.1855C17.7035 31.3694 18.8385 27.1018 18.8385 27.1018C18.8385 27.1018 20.5539 31.6798 22.0696 32.9349C22.1343 32.9885 20.2679 27.2711 19.6694 23.9333C18.8794 19.5274 20.1159 14.5851 19.6694 14.954Z" fill="#E7EAEE"/>
<path fill-rule="evenodd" clip-rule="evenodd" d="M48.9052 107.04C50.3678 106.711 52.8355 105.566 53.7804 105.174C54.7253 104.783 57.6044 100.604 58.6404 95.8915C59.3869 92.4155 59.7678 87.4677 59.3412 86.6379C59.2782 86.5201 59.0477 84.2702 59.6612 85.0048C61.0248 86.6379 62.6434 89.2015 67.7508 84.6077C69.1418 83.3564 70.9856 81.7417 70.5001 80.3141C69.1418 76.3198 63.2538 68.277 62.3562 67.6677C61.283 66.9393 55.8584 67.5583 47.7855 65.1095C38.6303 62.3323 34.8181 54.1545 31.2353 55.219C28.338 56.0799 21.3961 61.3704 19.6539 64.7207C11.429 80.5374 21.3961 91.6203 23.666 94.8036L25.8699 95.7819L25.946 97.8017L26.0527 99.07C26.2507 101.497 26.3269 101.716 27.3934 102.53C30.0595 104.613 35.3156 106.554 40.0689 107.243C42.278 107.556 47.077 107.447 48.9052 107.04Z" fill="white"/>
<path fill-rule="evenodd" clip-rule="evenodd" d="M26.7367 97.0623L26.8434 98.3306C27.0414 100.758 27.1176 100.977 28.184 101.791C29.7569 103.019 32.2311 104.199 34.9717 105.101C36.8767 105.728 38.9104 106.221 40.8596 106.504C43.0687 106.817 47.8677 106.707 49.6959 106.3C50.5996 106.099 43.1665 100.097 38.7876 101.791C35.4248 103.091 27.4988 93.1714 30.7214 90.5798C34.3365 87.6726 27.7121 76.2059 27.4988 73.7164C27.2855 71.227 26.4456 70.6322 26.4211 70.7195C26.3965 70.8068 26.3965 71.1047 26.4625 71.8223C26.7467 74.9157 26.7367 97.0623 26.7367 97.0623Z" fill="#E7EAEE"/>
<path fill-rule="evenodd" clip-rule="evenodd" d="M25.943 73.0059C26.2628 72.9419 26.5726 73.1565 26.6348 73.4853C27.7846 79.5564 32.6483 83.6666 41.3452 85.8158C50.0939 87.9779 56.053 87.8612 59.1929 85.5535C59.458 85.3587 59.2604 87.027 59.0662 87.1549C57.0183 88.5046 50.0556 90.5184 41.7465 88.6983C31.1226 86.371 26.1343 77.19 25.4766 73.717C25.4143 73.3882 25.6231 73.0699 25.943 73.0059Z" fill="#FFB61D"/>
<path fill-rule="evenodd" clip-rule="evenodd" d="M21.5127 62.0521C21.7955 61.8858 32.3475 74.3146 46.8283 77.128C61.3092 79.9413 64.8153 78.152 65.3789 74.3146C65.4275 73.9835 65.7281 73.7556 66.0503 73.8056C66.3725 73.8555 66.5943 74.1645 66.5457 74.4956C65.8314 79.359 59.1308 80.5158 46.6298 78.3234C34.2859 76.1586 25.8229 71.0151 21.2936 62.8795C21.1318 62.5888 21.2298 62.2184 21.5127 62.0521Z" fill="#FFB61D"/>
<path fill-rule="evenodd" clip-rule="evenodd" d="M82.2914 61.3628C81.8952 61.2219 81.4687 60.9088 81.1944 60.5487L80.7374 59.9693L82.3523 58.3253C84.8356 55.8201 86.74 53.2522 88.3854 50.199C88.9338 49.1813 90.3202 45.7836 90.3202 45.4548C90.3202 45.3452 90.4878 44.9068 90.6858 44.4527C90.9905 43.7951 91.2191 43.5446 91.8742 43.1688C92.6512 42.6991 93.5348 42.5425 93.9157 42.8087C94.6469 43.3097 94.6469 44.8911 93.9157 47.6155C93.1082 50.6061 92.0265 52.7512 89.787 55.8357C89.4366 56.3055 88.7815 57.2293 88.3092 57.8712C87.0447 59.5935 86.222 60.4234 85.1098 61.0654C84.0129 61.6917 83.373 61.7699 82.2914 61.3628ZM93.23 59.9537L94.327 60.4547C94.5544 60.5626 97.0636 61.8017 100.078 63.2901C104.937 65.6898 111.109 68.7376 111.146 68.7376C111.207 68.7376 111.493 68.0582 111.558 67.2658C111.71 65.5591 112.274 63.2418 112.929 61.629C113.234 60.9088 113.477 60.0086 113.477 59.9303C113.477 59.8946 113.23 59.7919 112.824 59.6238C112.342 59.4238 111.635 59.131 110.857 58.7481C107.018 56.8535 99.5069 52.9861 98.5775 52.4067C97.6634 51.8587 97.4806 51.8117 97.4806 52.1719C97.4806 52.6416 96.5513 54.818 95.8352 55.9923C95.4543 56.6343 94.7078 57.7929 94.1746 58.5602L93.23 59.9537ZM110.887 65.9193C111.324 66.1796 110.568 66.5613 110.385 66.6239C109.308 66.7179 108.041 66.5098 107.003 65.888C106.46 65.4923 102.185 63.0515 99.3488 61.4323C98.0524 60.6921 97.0568 60.1236 96.856 60.0008C96.2162 59.6093 95.6068 59.1866 95.5001 59.0613C95.1802 58.6386 95.4849 58.4507 96.3837 58.529C96.9241 58.576 109.944 65.3572 110.887 65.9193ZM48.9571 106.911C50.1323 106.647 51.9566 105.855 53.1183 105.351L53.1195 105.351C53.403 105.228 53.6469 105.122 53.8323 105.045C54.7772 104.654 57.6563 100.476 58.6923 95.7626C59.4388 92.2866 59.8196 87.3388 59.3931 86.5089C59.1359 86.0283 60.6639 87.6406 61.8018 88.8413C62.1468 89.2053 62.4559 89.5315 62.6686 89.7501C69.3111 96.5298 79.1986 101.979 89.467 104.531C94.5859 105.815 98.2271 106.269 103.118 106.269C111.329 106.269 117.804 104.609 123.685 100.961C123.964 100.788 124.226 100.628 124.475 100.477C126.525 99.2292 127.747 98.4861 131.089 94.6196C134.838 90.2824 138.173 80.2146 139.285 76.7386C139.773 75.1729 140.961 68.9452 140.961 67.391C140.961 65.5511 140.337 64.6823 139.484 63.7898C137.975 62.271 135.934 61.723 134.243 62.3806L133.45 62.6938L133.207 61.8639C132.856 60.6113 132.125 59.6092 130.998 58.8577C129.322 57.7147 129.078 57.6364 127.57 57.6364C126.397 57.6364 126.077 57.699 125.33 58.0591L124.462 58.4662L124.279 57.9026C123.929 56.7439 122.753 55.1287 121.841 54.6614C121.033 54.247 119.633 54.2091 118.657 54.3953C116.524 54.8024 115.001 55.8201 114.376 57.2449C114.193 57.6833 113.965 58.0278 113.873 58.0278C113.797 58.0278 110.796 57.1664 107.216 55.538C106.612 55.2624 106.045 55.004 105.512 54.7613C99.0826 51.8326 97.6891 51.1978 97.8158 50.4026C97.9224 49.7293 97.8919 49.3535 97.7091 48.7742C97.3892 47.8034 97.0235 47.5372 95.9876 47.5372C95.1649 47.5372 95.1649 47.5372 95.2563 47.1145C95.7438 44.7189 95.7286 43.341 95.2106 42.4642C94.8602 41.8849 94.4488 41.65 93.5042 41.5091C92.9558 41.4308 92.6968 41.4778 92.0874 41.8222C91.676 42.0414 91.3256 42.198 91.2952 42.1667C91.2647 42.1354 91.3714 41.2742 91.5389 40.2565C92.7882 32.7252 91.8231 26.2362 88.639 19.3469C88.6203 19.3066 88.5999 19.2619 88.5776 19.2129L88.5327 19.1138C87.5647 16.9779 83.6724 8.38966 72.5409 4.05615C72.037 3.86 71.5602 3.67033 71.102 3.48806C67.3102 1.97964 64.7895 0.976857 58.7075 0.987263C51.8905 0.998927 49.5817 1.98935 45.0874 4.10312C44.4628 4.40061 43.9143 4.57285 43.8686 4.51022C43.8229 4.43193 43.5334 4.24404 43.244 4.08746C42.9545 3.93089 42.3299 3.53945 41.8728 3.2263C40.5626 2.31816 39.7551 1.94238 39.3438 2.03632C38.8715 2.16158 38.8715 2.56868 39.3438 2.75657C39.5418 2.83486 39.7704 3.10104 39.8618 3.36721C40.0598 3.93089 40.2884 3.99352 40.4255 3.52379C40.4864 3.35156 40.5778 3.2263 40.6235 3.25761C40.6409 3.26652 40.6989 3.29443 40.7874 3.33702C41.0101 3.44416 41.4258 3.64418 41.8728 3.86826C42.4974 4.18141 43.183 4.51022 43.3658 4.58851C43.701 4.71377 43.5944 4.80771 42.147 5.68454C36.4948 9.09789 31.8939 14.4058 29.3192 20.4496C28.923 21.3578 28.5726 21.9214 28.207 22.2346C27.2777 23.0331 25.4495 25.3035 25.0229 26.196C24.7944 26.6813 24.3068 27.4329 23.926 27.8713C23.5603 28.3097 23.1642 28.8734 23.0271 29.1083C22.9052 29.3588 22.7833 29.531 22.7376 29.4997C22.7072 29.4527 22.7529 28.6855 22.8595 27.793C23.088 25.7106 23.088 25.1626 22.9052 25.1156C22.631 25.0373 22.2349 26.1333 22.0673 27.4955C21.9454 28.3254 21.9149 29.578 21.9911 30.8619L22.0825 32.8974L21.0008 31.0968C20.6282 30.4937 20.2614 29.8906 20.0011 29.4628L20.001 29.4626C19.8357 29.1908 19.7134 28.9899 19.6602 28.9047C19.2641 28.3097 19.0355 27.4173 19.2031 27.1198C19.2945 26.9475 19.2793 26.8692 19.1269 26.8692C18.807 26.8692 18.1824 27.9183 17.771 29.1239C17.573 29.6876 17.3749 30.1573 17.314 30.1573C17.0854 30.1573 17.1921 24.5519 17.4358 22.7513C17.9386 19.197 19.2641 14.8129 19.8582 14.8129C19.9801 14.8129 20.0867 14.7503 20.0867 14.6563C20.0867 14.3745 19.6906 14.4841 19.3707 14.8442C18.6546 15.6428 17.7101 18.101 17.1159 20.7158C16.7046 22.5164 16.4456 24.8338 16.3542 27.3546C16.278 29.531 16.3085 29.8911 16.6132 31.0811C16.9636 32.412 17.2378 32.8035 17.7101 32.6156C17.8777 32.5529 17.9538 32.3181 17.9538 31.8797C17.9538 31.5352 18.1367 30.5018 18.3652 29.578L18.7613 27.9183L18.9289 28.6072C19.1422 29.4058 20.3914 31.8797 21.5188 33.6803C22.2958 34.9016 22.3111 34.9799 22.57 36.8901C22.7072 37.9705 23.1337 40.5983 24.124 44.6406C24.999 48.2122 29.9178 51.7553 31.146 52.6399C31.3079 52.7565 31.4056 52.8269 31.4216 52.8452C31.5739 53.0174 31.7872 53.1113 31.9091 53.0644C32.0462 53.0174 32.1224 53.08 32.1224 53.2523C32.1224 53.4088 32.229 53.6124 32.3509 53.7063C32.5033 53.8159 32.6099 54.2387 32.6404 54.9746C32.7166 56.4464 33.783 59.2648 34.6057 60.1886C35.1389 60.7835 36.2511 61.0341 37.4851 60.8149C38.2926 60.6896 38.5211 60.5957 38.4449 60.4078C38.3992 60.2825 38.6887 60.4391 39.0848 60.7522C43.7162 64.3848 48.4086 66.5612 53.6799 67.5006C55.7214 67.8608 59.1036 68.0643 60.947 67.9234H60.9471C62.1244 67.8442 62.4514 67.8223 62.5135 67.94C62.5374 67.9853 62.5222 68.0513 62.501 68.1426C62.3944 68.581 62.5315 68.8472 64.771 72.7459C66.5535 75.8305 66.7059 76.034 68.6864 78.1165C72.8913 82.5789 77.477 86.0392 82.6722 88.7167C87.5626 91.2219 95.3705 93.3043 102.508 93.962C109.646 94.6196 114.772 87.8868 114.757 86.1645C114.727 83.8002 114.407 82.2501 113.63 80.747C112.868 79.2908 112.365 78.7898 110.08 77.224C107.536 75.486 105.966 74.0612 104.931 72.5424C104.275 71.5873 104.032 70.5069 104.032 69.9276C104.032 69.5518 104.504 68.7063 105.205 68.534C105.845 68.3618 105.966 68.3775 106.683 68.7376C107.109 68.9411 108.221 69.4735 109.135 69.9276C110.065 70.366 110.964 70.8044 111.146 70.8983C111.685 71.0522 111.913 72.1365 112.037 72.7242L112.037 72.7245L112.037 72.7257L112.037 72.7259C112.065 72.8564 112.087 72.9623 112.106 73.0278C112.319 73.842 113.329 74.8932 113.98 75.2511C115.124 75.8797 117.941 75.9637 118.718 75.1025C118.917 74.8833 119.573 74.6138 119.708 74.6954C119.844 74.7771 120.333 75.4547 120.333 76.0027C120.348 76.9422 120.821 77.8033 121.826 78.6645C123.731 80.2929 125.208 80.6843 126.701 79.9641C127.478 79.5883 128.115 79.4415 128.115 79.4415C128.115 79.4415 128.75 80.2744 128.789 80.5591C129.088 82.7837 132.292 83.7163 133.146 83.8102C133.341 83.8304 133.722 83.7444 134.108 83.6571L134.108 83.657C134.625 83.5403 135.153 83.4211 135.263 83.5497C135.481 83.802 131.622 90.3607 131.089 91.1906C126.016 99.0194 116.143 103.811 104.062 104.312C96.2161 104.64 86.5723 102.386 78.2083 98.2834C72.8608 95.6373 68.1227 92.3962 63.0495 87.8555C62.1658 87.0726 61.1451 86.1801 60.7794 85.867C60.4138 85.5695 59.5454 84.5518 58.8751 83.6123C57.7477 82.0465 57.1078 81.4829 57.1078 82.0152C57.1078 82.2501 57.8391 83.6906 58.677 85.1154C59.0122 85.6791 59.2255 86.0705 59.1493 86.0079C59.0731 85.9453 58.8294 87.0726 58.6008 88.5131C57.8543 93.1321 56.6203 97.6885 55.371 100.522C54.6854 102.057 53.3709 103.203 52.9748 103.516C51.5122 104.659 49.3227 105.173 46.291 105.486C42.4517 105.877 36.7995 105.001 32.488 103.341C31.3454 102.902 28.4051 101.634 28.207 101.493C28.1951 101.481 28.1276 101.031 28.0334 100.402C28.0069 100.225 27.9782 100.033 27.948 99.8335C27.3995 95.9661 26.6378 81.0758 26.6378 74.1864C26.6378 71.3368 26.6073 70.7105 26.4245 70.7105C26.0436 70.7105 25.8913 71.0862 25.7237 72.4328C25.3428 75.5017 25.419 91.5194 25.8303 94.8858L25.9217 95.653L25.4038 95.3555C24.6115 94.8857 21.595 91.7386 20.5438 90.2824C19.6538 89.0375 19.1249 87.4432 18.7292 86.2503L18.7291 86.2501L18.729 86.2498C18.637 85.9726 18.5523 85.7171 18.4718 85.4927C16.2628 79.1983 17.0397 72.1353 20.0867 65.7783C22.6767 60.3608 25.8608 57.3545 30.5227 55.8984C31.2845 55.6635 31.9548 55.413 32.031 55.3504C32.3205 55.0685 30.4618 55.2094 29.441 55.5383C26.1198 56.5873 22.6462 59.4527 20.2848 63.1165C16.9636 68.2522 15.4705 75.8305 16.5217 82.2971C16.7655 83.8315 17.7558 87.1509 18.03 87.3858C18.0543 87.4107 18.1796 87.6809 18.3691 88.0895C18.8931 89.2192 19.9079 91.4073 20.6352 92.3962C21.5188 93.6331 24.185 96.3262 25.2971 97.1561L25.9979 97.6728L26.1046 98.9411C26.3026 101.368 26.3788 101.587 27.4453 102.401C30.1114 104.484 35.3675 106.425 40.1208 107.114C42.3299 107.427 47.1289 107.318 48.9571 106.911ZM100.451 92.2084C91.5997 91.4098 80.9048 87.0724 73.1654 80.3709C69.9051 77.5369 65.6698 72.0257 63.9939 68.9725C63.6435 68.3462 63.3845 68.0487 63.0798 67.9704C62.7599 67.8765 63.0341 67.7825 64.3443 67.5633C69.8746 66.5926 75.2526 64.2283 79.5946 60.8619L80.2344 60.3765L80.4173 60.8306C80.8286 61.8483 82.413 62.8817 83.5861 62.8817C84.0584 62.8817 85.6429 62.1458 86.6027 61.4725L87.2578 61.0184L87.791 61.5665C88.2785 62.0675 88.3699 62.0988 89.284 62.0988C90.3352 62.0988 91.5997 61.6134 92.3006 60.9245L92.6814 60.5644L93.7631 61.3003C94.342 61.723 95.957 62.6468 97.3433 63.3827C99.4153 64.4788 101.609 65.747 103.696 67.0623L104.032 67.2815L103.712 67.7199C103.376 68.1896 102.752 69.0821 102.752 70.4443C102.752 71.9788 104.305 74.7357 107.277 76.6291C109.611 78.1165 113.63 81.0424 113.477 85.319C113.459 85.8356 112.898 87.1197 112.152 88.2783C111.664 89.0142 110.308 90.1103 109.074 90.7522C106.972 91.8326 103.27 92.4589 100.451 92.2084ZM19.2183 21.9212C19.6296 22.0151 19.9039 22.156 19.8429 22.2186C19.6449 22.4221 18.5937 22.3282 18.3499 22.0778C17.969 21.702 18.0604 21.4359 18.5937 21.3263C18.8679 21.2794 19.2792 21.0446 19.5078 20.8098C19.7363 20.5749 19.9343 20.4654 19.9343 20.5436C19.9343 20.7471 19.1726 21.4672 18.7917 21.6238C18.548 21.7334 18.6241 21.7803 19.2183 21.9212ZM25.2819 22.1717C25.7237 21.9213 25.6323 21.7491 25.1143 21.8273C24.5963 21.9056 24.5658 21.843 24.901 21.3107C25.0381 21.1072 25.1143 20.8098 25.0838 20.6532C25.0381 20.4497 24.9315 20.5437 24.6877 21.0446C24.5049 21.4047 24.2459 21.7021 24.124 21.7021C23.7431 21.7021 23.7126 22.0152 24.0783 22.1561C24.5506 22.3596 24.9162 22.3596 25.2819 22.1717ZM20.0106 13.6223C19.6449 13.6849 18.5023 14.1546 17.4968 14.6713C16.476 15.1724 15.6076 15.5951 15.5467 15.5795C13.9927 15.4072 16.1561 12.7455 20.0867 10.021C23.8498 7.40622 26.394 6.02836 28.7555 5.32376C30.2332 4.88535 31.8939 4.82272 32.3661 5.18285C32.6251 5.38639 32.5337 5.40205 31.4063 5.41771C28.9687 5.41771 26.1503 6.70163 21.5645 9.8488C19.1879 11.4772 16.4303 13.8102 16.4303 14.186C16.4303 14.2642 16.8721 14.1077 17.4206 13.8571C18.5937 13.3091 19.7973 13.0273 20.3305 13.1526C20.8942 13.3091 20.7723 13.5127 20.0106 13.6223ZM25.9065 14.9686C27.3386 14.6712 27.3996 14.6555 27.3996 14.499C27.3996 14.4207 26.8511 14.3425 26.1655 14.3111L24.9315 14.2642L26.0741 12.9336C26.6988 12.1978 27.43 11.462 27.689 11.2898C28.2527 10.9141 28.2832 10.648 27.8262 10.4915L27.4757 10.3819L27.8566 10.241C28.0699 10.1627 28.466 10.1314 28.7403 10.1784C29.1516 10.241 29.243 10.2097 29.1973 9.99051C29.1516 9.77135 28.984 9.72438 28.2375 9.74004C26.0589 9.77135 25.1295 10.3662 26.8359 10.648C27.3082 10.7263 27.7043 10.8515 27.7043 10.9298C27.7043 10.9924 27.6281 11.055 27.5367 11.055C27.2472 11.055 24.7944 13.6067 24.4897 14.2329C24.0174 15.1565 24.2764 15.2974 25.9065 14.9686ZM35.9615 8.89409C35.5197 8.9254 35.413 9.00367 35.4435 9.22284L35.4482 9.25472C35.4654 9.37128 35.4753 9.43791 35.4494 9.45763C35.4148 9.48395 35.3166 9.42671 35.0874 9.29309L35.0474 9.2698C34.7579 9.11326 34.7275 9.03498 34.895 8.90975C35.0017 8.81582 35.2912 8.67493 35.5197 8.62797L35.9463 8.51839L35.6263 8.17399C35.4587 7.97048 35.3673 7.78263 35.413 7.72001C35.5349 7.59478 37.028 7.76698 37.2412 7.93918C37.3327 8.01745 37.4698 8.00179 37.5612 7.90787C37.7745 7.6887 38.0639 7.8609 38.0639 8.2053C38.0639 8.39315 38.0182 8.40881 37.8811 8.26792C37.7592 8.14268 37.6526 8.14268 37.5155 8.25226C37.3936 8.36184 37.3022 8.36184 37.226 8.23661C37.1803 8.15834 36.8908 8.08006 36.5861 8.08006C36.3064 8.08006 36.1734 8.08006 36.1454 8.1343C36.12 8.18346 36.1808 8.27716 36.2967 8.45577C36.5397 8.84593 36.5253 8.84713 35.9667 8.89366L35.9615 8.89409ZM33.6459 4.72868C33.6459 4.52517 33.4631 4.16512 33.2346 3.9303L32.808 3.49197L35.0932 3.5859C36.3577 3.64852 37.7898 3.78941 38.2926 3.9303C38.7953 4.05553 39.3743 4.14946 39.5875 4.14946C39.9075 4.14946 39.8465 4.08684 39.2524 3.7581C38.2164 3.21019 36.891 2.94407 34.3467 2.75621C31.2997 2.53705 29.761 2.83448 30.0504 3.61721C30.0961 3.77375 30.3399 3.85203 30.7055 3.85203C31.4521 3.85203 32.6709 4.30601 33.0822 4.72868C33.524 5.18266 33.6459 5.18266 33.6459 4.72868ZM26.2113 46.1908C27.4453 47.8191 29.0754 49.6667 29.8372 50.293C30.2942 50.6688 30.6904 50.982 30.7208 50.982C30.7361 50.982 30.4009 50.2617 29.9743 49.3849C28.2528 45.8619 27.2472 42.3546 26.775 38.315C26.6683 37.4225 26.5007 36.6709 26.3179 36.3578C25.9523 35.7315 25.9523 34.9173 26.3331 34.1501C26.5312 33.743 26.6378 33.2263 26.6378 32.6626V31.8014L25.9066 32.5843C25.1905 33.3515 24.5049 33.6647 24.5049 33.1949C24.5049 32.8505 25.6323 31.1908 26.2265 30.6741C26.6988 30.267 26.7597 30.1261 26.9121 28.9048C27.0187 28.1688 27.2625 26.8693 27.4605 26.0081C27.6738 25.1469 27.7957 24.411 27.7652 24.3797C27.6586 24.2701 24.0784 28.496 23.5908 29.8442C23.4838 30.1402 23.1947 30.6584 22.9662 30.9716L22.5701 31.4943C22.5701 31.4943 22.6931 32.2262 22.8291 33.146C22.9664 34.0754 23.0309 34.7142 23.0883 35.2833C23.1651 36.0445 23.2293 36.6807 23.4385 37.72C23.6823 39.0039 23.926 40.1156 23.987 40.1939C24.0327 40.2878 24.2307 41.0081 24.4288 41.8066C24.8553 43.5759 25.5714 45.3296 26.2113 46.1908ZM88.0348 61.0027L87.7149 60.6739C87.7149 60.6739 93.025 53.7402 93.9765 51.1854C94.7026 49.2357 95.1299 48.6828 95.7065 48.6828C96.029 48.6828 96.2922 48.7585 96.4141 48.9464C96.6274 49.2752 96.8329 49.6823 96.5587 51.0758C96.1016 53.3305 95.4008 54.8179 93.2984 58.0277C92.8108 58.7636 92.1862 59.5778 91.912 59.8597C91.2721 60.4703 89.8325 61.0966 88.9946 61.2375C88.4614 61.3158 88.309 61.2845 88.0348 61.0027Z" fill="#00160A"/>
<path d="M130.221 76.3197C132.116 71.0123 131.829 69.8814 131.5 69.7708C131.5 69.7708 130.777 70.1936 130.457 71.0861C129.862 72.7614 127.829 77.1455 127.067 77.9284C126.168 78.8522 126.168 78.8522 125.254 78.8522C124.34 78.8522 121.704 77.4374 121.345 76.0428C120.77 73.8115 123.243 66.06 123.304 65.6216L122.893 65.3241C122.618 65.5903 119.051 76.7071 114.361 73.8105C113.824 73.4788 112.685 71.9159 112.594 71.0861C112.086 68.6748 114.415 60.2432 114.811 58.5113C115.166 56.9612 117.012 55.5225 119.282 55.5225C122.771 55.5225 122.302 58.6567 123.865 59.7611C124.557 60.2506 125.695 59.3632 126.046 59.2959C128.012 58.9201 128.765 59.3577 130.205 60.5329C131.317 61.44 132.14 63.2354 133.046 63.8679C133.549 64.2193 134.083 63.7389 134.258 63.6487C134.975 63.2789 136.513 63.5548 136.939 63.8679C137.565 64.1482 139.097 65.6621 139.339 66.5427C140.436 70.5335 136.972 79.381 135.664 81.0407C133.498 83.788 128.325 81.6271 130.221 76.3197Z" fill="white"/>
<path fill-rule="evenodd" clip-rule="evenodd" d="M42.6347 61.7771C46.8091 64.4858 51.1134 66.2551 56.0191 66.7405C59.8888 67.1163 65.1063 66.5996 68.8541 65.347C72.0078 64.298 76.2736 61.3918 79.1225 58.9336C84.6528 54.1737 88.1417 46.7387 89.6652 38.8473C89.8784 37.7356 90.2037 34.9412 90.1885 32.1698C90.1885 28.9443 88.8073 20.1301 84.6224 15.0478C75.9909 4.56561 61.8027 -0.156313 49.8786 3.87826C45.5772 5.33366 40.9973 7.97055 37.539 11.4152C33.1818 15.7837 29.9672 21.7336 28.6875 27.8087C27.3468 34.2283 29.0908 41.9005 32.1225 48.1949C34.5449 53.2053 38.5365 59.0996 42.6347 61.7771ZM83.3122 42.8547C80.448 51.7012 72.9829 58.3087 63.5981 60.3129C62.166 60.6104 61.1757 60.72 59.1647 60.7513C57.7478 60.7983 56.331 60.7826 56.0415 60.7513C49.4752 59.9371 44.4781 57.4476 39.8772 52.719C37.8661 50.6365 37.013 49.5092 35.7637 47.2858C33.7984 43.7628 32.7472 40.1616 32.4272 35.8245C31.3303 20.9654 41.6749 8.58029 56.2396 7.29637C61.9527 6.79533 68.2905 8.59595 73.1047 12.1032C74.8872 13.4028 78.1171 16.6909 79.1226 18.2254C79.5339 18.836 83.5255 24.8328 84.2263 28.2775C85.1252 32.7556 84.7748 38.361 83.3122 42.8547Z" fill="white"/>
<path fill-rule="evenodd" clip-rule="evenodd" d="M90.1939 32.1697C90.1939 42.6792 85.3568 54.169 79.1141 59.0759C76.1358 61.417 72.2436 64.2518 68.8541 65.3469C63.8868 66.9519 56.019 66.7405 56.019 66.7405C56.019 66.7405 64.0458 65.6377 67.0204 64.4074C75.5502 60.8794 80.2065 55.4638 83.0817 50.2676C88.7573 40.0105 90.1939 31.9144 90.1939 32.1697Z" fill="#E7EAEE"/>
<path fill-rule="evenodd" clip-rule="evenodd" d="M56.1937 58.8734C52.126 58.341 48.0887 56.8535 44.8284 54.6458C42.8936 53.3463 39.9685 50.293 38.5516 48.1166C36.5253 44.9851 35.1847 41.6344 34.5296 38.0331C34.0573 35.4183 34.0725 31.3943 34.5448 29.0614C35.0323 26.6814 35.6569 24.8651 36.7691 22.5635C38.0641 19.9017 39.4352 17.9445 41.492 15.8307C44.996 12.2295 49.0638 9.94348 53.9085 8.84745C55.4777 8.50298 61.1604 8.22114 61.3584 8.48732C61.4041 8.56561 61.7088 8.76916 62.0288 8.94139C62.3487 9.12928 63.2019 9.7869 63.9027 10.4289C64.9539 11.3683 65.4262 11.9633 66.3403 13.4351C66.9649 14.4372 67.4677 15.3453 67.4677 15.4236C67.4677 15.5959 67.9552 15.909 68.2294 15.909C68.6103 15.909 68.8693 14.7347 68.9455 12.6679C68.9912 11.5249 69.0826 10.5854 69.1435 10.5854C69.3568 10.5854 71.703 11.9163 72.7999 12.6679C74.9481 14.1397 77.0962 16.2065 78.6806 18.3672C79.3967 19.338 79.5033 19.5885 79.5033 20.1835C79.5033 20.7315 79.6557 21.1543 80.128 21.9998C81.3163 24.1292 82.2456 26.8067 82.8093 29.766C83.175 31.7545 83.175 35.5123 82.7941 37.5947C81.7581 43.3254 78.6806 49.0248 74.6738 52.6417C71.2764 55.6949 67.6657 57.5738 63.3999 58.4976C61.9373 58.8264 57.5497 59.0456 56.1937 58.8734ZM45.3008 48.1637C45.4379 48.0071 45.5293 47.7723 45.4836 47.6627C45.4699 47.6298 45.2791 47.5376 44.9999 47.4027C44.349 47.0882 43.2173 46.5414 42.7269 45.9717C40.7768 43.6856 40.0608 41.979 39.619 38.456C39.1924 35.027 39.5508 32.7089 40.3198 28.9832C40.6949 27.1657 41.692 25.6645 42.3124 24.7305C42.7342 24.0954 42.9818 23.7226 42.7413 23.6909C42.1471 23.597 42.0557 23.6439 41.4311 24.2546C40.0904 25.5698 39.481 26.6189 38.8411 28.6387C37.8509 31.8015 37.6595 40.349 39.619 44.2023C41.5785 48.0556 44.9504 48.5708 45.3008 48.1637ZM66.9649 35.0112C66.7062 37.4436 65.609 40.9611 64.3293 42.4955C63.7351 43.2158 61.5541 44.4527 59.713 44.2022C57.9348 43.9602 56.5441 43.1062 55.3558 41.2742C54.3351 39.6928 53.8079 37.7733 53.4514 35.3557C52.8359 31.181 55.5234 26.3213 56.6813 25.1156C57.8544 23.8787 58.6923 23.4403 59.7587 23.4246C60.7947 23.4246 61.4651 23.6595 62.5163 24.4267C64.4359 25.8046 67.4677 30.2847 66.9649 35.0112ZM46.4281 22.0619C46.7328 21.7019 46.7785 21.5297 46.6871 20.8565C46.6261 20.2303 46.5043 19.9798 46.1843 19.7137C45.6206 19.2441 44.9198 19.2441 44.4018 19.745C44.0362 20.1051 43.9905 20.2303 44.0362 21.0913C44.0819 22.015 44.1124 22.0776 44.6151 22.3594C45.2855 22.7351 45.9406 22.6255 46.4281 22.0619ZM55.9347 12.4017C53.1924 14.4215 52.0041 15.2513 50.7701 16.0342C49.795 16.6605 49.4903 16.6762 49.4903 16.1125C49.4903 15.815 49.7036 15.4862 50.2521 14.9695L51.0138 14.2492L49.536 14.0457C47.8754 13.8265 46.2605 13.3568 45.9101 12.9966C45.3312 12.386 45.8339 12.2451 47.4793 12.5582C48.2106 12.6835 49.6274 12.8401 50.6329 12.8714L52.4611 12.9497L53.7866 11.9632C56.6965 9.8025 59.713 8.58121 61.1603 8.95699C62.0592 9.1762 61.9526 9.42672 60.9318 9.55198C59.7587 9.6929 59.0427 10.1 55.9347 12.4017Z" fill="white"/>
<path d="M59.8501 42.0571C59.8501 41.9788 59.9415 41.9005 60.0634 41.9005C60.1853 41.9005 60.3376 41.9788 60.3833 42.0571C60.429 42.151 60.3376 42.2136 60.17 42.2136C59.9872 42.2136 59.8501 42.151 59.8501 42.0571Z" fill="white"/>
<path d="M60.7642 41.916C60.7642 41.7438 61.145 41.5873 61.5716 41.5873C61.9068 41.6029 61.9068 41.6029 61.6173 41.8221C61.2822 42.0882 60.7642 42.1352 60.7642 41.916Z" fill="white"/>
<path d="M58.4028 41.5089C58.357 41.3837 58.2961 41.1645 58.2504 41.0393C58.2047 40.8827 58.2809 40.8044 58.4789 40.8044C58.6465 40.8044 58.7836 40.8984 58.7836 41.0236C58.7836 41.1488 58.8293 41.3523 58.875 41.4932C58.936 41.6654 58.8903 41.7437 58.7227 41.7437C58.5856 41.7437 58.4332 41.6341 58.4028 41.5089Z" fill="white"/>
<path d="M59.2102 41.1174C59.1341 40.6478 59.3016 40.4912 59.8501 40.4912C60.0177 40.4912 60.1548 40.6478 60.2157 40.9139C60.3376 41.3679 60.1396 41.587 59.6063 41.587C59.3626 41.587 59.2559 41.4774 59.2102 41.1174Z" fill="white"/>
<path d="M57.6563 41.1959C57.3668 40.9611 57.3668 40.9611 57.6868 40.9611C57.8848 40.9611 58.0219 41.055 58.0219 41.1959C58.0219 41.4776 58.0219 41.4776 57.6563 41.1959Z" fill="white"/>
<path d="M60.7185 41.1799C60.5205 40.9764 60.6119 40.3659 60.8556 40.272C61.2975 40.0998 61.4955 40.1781 61.5869 40.5851C61.6479 40.8199 61.6784 41.0234 61.6479 41.0391C61.526 41.18 60.8099 41.2739 60.7185 41.1799Z" fill="white"/>
<path d="M62.0743 40.8514C62.0286 40.8044 61.9829 40.6009 61.9829 40.413C61.9829 40.1469 62.1048 40.0373 62.4704 39.959C62.7904 39.8964 62.9884 39.9277 63.0798 40.053C63.2322 40.3034 63.2322 40.6165 63.0951 40.6948C62.8208 40.8514 62.181 40.9453 62.0743 40.8514Z" fill="white"/>
<path d="M56.9556 40.3659C56.9556 40.1781 57.0927 40.0215 57.2907 39.9746C57.6869 39.865 57.6716 39.8493 57.7478 40.2563C57.7783 40.4912 57.7021 40.5851 57.3822 40.6164C57.047 40.6634 56.9556 40.6007 56.9556 40.3659Z" fill="white"/>
<path d="M58.1134 40.3815C57.9001 40.1467 58.0372 39.7084 58.3266 39.7084C58.5247 39.7084 58.6313 39.818 58.6313 40.0058C58.6313 40.3032 58.2809 40.5537 58.1134 40.3815Z" fill="white"/>
<path d="M59.0274 39.912C58.9055 39.6146 59.1645 39.3954 59.6673 39.3954C59.8958 39.3954 60.0024 39.4893 60.0024 39.6928C60.0024 39.865 59.8653 40.0216 59.6673 40.0842C59.1645 40.2094 59.134 40.2094 59.0274 39.912Z" fill="white"/>
<path d="M63.4305 39.8649C63.4762 39.7866 63.5524 39.7084 63.5981 39.7084C63.6438 39.7084 63.6286 39.7866 63.5829 39.8649C63.5372 39.9588 63.461 40.0215 63.4153 40.0215C63.3696 40.0215 63.3848 39.9588 63.4305 39.8649Z" fill="white"/>
<path d="M60.3984 39.5988C60.2765 39.2857 60.4288 39.1292 60.9164 39.0509C61.1906 39.0196 61.3125 39.0822 61.3429 39.3014C61.4496 39.8179 60.5812 40.0997 60.3984 39.5988Z" fill="white"/>
<path d="M56.7422 39.3325C56.6051 38.8159 56.6355 38.7689 57.0316 38.7689C57.2449 38.7689 57.4125 38.8315 57.4125 38.9098C57.4125 38.9881 57.4582 39.1603 57.5039 39.2855C57.5496 39.4421 57.4582 39.536 57.1992 39.583C56.9098 39.6456 56.8031 39.583 56.7422 39.3325Z" fill="white"/>
<path d="M61.8306 39.1602C61.8306 38.8785 61.9372 38.7532 62.2267 38.675C62.6533 38.5654 62.897 38.7845 62.897 39.2855C62.897 39.489 62.7751 39.5516 62.3638 39.5516C61.8915 39.5516 61.8306 39.5046 61.8306 39.1602Z" fill="white"/>
<path d="M56.2851 39.1604C56.2394 39.0351 56.2699 38.9255 56.3461 38.9255C56.4375 38.9255 56.4985 39.0351 56.4985 39.1604C56.4985 39.2856 56.468 39.3952 56.4375 39.3952C56.407 39.3952 56.3461 39.2856 56.2851 39.1604Z" fill="white"/>
<path d="M57.8237 39.2856C57.6104 39.0821 57.7323 38.6437 58.0065 38.5655C58.1741 38.5185 58.3417 38.5342 58.3874 38.5811C58.5702 38.7533 58.4636 39.2073 58.2351 39.3012C57.9456 39.4108 57.9456 39.4108 57.8237 39.2856Z" fill="white"/>
<path d="M63.2628 39.1758C63.0952 38.7218 63.2781 38.3774 63.7046 38.3304C64.0246 38.2835 64.116 38.3461 64.116 38.5966C64.116 39.1132 63.9484 39.395 63.6437 39.395C63.4761 39.395 63.3085 39.301 63.2628 39.1758Z" fill="white"/>
<path d="M58.8903 38.9723C58.7075 38.8001 58.7684 38.487 59.0274 38.3931C59.3169 38.2835 59.9263 38.5966 59.7587 38.7688C59.5454 38.9567 58.9969 39.0976 58.8903 38.9723Z" fill="white"/>
<path d="M60.2158 38.5808C60.0786 38.3617 60.5662 37.986 60.9623 37.986C61.1451 37.986 61.2213 38.0799 61.1908 38.2521C61.1299 38.5652 60.3529 38.8156 60.2158 38.5808Z" fill="white"/>
<path d="M56.0414 38.4715C56.0414 38.3932 55.9957 38.221 55.95 38.0801C55.9043 37.9392 55.9195 37.8296 56.0109 37.8296C56.209 37.8296 56.3613 38.4245 56.1785 38.5497C56.1023 38.5967 56.0414 38.5654 56.0414 38.4715Z" fill="white"/>
<path d="M56.4526 38.1112C56.3612 37.7668 56.544 37.5164 56.8944 37.5164C57.0924 37.5164 57.2905 38.1269 57.1686 38.3304C57.001 38.5965 56.5287 38.44 56.4526 38.1112Z" fill="white"/>
<path d="M57.5194 38.1895C57.2908 37.9547 57.428 37.3911 57.7327 37.3128C57.9612 37.2502 58.0831 37.3285 58.2049 37.6103C58.2963 37.8138 58.3421 38.0173 58.3116 38.0486C58.1592 38.1895 57.6108 38.2991 57.5194 38.1895Z" fill="white"/>
<path d="M61.6327 38.1894C61.4347 37.9859 61.5261 37.8607 61.9831 37.6885C62.364 37.5632 62.4707 37.5789 62.5468 37.7667C62.684 38.1425 61.9222 38.5025 61.6327 38.1894Z" fill="white"/>
<path d="M62.9732 37.8294C62.8209 37.5789 63.0342 37.3597 63.4303 37.3597C63.9026 37.3597 64.0397 37.7668 63.6131 37.892C63.1561 38.0172 63.0799 38.0016 62.9732 37.8294Z" fill="white"/>
<path d="M64.2683 37.4538C64.2683 37.2189 64.5425 36.9685 64.6644 37.0937C64.7711 37.2033 64.5578 37.6729 64.4054 37.6729C64.3293 37.6729 64.2683 37.579 64.2683 37.4538Z" fill="white"/>
<path d="M55.8434 37.2502C55.7824 37.2032 55.7367 36.9997 55.752 36.8275C55.752 36.5301 55.7672 36.5301 55.9043 36.8745C56.0567 37.2502 56.0262 37.438 55.8434 37.2502Z" fill="white"/>
<path d="M56.1329 37.0152C55.9958 36.4673 56.011 36.4203 56.4071 36.4203C56.8489 36.4203 57.1231 36.9995 56.788 37.2187C56.4376 37.4378 56.2395 37.3752 56.1329 37.0152Z" fill="white"/>
<path d="M61.3738 37.3283C61.3738 37.2813 61.45 37.0308 61.5414 36.7491C61.7547 36.1229 62.2269 36.0916 62.3336 36.7021C62.3793 36.9369 62.3945 37.1404 62.3793 37.1561C62.3031 37.25 61.3738 37.3909 61.3738 37.3283Z" fill="white"/>
<path d="M57.2146 36.9369C57.1536 36.89 57.1079 36.7021 57.1079 36.5299C57.1079 36.2794 57.1536 36.2638 57.3364 36.4203C57.4583 36.5299 57.565 36.7178 57.565 36.8274C57.565 37.0622 57.3821 37.1248 57.2146 36.9369Z" fill="white"/>
<path d="M62.699 36.6239C62.6075 36.1386 62.8056 35.9194 63.2779 35.982C63.5064 36.0133 63.5826 36.1542 63.5826 36.4986C63.5826 36.89 63.5217 36.9839 63.1865 37.0152C62.8513 37.0622 62.7751 36.9839 62.699 36.6239Z" fill="white"/>
<path d="M64.1919 36.6865C63.9939 36.0603 64.0548 35.8724 64.4662 35.8255C64.8318 35.7785 64.8775 35.8255 64.8775 36.2325C64.8775 36.5769 64.7861 36.7178 64.5576 36.7804C64.39 36.8274 64.2224 36.7804 64.1919 36.6865Z" fill="white"/>
<path d="M55.615 35.794C55.615 35.4966 55.6455 35.3713 55.6912 35.5279C55.7216 35.6688 55.7216 35.9192 55.6912 36.0758C55.6455 36.2167 55.615 36.0914 55.615 35.794Z" fill="white"/>
<path d="M55.9956 35.9975C55.7976 35.8096 55.889 35.1991 56.1327 35.1052C56.4832 34.9643 56.6507 35.1365 56.6507 35.6531C56.6507 35.9818 56.5746 36.1071 56.3765 36.1071C56.2242 36.1071 56.0413 36.0601 55.9956 35.9975Z" fill="white"/>
<path d="M56.9096 35.5747C56.8487 35.3399 56.8182 35.0894 56.8792 35.0424C57.0315 34.8859 57.1229 35.1364 57.0772 35.5904L57.0315 36.0287L56.9096 35.5747Z" fill="white"/>
<path d="M61.8306 35.4652C61.8306 35.293 61.9067 35.1991 61.9829 35.2461C62.0743 35.293 62.1353 35.4496 62.1353 35.5748C62.1353 35.7 62.0743 35.794 61.9829 35.794C61.9067 35.794 61.8306 35.6531 61.8306 35.4652Z" fill="white"/>
<path d="M62.5161 35.6686C62.3028 35.4338 62.4704 35.0112 62.8208 34.9172C63.2626 34.8077 63.2779 34.8077 63.415 35.2616C63.5064 35.5434 63.4455 35.606 63.0493 35.6686C62.8056 35.7156 62.5618 35.6999 62.5161 35.6686Z" fill="white"/>
<path d="M63.9179 35.3708C63.7503 35.2143 63.796 34.6977 63.9636 34.6977C64.055 34.6977 64.1159 34.6351 64.1159 34.5412C64.1159 34.4629 64.0245 34.3846 63.9026 34.3846C63.6436 34.3846 63.4303 33.6176 63.6436 33.3984C63.9179 33.1166 64.2226 33.414 64.4054 34.1811C64.512 34.5881 64.6187 35.0577 64.6644 35.2143C64.7253 35.4178 64.6644 35.4804 64.3749 35.4804C64.1769 35.4804 63.9636 35.4335 63.9179 35.3708Z" fill="white"/>
<path d="M64.7405 34.5407C64.6339 34.0711 64.3597 33.1318 64.1616 32.443C63.8569 31.4411 63.8264 31.1907 63.994 31.0811C64.1007 31.0028 64.2378 30.9402 64.2835 30.9402C64.4511 30.9402 65.0605 34.1493 64.9995 34.7755L64.9538 35.4017L64.7405 34.5407Z" fill="white"/>
<path d="M55.4624 34.4631C55.4624 34.2126 55.4929 34.1187 55.5386 34.2753C55.5691 34.4162 55.5691 34.6353 55.5386 34.7449C55.4929 34.8388 55.4624 34.7293 55.4624 34.4631Z" fill="white"/>
<path d="M55.7671 34.4317C55.828 33.8838 56.2699 33.7586 56.3917 34.2595C56.4984 34.6665 56.5288 34.6196 56.0718 34.7761C55.7519 34.87 55.7214 34.8387 55.7671 34.4317Z" fill="white"/>
<path d="M62.1964 34.2908C62.0745 33.8368 62.3335 33.5707 62.8211 33.6333C63.1867 33.6803 63.3238 34.3535 63.0191 34.557C62.6382 34.8074 62.2878 34.6979 62.1964 34.2908Z" fill="white"/>
<path d="M56.6506 34.1656C56.6506 33.8994 56.7268 33.7585 56.8944 33.7585C57.0467 33.7585 57.1077 33.8681 57.0772 34.103C57.001 34.6039 56.6506 34.6509 56.6506 34.1656Z" fill="white"/>
<path d="M55.2947 33.5079C55.2947 33.3357 55.3404 33.2888 55.3861 33.414C55.4318 33.5236 55.4166 33.6645 55.3709 33.7115C55.3252 33.7741 55.2795 33.6802 55.2947 33.5079Z" fill="white"/>
<path d="M55.5842 33.4611C55.5842 33.2263 55.6756 33.1323 55.9042 33.1323C56.1174 33.1323 56.1936 33.2106 56.1631 33.3985C56.087 33.8055 55.5842 33.8525 55.5842 33.4611Z" fill="white"/>
<path d="M56.4222 33.3202C56.3155 33.0384 56.3155 33.0384 56.7726 32.9132C57.0468 32.8192 57.1078 32.8662 57.1078 33.101C57.1078 33.4767 56.5593 33.6645 56.4222 33.3202Z" fill="white"/>
<path d="M61.9373 33.101C61.8306 32.7096 62.0287 32.5061 62.5619 32.5061C62.8209 32.5061 62.8971 32.6 62.8971 32.8975C62.8971 33.1323 62.8057 33.2888 62.6838 33.2888C62.5619 33.2888 62.3638 33.3358 62.242 33.3827C62.1048 33.4297 61.9982 33.3358 61.9373 33.101Z" fill="white"/>
<path d="M63.2628 32.7408C63.141 32.4277 63.3238 32.1929 63.6742 32.1929C63.8875 32.1929 63.9637 32.3025 63.9637 32.5842C63.9637 32.866 63.8875 32.9756 63.659 32.9756C63.4914 32.9756 63.3085 32.866 63.2628 32.7408Z" fill="white"/>
<path d="M55.4321 32.5216C55.4321 32.1928 55.7825 31.8171 55.9349 31.9893C55.9958 32.0363 56.0415 32.2554 56.0415 32.4589C56.0415 32.7094 55.9501 32.819 55.7368 32.819C55.5388 32.819 55.4321 32.7094 55.4321 32.5216Z" fill="white"/>
<path d="M56.2701 32.3336C56.1482 31.9422 56.2853 31.77 56.8033 31.6917C57.2756 31.6291 57.4279 32.1457 57.0166 32.4588C56.6205 32.7563 56.3767 32.7093 56.2701 32.3336Z" fill="white"/>
<path d="M61.785 32.2396C61.6784 32.1457 61.6326 31.5665 61.7241 31.5665C61.7393 31.5665 61.9678 31.5039 62.2421 31.4256C62.6991 31.2847 62.7296 31.3004 62.7143 31.723C62.6991 32.0361 62.6077 32.1927 62.3792 32.2553C61.9678 32.3649 61.9069 32.3649 61.785 32.2396Z" fill="white"/>
<path d="M61.2214 31.8798C61.2214 31.7702 61.2671 31.7232 61.3281 31.7702C61.3738 31.8328 61.3738 31.9268 61.3281 31.9894C61.2671 32.0363 61.2214 31.9894 61.2214 31.8798Z" fill="white"/>
<path d="M62.9277 31.6291C62.9734 31.3629 63.4457 30.9716 63.5523 31.0968C63.598 31.1438 63.6742 31.3316 63.7199 31.5351C63.8265 31.8482 63.7808 31.8796 63.3543 31.8796C62.9886 31.8796 62.882 31.8169 62.9277 31.6291Z" fill="white"/>
<path d="M55.5842 31.6135C55.5842 31.5353 55.6604 31.3787 55.7366 31.2535C55.8584 31.0656 55.8889 31.0813 55.8889 31.3787C55.8889 31.5666 55.828 31.7231 55.7366 31.7231C55.6604 31.7231 55.5842 31.6762 55.5842 31.6135Z" fill="white"/>
<path d="M56.0415 31.2689C56.0415 30.8306 56.3614 30.6897 56.6052 31.0184C56.7575 31.2533 56.7575 31.3315 56.6052 31.4411C56.2853 31.6446 56.0415 31.582 56.0415 31.2689Z" fill="white"/>
<path d="M60.6727 31.0653C60.3985 30.7522 60.3985 30.7365 60.6575 30.8305C60.8098 30.8931 61.0079 30.9401 61.084 30.9401C61.1602 30.9401 61.2212 31.0496 61.2212 31.1749C61.2212 31.5036 61.0079 31.4723 60.6727 31.0653Z" fill="white"/>
<path d="M57.3974 31.0494C56.7423 30.5328 56.6509 29.3744 57.2603 29.3744C57.6717 29.3744 58.0526 30.0319 57.9916 30.6424C57.9459 31.206 57.7631 31.3312 57.3974 31.0494Z" fill="white"/>
<path d="M61.5716 31.1437C61.6325 31.0968 61.724 31.0968 61.7849 31.1437C61.8306 31.2064 61.7849 31.2533 61.6783 31.2533C61.5716 31.2533 61.5259 31.2064 61.5716 31.1437Z" fill="white"/>
<path d="M63.872 30.533C63.9177 30.3921 63.9634 30.2512 63.9634 30.2198C63.9634 30.1885 64.0396 30.1572 64.1157 30.1572C64.2071 30.1572 64.2681 30.2981 64.2681 30.4703C64.2681 30.6582 64.1614 30.7834 64.0243 30.7834C63.8567 30.7834 63.811 30.7052 63.872 30.533Z" fill="white"/>
<path d="M55.8889 30.4859C55.8889 30.1259 56.2089 29.531 56.3917 29.531C56.7116 29.531 56.4831 30.5329 56.1479 30.5955C56.0108 30.6268 55.8889 30.5798 55.8889 30.4859Z" fill="white"/>
<path d="M59.3169 30.3139L58.8599 30.2043L59.2712 30.0947C59.6978 29.9695 60.0025 30.0634 60.0025 30.3296C60.0025 30.4861 59.9873 30.4861 59.3169 30.3139Z" fill="white"/>
<path d="M58.7837 29.5622C58.7837 28.9203 59.1341 28.8264 59.454 29.39C59.6673 29.7657 59.6826 29.844 59.4845 29.844C59.3626 29.844 59.1646 29.8909 59.0275 29.9379C58.8446 30.0162 58.7837 29.9223 58.7837 29.5622Z" fill="white"/>
<path d="M61.4345 29.7808C60.7489 29.4677 60.3071 28.638 60.3071 27.6518C60.3071 26.9473 60.3681 26.7751 60.7794 26.3838C61.0384 26.1333 61.2974 25.9298 61.3736 25.9298C61.7087 25.9298 62.9428 27.1352 63.3541 27.8866L63.8264 28.7476L63.3237 29.2955C62.7447 29.9217 62.1049 30.0939 61.4345 29.7808Z" fill="white"/>
<path d="M58.2505 29.3743C58.2048 29.296 58.2352 29.2178 58.3114 29.2178C58.4028 29.2178 58.479 29.296 58.479 29.3743C58.479 29.4683 58.4485 29.5309 58.418 29.5309C58.3723 29.5309 58.2962 29.4683 58.2505 29.3743Z" fill="white"/>
<path d="M56.2547 29.1239C56.3004 28.983 56.3461 28.8421 56.3461 28.8108C56.3461 28.7795 56.4833 28.7482 56.6509 28.7482C57.0317 28.7482 57.047 28.9986 56.6661 29.2178C56.2547 29.437 56.1481 29.4213 56.2547 29.1239Z" fill="white"/>
<path d="M57.4582 28.9358C57.1078 28.8889 57.0011 28.6854 57.2296 28.5445C57.2906 28.4975 57.5648 28.4192 57.839 28.3566C58.2504 28.2627 58.3266 28.294 58.3266 28.5601C58.3266 28.8889 58.0066 29.0298 57.4582 28.9358Z" fill="white"/>
<path d="M58.6313 28.4036C58.6313 28.2158 58.6466 28.1062 58.6771 28.1375C58.6923 28.1688 58.8142 28.3254 58.9208 28.4819C59.1036 28.7011 59.0884 28.748 58.8751 28.748C58.7228 28.748 58.6313 28.6228 58.6313 28.4036Z" fill="white"/>
<path d="M56.4983 28.294C56.4983 28.2001 56.5745 28.0905 56.6506 28.0435C56.742 27.9966 56.803 28.0592 56.803 28.1844C56.803 28.3253 56.742 28.4349 56.6506 28.4349C56.5745 28.4349 56.4983 28.3723 56.4983 28.294Z" fill="white"/>
<path d="M57.0623 28.0591C56.9404 27.746 58.0221 27.4016 58.2049 27.699C58.342 27.9495 58.2049 28.0591 57.626 28.1843C57.2756 28.2626 57.1232 28.2312 57.0623 28.0591Z" fill="white"/>
<path d="M58.4942 27.5581C58.4942 27.3859 58.5399 27.339 58.5856 27.4642C58.6313 27.5738 58.6161 27.7147 58.5704 27.7616C58.5247 27.8242 58.479 27.7303 58.4942 27.5581Z" fill="white"/>
<path d="M57.1993 27.3076C57.3821 26.9632 57.9153 26.3997 58.0525 26.3997C58.2048 26.3997 58.22 27.1354 58.0677 27.2294C57.9915 27.2607 57.7478 27.3389 57.5192 27.4016C57.1841 27.4798 57.1079 27.4642 57.1993 27.3076Z" fill="white"/>
<path d="M58.4181 26.9474C58.2505 26.4778 58.3267 26.2743 58.6924 26.2116C59.0733 26.1334 59.0733 26.1334 58.8295 26.6187C58.5248 27.2449 58.54 27.2449 58.4181 26.9474Z" fill="white"/>
<path d="M58.3267 26.0079C58.3267 25.9766 58.6314 25.7574 59.0122 25.5383C59.4693 25.2565 59.7892 25.1626 60.0177 25.2252C60.292 25.3191 60.2158 25.3817 59.5455 25.7105C58.7989 26.0549 58.3267 26.1801 58.3267 26.0079Z" fill="white"/>
<path d="M66.782 12.1347C66.3707 11.5242 65.5023 10.5379 64.8776 9.94307C64.253 9.3482 63.8417 8.86292 63.9635 8.86292C64.2987 8.86292 66.8582 9.58302 67.4981 9.8648C68.0313 10.0996 68.0465 10.1309 67.9094 10.6162C67.8332 10.898 67.7723 11.6024 67.7723 12.1817C67.7723 12.7765 67.7266 13.2462 67.6656 13.2462C67.5895 13.2462 67.2086 12.7452 66.782 12.1347Z" fill="white"/>
<path d="M35.7787 59.5613C35.154 59.2326 35.0169 59.0447 34.2247 57.4323C33.0821 55.1468 33.0516 54.6145 34.1333 55.9138C34.5599 56.4304 35.5501 57.4949 36.3271 58.2777C37.6526 59.5927 37.7135 59.6866 37.2717 59.624C36.9517 59.577 36.8299 59.6083 36.906 59.7335C37.0889 60.0153 36.5099 59.9371 35.7787 59.5613Z" fill="white"/>
<path fill-rule="evenodd" clip-rule="evenodd" d="M61.3109 88.0889C61.1844 87.7802 61.3254 87.4247 61.6257 87.2947L61.9539 87.1516C65.1452 85.7482 66.977 84.9053 68.2216 83.5667C69.4662 82.2281 69.6152 80.2619 69.849 79.0655C69.9132 78.7372 70.6365 79.3138 70.956 79.3798C71.2755 79.4457 71.4824 79.7654 71.4183 80.0937C71.1371 81.5321 70.38 82.9035 69.1612 84.2052C67.9464 85.5027 65.5946 86.8933 62.0836 88.4124C61.7833 88.5424 61.4373 88.3975 61.3109 88.0889Z" fill="#00160A"/>
<path fill-rule="evenodd" clip-rule="evenodd" d="M75.7426 25.6152C76.0226 25.4439 76.3847 25.5383 76.5513 25.8261C78.2202 28.7073 79.1142 32.001 79.1142 35.4277C79.1142 45.8091 70.9255 54.225 60.8242 54.225C58.1401 54.225 55.5367 53.63 53.1527 52.4964C52.857 52.3558 51.7399 51.2361 52.865 51.6915C53.9901 52.1469 58.3434 53.169 60.8556 53.169C70.3052 53.169 76.9902 45.1394 76.9902 35.4277C76.9902 32.2208 75.7426 29.3744 75.5374 26.4464C75.5136 26.107 75.4626 25.7865 75.7426 25.6152Z" fill="#00160A"/>
<path fill-rule="evenodd" clip-rule="evenodd" d="M17.31 71.5077C17.5186 71.2504 17.8906 70.7306 18.141 70.9449C19.1681 71.824 20.2641 72.8424 21.4365 73.039C22.6566 73.2436 24.104 73.2436 25.7768 73.0355C26.1003 72.9953 26.3943 73.2321 26.4334 73.5645C26.4726 73.8969 26.2421 74.199 25.9186 74.2392C24.1421 74.4602 22.5854 74.4602 21.2465 74.2357C19.86 74.0032 18.5706 73.3756 17.3858 72.3615C17.1354 72.1472 17.1015 71.765 17.31 71.5077Z" fill="#00160A"/>
<path d="M29.8372 50.293C29.0754 49.6667 27.4453 47.8191 26.2112 46.1907C25.5714 45.3295 24.8553 43.5759 24.4287 41.8066C24.2307 41.008 24.0326 40.2878 23.9869 40.1938C23.926 40.1155 23.6822 39.0039 23.4385 37.7199C23.0728 35.9037 23.1502 35.3185 22.8291 33.146C22.6931 32.2261 22.5701 31.4942 22.5701 31.4942L22.9662 30.9715C23.1947 30.6584 23.4838 30.1402 23.5908 29.8442C24.0783 28.496 27.6586 24.2701 27.7652 24.3797C27.7957 24.411 27.6738 25.1469 27.4605 26.008C27.2625 26.8692 27.0187 28.1688 26.912 28.9047C26.7597 30.126 26.6988 30.2669 26.2265 30.674C25.6323 31.1907 24.5049 32.8504 24.5049 33.1949C24.5049 33.6646 25.1905 33.3515 25.9065 32.5842L26.6378 31.8014V32.6625C26.6378 33.2262 26.5312 33.7429 26.3331 34.15C25.9522 34.9172 25.9522 35.7314 26.3179 36.3577C26.5007 36.6709 26.6683 37.4224 26.7749 38.3149C27.2472 42.3546 28.2527 45.8619 29.9743 49.3848C30.4009 50.2617 30.736 50.9819 30.7208 50.9819C30.6903 50.9819 30.2942 50.6688 29.8372 50.293Z" fill="white"/>
<path fill-rule="evenodd" clip-rule="evenodd" d="M93.23 59.9536L94.3269 60.4547C94.5544 60.5625 97.0635 61.8016 100.078 63.2901C104.937 65.6898 111.109 68.7375 111.146 68.7375C111.207 68.7375 111.493 68.0581 111.558 67.2657C111.71 65.559 112.274 63.2417 112.929 61.629C113.234 60.9087 113.477 60.0086 113.477 59.9303C113.477 59.8945 113.23 59.7919 112.824 59.6238C112.341 59.4237 111.635 59.1309 110.857 58.748C107.018 56.8534 99.5068 52.986 98.5775 52.4067C97.6634 51.8586 97.4805 51.8117 97.4805 52.1718C97.4805 52.6415 96.5512 54.8179 95.8352 55.9922C95.4543 56.6342 94.7078 57.7929 94.1746 58.5601L93.23 59.9536ZM110.887 65.9193C111.324 66.1795 110.567 66.5612 110.385 66.6239C109.308 66.7178 108.041 66.5097 107.002 65.888C106.46 65.4923 102.185 63.0514 99.3488 61.4322C98.0524 60.692 97.0567 60.1235 96.856 60.0007C96.2161 59.6093 95.6067 59.1865 95.5001 59.0613C95.1801 58.6385 95.4848 58.4506 96.3837 58.5289C96.9241 58.576 109.944 65.3572 110.887 65.9193Z" fill="white"/>
<path d="M82.2913 61.3629C81.8952 61.222 81.4686 60.9088 81.1944 60.5487L80.7373 59.9694L82.3522 58.3253C84.8355 55.8201 86.6637 53.0822 88.3091 50.029C88.8576 49.0112 90.4877 44.9068 90.6858 44.4527C90.9905 43.7951 91.219 43.5446 91.8741 43.1688C92.6511 42.6991 93.5347 42.5425 93.9156 42.8087C94.6469 43.3097 94.6469 44.8911 93.9156 47.6155C93.1081 50.6061 92.0264 52.7512 89.7869 55.8358C89.4365 56.3055 88.7814 57.2293 88.3091 57.8712C87.0446 59.5936 86.2219 60.4234 85.1098 61.0654C84.0128 61.6917 83.373 61.77 82.2913 61.3629Z" fill="white"/>
<path d="M88.035 61.0028L87.7151 60.674C87.7151 60.674 93.0252 53.7403 93.9767 51.1854C94.7028 49.2357 95.1301 48.6829 95.7067 48.6829C96.0291 48.6829 96.2924 48.7585 96.4143 48.9464C96.6276 49.2752 96.8331 49.6823 96.5589 51.0758C96.1018 53.3305 95.401 54.818 93.2986 58.0278C92.811 58.7637 92.1864 59.5779 91.9122 59.8598C91.2723 60.4704 89.8328 61.0967 88.9948 61.2376C88.4616 61.3159 88.3093 61.2846 88.035 61.0028Z" fill="white"/>
<path fill-rule="evenodd" clip-rule="evenodd" d="M96.9544 53.7523C97.2616 53.0299 97.4806 52.3998 97.4806 52.1718C97.4806 51.8117 97.6634 51.8586 98.5775 52.4067C99.5068 52.986 107.018 56.8534 110.857 58.748C112.289 59.4526 113.477 59.852 113.477 59.9303C113.477 60.0086 96.6286 54.5182 96.9544 53.7523Z" fill="#E7EAEE"/>
<path fill-rule="evenodd" clip-rule="evenodd" d="M44.8284 54.6458C42.8936 53.3463 39.9684 50.293 38.5516 48.1166C36.5253 44.9851 35.1847 41.6344 34.5295 38.0331C34.0573 35.4183 34.0725 31.3943 34.5448 29.0613C35.0323 26.6814 35.6569 24.8651 36.7691 22.5635C38.0641 19.9017 39.4352 17.9445 41.4919 15.8307C43.5088 13.7579 34.5448 22.3299 36.7691 37.6671C38.5516 50.5197 46.2121 55.5828 44.8284 54.6458Z" fill="#E7EAEE"/>
</svg>
